<svg xmlns="http://www.w3.org/2000/svg" xmlns:xlink="http://www.w3.org/1999/xlink" width="500" zoomAndPan="magnify" viewBox="0 0 375 374.999991" height="500" preserveAspectRatio="xMidYMid meet" version="1.2"><g id="4032abc556"><rect x="0" width="375" y="0" height="374.999991" style="fill:#ffffff;fill-opacity:1;stroke:none;"/><rect x="0" width="375" y="0" height="374.999991" style="fill:#dddbd4;fill-opacity:1;stroke:none;"/><path style=" stroke:none;fill-rule:nonzero;fill:#f2f0ea;fill-opacity:1;" d="M 162.5 187.5 L 150 187.5 C 150 225.414062 119.164062 256.25 81.25 256.25 C 43.335938 256.25 12.5 225.414062 12.5 187.5 C 12.5 149.585938 43.335938 118.75 81.25 118.75 L 81.25 106.25 C 36.449219 106.25 0 142.699219 0 187.5 C 0 232.300781 36.449219 268.75 81.25 268.75 C 126.050781 268.75 162.5 232.300781 162.5 187.5 "/><path style=" stroke:none;fill-rule:nonzero;fill:#f2f0ea;fill-opacity:1;" d="M 293.75 106.25 C 248.949219 106.25 212.5 142.699219 212.5 187.5 L 225 187.5 C 225 149.585938 255.835938 118.75 293.75 118.75 C 331.664062 118.75 362.5 149.585938 362.5 187.5 C 362.5 225.414062 331.664062 256.25 293.75 256.25 L 293.75 268.75 C 338.550781 268.75 375 232.300781 375 187.5 C 375 142.699219 338.550781 106.25 293.75 106.25 "/><path style=" stroke:none;fill-rule:nonzero;fill:#f2f0ea;fill-opacity:1;" d="M 318.75 212.5 L 318.75 206.25 L 306.25 206.25 L 306.25 212.5 C 306.25 215.941406 303.441406 218.75 300 218.75 L 287.5 218.75 C 284.058594 218.75 281.25 215.941406 281.25 212.5 L 281.25 206.25 L 293.75 206.25 L 293.75 193.75 L 281.25 193.75 L 281.25 181.25 L 293.75 181.25 L 293.75 168.75 L 281.25 168.75 L 281.25 162.5 C 281.25 159.058594 284.058594 156.25 287.5 156.25 L 300 156.25 C 303.441406 156.25 306.25 159.058594 306.25 162.5 L 306.25 168.75 L 318.75 168.75 L 318.75 162.5 C 318.75 152.148438 310.351562 143.75 300 143.75 L 287.5 143.75 C 277.148438 143.75 268.75 152.148438 268.75 162.5 L 268.75 168.75 L 256.25 168.75 L 256.25 181.25 L 268.75 181.25 L 268.75 193.75 L 256.25 193.75 L 256.25 206.25 L 268.75 206.25 L 268.75 212.5 C 268.75 222.851562 277.148438 231.25 287.5 231.25 L 300 231.25 C 310.351562 231.25 318.75 222.851562 318.75 212.5 "/><path style=" stroke:none;fill-rule:nonzero;fill:#f2f0ea;fill-opacity:1;" d="M 187.5 212.5 L 187.5 225 C 225.414062 225 256.25 255.835938 256.25 293.75 C 256.25 331.664062 225.414062 362.5 187.5 362.5 C 149.585938 362.5 118.75 331.664062 118.75 293.75 L 106.25 293.75 C 106.25 338.550781 142.699219 375 187.5 375 C 232.300781 375 268.75 338.550781 268.75 293.75 C 268.75 248.949219 232.300781 212.5 187.5 212.5 "/><path style=" stroke:none;fill-rule:nonzero;fill:#f2f0ea;fill-opacity:1;" d="M 187.5 162.5 L 187.5 150 C 149.585938 150 118.75 119.164062 118.75 81.25 C 118.75 43.335938 149.585938 12.5 187.5 12.5 C 225.414062 12.5 256.25 43.335938 256.25 81.25 L 268.75 81.25 C 268.75 36.449219 232.300781 0 187.5 0 C 142.699219 0 106.25 36.449219 106.25 81.25 C 106.25 126.050781 142.699219 162.5 187.5 162.5 "/><path style=" stroke:none;fill-rule:nonzero;fill:#f2f0ea;fill-opacity:1;" d="M 212.5 250 L 200 250 L 200 260.425781 L 187.5 277.074219 L 175 260.425781 L 175 250 L 162.5 250 L 162.5 264.574219 L 179.6875 287.5 L 168.75 287.5 L 168.75 300 L 181.25 300 L 181.25 312.5 L 168.75 312.5 L 168.75 325 L 181.25 325 L 181.25 337.5 L 193.75 337.5 L 193.75 325 L 206.25 325 L 206.25 312.5 L 193.75 312.5 L 193.75 300 L 206.25 300 L 206.25 287.5 L 195.3125 287.5 L 212.5 264.574219 L 212.5 250 "/><path style=" stroke:none;fill-rule:nonzero;fill:#f2f0ea;fill-opacity:1;" d="M 212.5 62.5 L 212.5 56.25 C 212.5 45.898438 204.101562 37.5 193.75 37.5 L 193.75 25 L 181.25 25 L 181.25 37.5 C 170.898438 37.5 162.5 45.898438 162.5 56.25 L 162.5 68.75 C 162.5 79.101562 170.898438 87.5 181.25 87.5 L 193.75 87.5 C 197.191406 87.5 200 90.308594 200 93.75 L 200 106.25 C 200 109.691406 197.191406 112.5 193.75 112.5 L 181.25 112.5 C 177.808594 112.5 175 109.691406 175 106.25 L 175 100 L 162.5 100 L 162.5 106.25 C 162.5 116.601562 170.898438 125 181.25 125 L 181.25 137.5 L 193.75 137.5 L 193.75 125 C 204.101562 125 212.5 116.601562 212.5 106.25 L 212.5 93.75 C 212.5 83.398438 204.101562 75 193.75 75 L 181.25 75 C 177.808594 75 175 72.191406 175 68.75 L 175 56.25 C 175 52.808594 177.808594 50 181.25 50 L 193.75 50 C 197.191406 50 200 52.808594 200 56.25 L 200 62.5 L 212.5 62.5 "/><path style=" stroke:none;fill-rule:nonzero;fill:#f2f0ea;fill-opacity:1;" d="M 62.5 162.5 L 62.5 181.25 L 56.25 181.25 L 56.25 193.75 L 62.5 193.75 L 62.5 218.75 L 56.25 218.75 L 56.25 231.25 L 106.25 231.25 L 106.25 218.75 L 75 218.75 L 75 193.75 L 93.75 193.75 L 93.75 181.25 L 75 181.25 L 75 162.5 C 75 159.058594 77.808594 156.25 81.25 156.25 L 87.5 156.25 C 90.941406 156.25 93.75 159.058594 93.75 162.5 L 93.75 168.75 L 106.25 168.75 L 106.25 162.5 C 106.25 152.148438 97.851562 143.75 87.5 143.75 L 81.25 143.75 C 70.898438 143.75 62.5 152.148438 62.5 162.5 "/></g></svg>