<svg xmlns="http://www.w3.org/2000/svg" xmlns:xlink="http://www.w3.org/1999/xlink" width="500" zoomAndPan="magnify" viewBox="0 0 375 374.999991" height="500" preserveAspectRatio="xMidYMid meet" version="1.2"><g id="8deca2a1af"><rect x="0" width="375" y="0" height="374.999991" style="fill:#ffffff;fill-opacity:1;stroke:none;"/><rect x="0" width="375" y="0" height="374.999991" style="fill:#dddbd4;fill-opacity:1;stroke:none;"/><path style=" stroke:none;fill-rule:nonzero;fill:#f2f0ea;fill-opacity:1;" d="M 150 225 L 162.5 225 L 162.5 237.5 L 150 237.5 Z M 175 231.25 L 187.5 231.25 L 187.5 243.75 L 175 243.75 Z M 187.5 250 C 217.992188 250 237.5 238.867188 237.5 231.25 L 237.5 206.617188 C 226.316406 214.0625 208.421875 218.75 187.5 218.75 C 166.550781 218.75 148.679688 214.0625 137.5 206.617188 L 137.5 231.25 C 137.5 238.867188 157.007812 250 187.5 250 "/><path style=" stroke:none;fill-rule:nonzero;fill:#f2f0ea;fill-opacity:1;" d="M 187.5 200 L 175 200 L 175 187.5 L 187.5 187.5 Z M 162.5 193.75 L 150 193.75 L 150 181.25 L 162.5 181.25 Z M 137.5 162.867188 L 137.5 187.5 C 137.5 195.117188 157.007812 206.25 187.5 206.25 C 217.992188 206.25 237.5 195.117188 237.5 187.5 L 237.5 162.867188 C 226.316406 170.3125 208.421875 175 187.5 175 C 166.550781 175 148.679688 170.3125 137.5 162.867188 "/><path style=" stroke:none;fill-rule:nonzero;fill:#f2f0ea;fill-opacity:1;" d="M 187.5 125 C 157.007812 125 137.5 136.132812 137.5 143.75 C 137.5 151.367188 157.007812 162.5 187.5 162.5 C 217.992188 162.5 237.5 151.367188 237.5 143.75 C 237.5 136.132812 217.992188 125 187.5 125 "/><path style=" stroke:none;fill-rule:nonzero;fill:#f2f0ea;fill-opacity:1;" d="M 31.25 318.75 L 43.75 318.75 L 43.75 306.25 L 31.25 306.25 L 31.25 318.75 "/><path style=" stroke:none;fill-rule:nonzero;fill:#f2f0ea;fill-opacity:1;" d="M 56.25 318.75 L 68.75 318.75 L 68.75 306.25 L 56.25 306.25 L 56.25 318.75 "/><path style=" stroke:none;fill-rule:nonzero;fill:#f2f0ea;fill-opacity:1;" d="M 87.5 200 L 12.5 200 L 12.5 150 L 87.5 150 Z M 100 181.25 L 100 150 C 100 143.113281 94.382812 137.5 87.5 137.5 L 12.5 137.5 C 5.617188 137.5 0 143.113281 0 150 L 0 200 C 0 206.882812 5.617188 212.5 12.5 212.5 L 37.5 212.5 L 37.5 225 L 25 225 L 25 237.5 L 75 237.5 L 75 225 L 62.5 225 L 62.5 212.5 L 87.5 212.5 C 94.382812 212.5 100 206.882812 100 200 L 100 193.75 L 125 193.75 L 125 181.25 L 100 181.25 "/><path style=" stroke:none;fill-rule:nonzero;fill:#f2f0ea;fill-opacity:1;" d="M 31.25 181.25 L 43.75 181.25 L 43.75 168.75 L 31.25 168.75 L 31.25 181.25 "/><path style=" stroke:none;fill-rule:nonzero;fill:#f2f0ea;fill-opacity:1;" d="M 56.25 181.25 L 68.75 181.25 L 68.75 168.75 L 56.25 168.75 L 56.25 181.25 "/><path style=" stroke:none;fill-rule:nonzero;fill:#f2f0ea;fill-opacity:1;" d="M 43.75 31.25 L 31.25 31.25 L 31.25 43.75 L 43.75 43.75 L 43.75 31.25 "/><path style=" stroke:none;fill-rule:nonzero;fill:#f2f0ea;fill-opacity:1;" d="M 68.75 31.25 L 56.25 31.25 L 56.25 43.75 L 68.75 43.75 L 68.75 31.25 "/><path style=" stroke:none;fill-rule:nonzero;fill:#f2f0ea;fill-opacity:1;" d="M 362.5 337.5 L 287.5 337.5 L 287.5 287.5 L 362.5 287.5 Z M 87.5 337.5 L 12.5 337.5 L 12.5 287.5 L 87.5 287.5 Z M 362.5 275 L 287.5 275 C 280.640625 275 275 280.613281 275 287.5 L 275 306.25 L 246.3125 306.25 L 201.804688 261.695312 C 197.242188 262.253906 192.429688 262.5 187.5 262.5 C 182.566406 262.5 177.757812 262.253906 173.191406 261.695312 L 128.6875 306.25 L 100 306.25 L 100 287.5 C 100 280.613281 94.382812 275 87.5 275 L 12.5 275 C 5.617188 275 0 280.613281 0 287.5 L 0 337.5 C 0 344.382812 5.617188 350 12.5 350 L 37.5 350 L 37.5 362.5 L 25 362.5 L 25 375 L 75 375 L 75 362.5 L 62.5 362.5 L 62.5 350 L 87.5 350 C 94.382812 350 100 344.382812 100 337.5 L 100 318.75 L 131.25 318.75 C 132.933594 318.75 134.496094 318.066406 135.691406 316.941406 L 187.5 265.0625 L 239.304688 316.941406 C 240.503906 318.066406 242.066406 318.75 243.75 318.75 L 275 318.75 L 275 337.5 C 275 344.382812 280.640625 350 287.5 350 L 312.5 350 L 312.5 362.5 L 300 362.5 L 300 375 L 350 375 L 350 362.5 L 337.5 362.5 L 337.5 350 L 362.5 350 C 369.359375 350 375 344.382812 375 337.5 L 375 287.5 C 375 280.613281 369.359375 275 362.5 275 "/><path style=" stroke:none;fill-rule:nonzero;fill:#f2f0ea;fill-opacity:1;" d="M 318.75 306.25 L 306.25 306.25 L 306.25 318.75 L 318.75 318.75 L 318.75 306.25 "/><path style=" stroke:none;fill-rule:nonzero;fill:#f2f0ea;fill-opacity:1;" d="M 343.75 306.25 L 331.25 306.25 L 331.25 318.75 L 343.75 318.75 L 343.75 306.25 "/><path style=" stroke:none;fill-rule:nonzero;fill:#f2f0ea;fill-opacity:1;" d="M 362.5 200 L 287.5 200 L 287.5 150 L 362.5 150 Z M 362.5 137.5 L 287.5 137.5 C 280.640625 137.5 275 143.113281 275 150 L 275 181.25 L 250 181.25 L 250 193.75 L 275 193.75 L 275 200 C 275 206.882812 280.640625 212.5 287.5 212.5 L 312.5 212.5 L 312.5 225 L 300 225 L 300 237.5 L 350 237.5 L 350 225 L 337.5 225 L 337.5 212.5 L 362.5 212.5 C 369.359375 212.5 375 206.882812 375 200 L 375 150 C 375 143.113281 369.359375 137.5 362.5 137.5 "/><path style=" stroke:none;fill-rule:nonzero;fill:#f2f0ea;fill-opacity:1;" d="M 318.75 168.75 L 306.25 168.75 L 306.25 181.25 L 318.75 181.25 L 318.75 168.75 "/><path style=" stroke:none;fill-rule:nonzero;fill:#f2f0ea;fill-opacity:1;" d="M 343.75 168.75 L 331.25 168.75 L 331.25 181.25 L 343.75 181.25 L 343.75 168.75 "/><path style=" stroke:none;fill-rule:nonzero;fill:#f2f0ea;fill-opacity:1;" d="M 362.5 62.5 L 287.5 62.5 L 287.5 12.5 L 362.5 12.5 Z M 87.5 62.5 L 12.5 62.5 L 12.5 12.5 L 87.5 12.5 Z M 362.5 0 L 287.5 0 C 280.640625 0 275 5.617188 275 12.5 L 275 56.25 L 243.75 56.25 C 242.066406 56.25 240.503906 56.933594 239.304688 58.054688 L 187.5 109.9375 L 135.691406 58.054688 C 134.496094 56.933594 132.933594 56.25 131.25 56.25 L 100 56.25 L 100 12.5 C 100 5.617188 94.382812 0 87.5 0 L 12.5 0 C 5.617188 0 0 5.617188 0 12.5 L 0 62.5 C 0 69.382812 5.617188 75 12.5 75 L 37.5 75 L 37.5 87.5 L 25 87.5 L 25 100 L 75 100 L 75 87.5 L 62.5 87.5 L 62.5 75 L 87.5 75 C 92.066406 75 96.070312 72.4375 98.242188 68.75 L 128.6875 68.75 L 173.191406 113.304688 C 177.757812 112.742188 182.566406 112.5 187.5 112.5 C 192.429688 112.5 197.242188 112.742188 201.804688 113.304688 L 246.3125 68.75 L 276.757812 68.75 C 278.929688 72.4375 282.933594 75 287.5 75 L 312.5 75 L 312.5 87.5 L 300 87.5 L 300 100 L 350 100 L 350 87.5 L 337.5 87.5 L 337.5 75 L 362.5 75 C 369.359375 75 375 69.382812 375 62.5 L 375 12.5 C 375 5.617188 369.359375 0 362.5 0 "/><path style=" stroke:none;fill-rule:nonzero;fill:#f2f0ea;fill-opacity:1;" d="M 318.75 31.25 L 306.25 31.25 L 306.25 43.75 L 318.75 43.75 L 318.75 31.25 "/><path style=" stroke:none;fill-rule:nonzero;fill:#f2f0ea;fill-opacity:1;" d="M 343.75 31.25 L 331.25 31.25 L 331.25 43.75 L 343.75 43.75 L 343.75 31.25 "/></g></svg>