<svg xmlns="http://www.w3.org/2000/svg" xmlns:xlink="http://www.w3.org/1999/xlink" width="500" zoomAndPan="magnify" viewBox="0 0 375 374.999991" height="500" preserveAspectRatio="xMidYMid meet" version="1.2"><g id="d60c9cb8ec"><rect x="0" width="375" y="0" height="374.999991" style="fill:#ffffff;fill-opacity:1;stroke:none;"/><rect x="0" width="375" y="0" height="374.999991" style="fill:#dddbd4;fill-opacity:1;stroke:none;"/><path style=" stroke:none;fill-rule:nonzero;fill:#f2f0ea;fill-opacity:1;" d="M 352.292969 150.136719 C 356.417969 150.136719 359.789062 146.765625 359.789062 142.640625 L 359.789062 120.15625 L 367.285156 120.15625 C 371.40625 120.15625 374.78125 116.78125 374.78125 112.660156 L 374.78125 90.175781 C 374.78125 87.25 373.054688 84.550781 370.433594 83.351562 L 190.542969 0.902344 C 188.519531 0.00390625 186.269531 0.00390625 184.246094 0.902344 L 4.355469 83.351562 C 1.734375 84.550781 0.0078125 87.25 0.0078125 90.175781 L 0.0078125 112.660156 C 0.0078125 116.78125 3.382812 120.15625 7.503906 120.15625 L 15 120.15625 L 15 142.640625 C 15 146.765625 18.371094 150.136719 22.496094 150.136719 L 29.992188 150.136719 L 29.992188 300.046875 L 22.496094 300.046875 C 18.371094 300.046875 15 303.417969 15 307.542969 L 15 330.027344 L 7.503906 330.027344 C 3.382812 330.027344 0.0078125 333.402344 0.0078125 337.523438 L 0.0078125 367.503906 C 0.0078125 371.628906 3.382812 375 7.503906 375 L 367.285156 375 C 371.40625 375 374.78125 371.628906 374.78125 367.503906 L 374.78125 337.523438 C 374.78125 333.402344 371.40625 330.027344 367.285156 330.027344 L 359.789062 330.027344 L 359.789062 307.542969 C 359.789062 303.417969 356.417969 300.046875 352.292969 300.046875 L 344.796875 300.046875 L 344.796875 150.136719 Z M 15 105.164062 L 15 94.972656 L 187.394531 15.96875 L 359.789062 94.972656 L 359.789062 105.164062 Z M 29.992188 315.035156 L 157.414062 315.035156 C 161.535156 315.035156 164.910156 311.664062 164.910156 307.542969 C 164.910156 303.417969 161.535156 300.046875 157.414062 300.046875 L 134.925781 300.046875 L 134.925781 150.136719 L 239.863281 150.136719 L 239.863281 300.046875 L 217.375 300.046875 C 213.253906 300.046875 209.878906 303.417969 209.878906 307.542969 C 209.878906 311.664062 213.253906 315.035156 217.375 315.035156 L 344.796875 315.035156 L 344.796875 330.027344 L 29.992188 330.027344 Z M 59.972656 180.121094 L 59.972656 270.0625 L 44.980469 270.0625 L 44.980469 180.121094 Z M 44.980469 165.128906 L 44.980469 150.136719 L 59.972656 150.136719 L 59.972656 165.128906 Z M 59.972656 285.054688 L 59.972656 300.046875 L 44.980469 300.046875 L 44.980469 285.054688 Z M 74.964844 300.046875 L 74.964844 150.136719 L 89.953125 150.136719 L 89.953125 300.046875 Z M 119.9375 180.121094 L 119.9375 270.0625 L 104.945312 270.0625 L 104.945312 180.121094 Z M 104.945312 165.128906 L 104.945312 150.136719 L 119.9375 150.136719 L 119.9375 165.128906 Z M 119.9375 285.054688 L 119.9375 300.046875 L 104.945312 300.046875 L 104.945312 285.054688 Z M 269.84375 180.121094 L 269.84375 270.0625 L 254.851562 270.0625 L 254.851562 180.121094 Z M 254.851562 165.128906 L 254.851562 150.136719 L 269.84375 150.136719 L 269.84375 165.128906 Z M 269.84375 285.054688 L 269.84375 300.046875 L 254.851562 300.046875 L 254.851562 285.054688 Z M 284.835938 300.046875 L 284.835938 150.136719 L 299.824219 150.136719 L 299.824219 300.046875 Z M 329.808594 180.121094 L 329.808594 270.0625 L 314.816406 270.0625 L 314.816406 180.121094 Z M 314.816406 165.128906 L 314.816406 150.136719 L 329.808594 150.136719 L 329.808594 165.128906 Z M 329.808594 285.054688 L 329.808594 300.046875 L 314.816406 300.046875 L 314.816406 285.054688 Z M 359.789062 345.019531 L 359.789062 360.007812 L 15 360.007812 L 15 345.019531 Z M 29.992188 135.148438 L 29.992188 120.15625 L 344.796875 120.15625 L 344.796875 135.148438 Z M 29.992188 135.148438 "/><path style=" stroke:none;fill-rule:nonzero;fill:#f2f0ea;fill-opacity:1;" d="M 209.878906 237.265625 C 209.878906 229.335938 204.78125 222.484375 197.1875 220.203125 L 181.910156 215.621094 C 180.726562 215.269531 179.898438 214.15625 179.898438 212.917969 C 179.898438 211.367188 181.160156 210.101562 182.71875 210.101562 L 202.386719 210.101562 C 206.523438 210.101562 209.878906 206.75 209.878906 202.605469 C 209.878906 198.460938 206.523438 195.109375 202.386719 195.109375 L 194.890625 195.109375 L 194.890625 187.613281 C 194.890625 183.472656 191.535156 180.121094 187.394531 180.121094 C 183.253906 180.121094 179.898438 183.472656 179.898438 187.613281 L 179.898438 195.394531 C 171.421875 196.757812 164.910156 204.0625 164.910156 212.917969 C 164.910156 220.847656 170.007812 227.699219 177.601562 229.980469 L 192.878906 234.5625 C 194.0625 234.914062 194.890625 236.027344 194.890625 237.265625 C 194.890625 238.816406 193.628906 240.082031 192.070312 240.082031 L 172.402344 240.082031 C 168.265625 240.082031 164.910156 243.433594 164.910156 247.578125 C 164.910156 251.722656 168.265625 255.074219 172.402344 255.074219 L 179.898438 255.074219 L 179.898438 262.570312 C 179.898438 266.710938 183.253906 270.0625 187.394531 270.0625 C 191.535156 270.0625 194.890625 266.710938 194.890625 262.570312 L 194.890625 254.789062 C 203.367188 253.425781 209.878906 246.121094 209.878906 237.265625 Z M 209.878906 237.265625 "/><path style=" stroke:none;fill-rule:nonzero;fill:#f2f0ea;fill-opacity:1;" d="M 194.890625 307.542969 C 194.890625 308.035156 194.84375 308.519531 194.746094 309.003906 C 194.648438 309.484375 194.507812 309.953125 194.320312 310.410156 C 194.132812 310.863281 193.898438 311.296875 193.625 311.707031 C 193.351562 312.113281 193.042969 312.492188 192.695312 312.839844 C 192.347656 313.1875 191.96875 313.5 191.558594 313.773438 C 191.148438 314.046875 190.71875 314.277344 190.261719 314.464844 C 189.808594 314.65625 189.339844 314.796875 188.855469 314.890625 C 188.375 314.988281 187.886719 315.035156 187.394531 315.035156 C 186.902344 315.035156 186.414062 314.988281 185.933594 314.890625 C 185.449219 314.796875 184.980469 314.65625 184.527344 314.464844 C 184.070312 314.277344 183.640625 314.046875 183.230469 313.773438 C 182.820312 313.5 182.441406 313.1875 182.09375 312.839844 C 181.746094 312.492188 181.4375 312.113281 181.164062 311.707031 C 180.890625 311.296875 180.65625 310.863281 180.46875 310.410156 C 180.28125 309.953125 180.140625 309.484375 180.042969 309.003906 C 179.945312 308.519531 179.898438 308.035156 179.898438 307.542969 C 179.898438 307.050781 179.945312 306.5625 180.042969 306.078125 C 180.140625 305.597656 180.28125 305.128906 180.46875 304.671875 C 180.65625 304.21875 180.890625 303.785156 181.164062 303.375 C 181.4375 302.96875 181.746094 302.589844 182.09375 302.242188 C 182.441406 301.894531 182.820312 301.582031 183.230469 301.308594 C 183.640625 301.035156 184.070312 300.804688 184.527344 300.617188 C 184.980469 300.429688 185.449219 300.285156 185.933594 300.191406 C 186.414062 300.09375 186.902344 300.046875 187.394531 300.046875 C 187.886719 300.046875 188.375 300.09375 188.855469 300.191406 C 189.339844 300.285156 189.808594 300.429688 190.261719 300.617188 C 190.71875 300.804688 191.148438 301.035156 191.558594 301.308594 C 191.96875 301.582031 192.347656 301.894531 192.695312 302.242188 C 193.042969 302.589844 193.351562 302.96875 193.625 303.375 C 193.898438 303.785156 194.132812 304.21875 194.320312 304.671875 C 194.507812 305.128906 194.648438 305.597656 194.746094 306.078125 C 194.84375 306.5625 194.890625 307.050781 194.890625 307.542969 Z M 194.890625 307.542969 "/></g></svg>