<svg xmlns="http://www.w3.org/2000/svg" xmlns:xlink="http://www.w3.org/1999/xlink" width="500" zoomAndPan="magnify" viewBox="0 0 375 374.999991" height="500" preserveAspectRatio="xMidYMid meet" version="1.2"><g id="63c65f9fa9"><rect x="0" width="375" y="0" height="374.999991" style="fill:#ffffff;fill-opacity:1;stroke:none;"/><rect x="0" width="375" y="0" height="374.999991" style="fill:#dddbd4;fill-opacity:1;stroke:none;"/><path style=" stroke:none;fill-rule:nonzero;fill:#f2f0ea;fill-opacity:1;" d="M 150.832031 141.996094 C 148.914062 153.796875 147.691406 166.820312 147.394531 180.804688 L 227.605469 180.804688 C 227.308594 166.820312 226.085938 153.796875 224.167969 141.996094 C 212.4375 145.5 200.121094 147.320312 187.5 147.320312 C 174.878906 147.320312 162.5625 145.5 150.832031 141.996094 "/><path style=" stroke:none;fill-rule:nonzero;fill:#f2f0ea;fill-opacity:1;" d="M 187.5 227.679688 C 200.121094 227.679688 212.4375 229.5 224.167969 233.003906 C 226.085938 221.203125 227.308594 208.179688 227.605469 194.195312 L 147.394531 194.195312 C 147.691406 208.179688 148.914062 221.203125 150.832031 233.003906 C 162.5625 229.5 174.878906 227.679688 187.5 227.679688 "/><path style=" stroke:none;fill-rule:nonzero;fill:#f2f0ea;fill-opacity:1;" d="M 187.5 301.339844 C 200.246094 301.339844 213.960938 280.316406 221.621094 246.230469 C 210.734375 242.832031 199.265625 241.070312 187.5 241.070312 C 175.734375 241.070312 164.265625 242.832031 153.378906 246.230469 C 161.039062 280.316406 174.753906 301.339844 187.5 301.339844 "/><path style=" stroke:none;fill-rule:nonzero;fill:#f2f0ea;fill-opacity:1;" d="M 234.238281 251.023438 C 232.207031 259.695312 229.75 267.800781 226.886719 275.160156 C 223.335938 284.292969 219.257812 291.949219 214.785156 298.023438 C 233.683594 293.359375 250.734375 283.964844 264.605469 271.167969 C 255.5 262.757812 245.265625 255.992188 234.238281 251.023438 "/><path style=" stroke:none;fill-rule:nonzero;fill:#f2f0ea;fill-opacity:1;" d="M 73.863281 194.195312 C 75.359375 219.816406 85.363281 243.195312 101.085938 261.527344 C 112.085938 251.320312 124.570312 243.265625 138.058594 237.585938 C 135.703125 223.980469 134.316406 209.339844 134.003906 194.195312 L 73.863281 194.195312 "/><path style=" stroke:none;fill-rule:nonzero;fill:#f2f0ea;fill-opacity:1;" d="M 334.820312 53.570312 L 320.277344 53.570312 C 317.511719 61.367188 310.070312 66.964844 301.339844 66.964844 C 292.609375 66.964844 285.167969 61.367188 282.402344 53.570312 L 267.855469 53.570312 L 267.855469 40.179688 L 282.402344 40.179688 C 285.167969 32.382812 292.609375 26.785156 301.339844 26.785156 C 310.070312 26.785156 317.511719 32.382812 320.277344 40.179688 L 334.820312 40.179688 Z M 354.910156 61.414062 L 354.910156 32.335938 C 349.210938 30.3125 344.6875 25.789062 342.664062 20.089844 L 260.011719 20.089844 C 257.992188 25.789062 253.46875 30.3125 247.769531 32.335938 L 247.769531 73.660156 L 342.664062 73.660156 C 344.6875 67.960938 349.210938 63.4375 354.910156 61.414062 "/><path style=" stroke:none;fill-rule:nonzero;fill:#f2f0ea;fill-opacity:1;" d="M 148.113281 99.839844 C 151.664062 90.707031 155.742188 83.050781 160.214844 76.976562 C 141.316406 81.640625 124.265625 91.035156 110.394531 103.832031 C 119.5 112.242188 129.734375 119.007812 140.761719 123.976562 C 142.792969 115.304688 145.25 107.199219 148.113281 99.839844 "/><path style=" stroke:none;fill-rule:nonzero;fill:#f2f0ea;fill-opacity:1;" d="M 101.089844 113.472656 C 85.363281 131.804688 75.359375 155.183594 73.863281 180.804688 L 134.003906 180.804688 C 134.316406 165.660156 135.703125 151.019531 138.058594 137.414062 C 124.570312 131.734375 112.085938 123.679688 101.089844 113.472656 "/><path style=" stroke:none;fill-rule:nonzero;fill:#f2f0ea;fill-opacity:1;" d="M 301.136719 194.195312 L 240.996094 194.195312 C 240.683594 209.339844 239.296875 223.980469 236.941406 237.585938 C 250.429688 243.265625 262.914062 251.320312 273.910156 261.527344 C 289.636719 243.195312 299.640625 219.816406 301.136719 194.195312 "/><path style=" stroke:none;fill-rule:nonzero;fill:#f2f0ea;fill-opacity:1;" d="M 187.5 73.660156 C 174.753906 73.660156 161.039062 94.683594 153.378906 128.769531 C 164.265625 132.167969 175.734375 133.929688 187.5 133.929688 C 199.265625 133.929688 210.734375 132.167969 221.621094 128.769531 C 213.960938 94.683594 200.246094 73.660156 187.5 73.660156 "/><path style=" stroke:none;fill-rule:nonzero;fill:#f2f0ea;fill-opacity:1;" d="M 140.761719 251.023438 C 129.734375 255.992188 119.496094 262.757812 110.394531 271.167969 C 124.265625 283.964844 141.316406 293.359375 160.214844 298.023438 C 155.742188 291.949219 151.664062 284.292969 148.113281 275.160156 C 145.25 267.800781 142.792969 259.695312 140.761719 251.023438 "/><path style=" stroke:none;fill-rule:nonzero;fill:#f2f0ea;fill-opacity:1;" d="M 226.886719 99.839844 C 229.75 107.199219 232.207031 115.304688 234.238281 123.976562 C 245.265625 119.007812 255.503906 112.242188 264.605469 103.832031 C 250.734375 91.035156 233.683594 81.640625 214.785156 76.976562 C 219.257812 83.050781 223.335938 90.707031 226.886719 99.839844 "/><path style=" stroke:none;fill-rule:nonzero;fill:#f2f0ea;fill-opacity:1;" d="M 227.679688 0 L 227.679688 66.773438 C 229.9375 67.53125 232.171875 68.339844 234.375 69.21875 L 234.375 26.785156 C 234.375 23.085938 237.375 20.089844 241.070312 20.089844 C 244.761719 20.089844 247.769531 17.085938 247.769531 13.394531 C 247.769531 9.695312 250.765625 6.695312 254.464844 6.695312 L 348.214844 6.695312 C 351.914062 6.695312 354.910156 9.695312 354.910156 13.394531 C 354.910156 17.085938 357.914062 20.089844 361.605469 20.089844 C 365.304688 20.089844 368.304688 23.085938 368.304688 26.785156 L 368.304688 66.964844 C 368.304688 70.664062 365.304688 73.660156 361.605469 73.660156 C 357.914062 73.660156 354.910156 76.664062 354.910156 80.355469 C 354.910156 84.054688 351.914062 87.054688 348.214844 87.054688 L 265.503906 87.054688 C 268.234375 89.179688 270.875 91.414062 273.421875 93.75 L 375 93.75 L 375 0 L 227.679688 0 "/><path style=" stroke:none;fill-rule:nonzero;fill:#f2f0ea;fill-opacity:1;" d="M 40.179688 321.429688 L 54.722656 321.429688 C 57.488281 313.632812 64.929688 308.035156 73.660156 308.035156 C 82.390625 308.035156 89.832031 313.632812 92.597656 321.429688 L 107.144531 321.429688 L 107.144531 334.820312 L 92.597656 334.820312 C 89.832031 342.617188 82.390625 348.214844 73.660156 348.214844 C 64.929688 348.214844 57.488281 342.617188 54.722656 334.820312 L 40.179688 334.820312 Z M 20.089844 313.585938 L 20.089844 342.664062 C 25.789062 344.6875 30.3125 349.210938 32.335938 354.910156 L 114.988281 354.910156 C 117.007812 349.210938 121.53125 344.6875 127.230469 342.664062 L 127.230469 301.339844 L 32.335938 301.339844 C 30.3125 307.039062 25.789062 311.5625 20.089844 313.585938 "/><path style=" stroke:none;fill-rule:nonzero;fill:#f2f0ea;fill-opacity:1;" d="M 140.625 348.214844 C 140.625 351.914062 137.625 354.910156 133.929688 354.910156 C 130.238281 354.910156 127.230469 357.914062 127.230469 361.605469 C 127.230469 365.304688 124.234375 368.304688 120.535156 368.304688 L 26.785156 368.304688 C 23.085938 368.304688 20.089844 365.304688 20.089844 361.605469 C 20.089844 357.914062 17.085938 354.910156 13.394531 354.910156 C 9.695312 354.910156 6.695312 351.914062 6.695312 348.214844 L 6.695312 308.035156 C 6.695312 304.335938 9.695312 301.339844 13.394531 301.339844 C 17.085938 301.339844 20.089844 298.335938 20.089844 294.644531 C 20.089844 290.945312 23.085938 287.945312 26.785156 287.945312 L 109.496094 287.945312 C 106.765625 285.820312 104.125 283.585938 101.578125 281.25 L 0 281.25 L 0 375 L 147.320312 375 L 147.320312 308.226562 C 145.0625 307.46875 142.828125 306.660156 140.625 305.78125 L 140.625 348.214844 "/><path style=" stroke:none;fill-rule:nonzero;fill:#f2f0ea;fill-opacity:1;" d="M 301.339844 40.179688 C 297.648438 40.179688 294.644531 43.183594 294.644531 46.875 C 294.644531 50.566406 297.648438 53.570312 301.339844 53.570312 C 305.03125 53.570312 308.035156 50.566406 308.035156 46.875 C 308.035156 43.183594 305.03125 40.179688 301.339844 40.179688 "/><path style=" stroke:none;fill-rule:nonzero;fill:#f2f0ea;fill-opacity:1;" d="M 273.914062 113.472656 C 262.914062 123.679688 250.429688 131.734375 236.941406 137.414062 C 239.296875 151.019531 240.683594 165.660156 240.996094 180.804688 L 301.136719 180.804688 C 299.640625 155.183594 289.636719 131.804688 273.914062 113.472656 "/><path style=" stroke:none;fill-rule:nonzero;fill:#f2f0ea;fill-opacity:1;" d="M 73.660156 334.820312 C 77.351562 334.820312 80.355469 331.816406 80.355469 328.125 C 80.355469 324.433594 77.351562 321.429688 73.660156 321.429688 C 69.96875 321.429688 66.964844 324.433594 66.964844 328.125 C 66.964844 331.816406 69.96875 334.820312 73.660156 334.820312 "/><path style=" stroke:none;fill-rule:nonzero;fill:#f2f0ea;fill-opacity:1;" d="M 26.785156 254.464844 C 28.894531 254.464844 30.878906 253.46875 32.144531 251.785156 L 52.234375 225 L 41.515625 216.964844 L 33.480469 227.679688 L 33.480469 174.105469 C 33.480469 96.566406 96.566406 33.480469 174.105469 33.480469 L 200.894531 33.480469 L 200.894531 20.089844 L 174.105469 20.089844 C 89.183594 20.089844 20.089844 89.183594 20.089844 174.105469 L 20.089844 227.679688 L 12.054688 216.964844 L 1.335938 225 L 21.425781 251.785156 C 22.691406 253.46875 24.675781 254.464844 26.785156 254.464844 "/><path style=" stroke:none;fill-rule:nonzero;fill:#f2f0ea;fill-opacity:1;" d="M 348.214844 120.535156 C 346.105469 120.535156 344.121094 121.53125 342.859375 123.214844 L 322.769531 150 L 333.480469 158.035156 L 341.519531 147.320312 L 341.519531 200.894531 C 341.519531 278.433594 278.433594 341.519531 200.894531 341.519531 L 174.105469 341.519531 L 174.105469 354.910156 L 200.894531 354.910156 C 285.816406 354.910156 354.910156 285.816406 354.910156 200.894531 L 354.910156 147.320312 L 362.949219 158.035156 L 373.660156 150 L 353.570312 123.214844 C 352.308594 121.53125 350.324219 120.535156 348.214844 120.535156 "/></g></svg>