<svg xmlns="http://www.w3.org/2000/svg" xmlns:xlink="http://www.w3.org/1999/xlink" width="500" zoomAndPan="magnify" viewBox="0 0 375 374.999991" height="500" preserveAspectRatio="xMidYMid meet" version="1.2"><defs><clipPath id="e1e1ae5ad1"><path d="M 31 87.34375 L 344.316406 87.34375 L 344.316406 287.679688 L 31 287.679688 Z M 31 87.34375 "/></clipPath><clipPath id="4f42e04bd2"><path d="M 30.835938 88 L 344.316406 88 L 344.316406 287.679688 L 30.835938 287.679688 Z M 30.835938 88 "/></clipPath><clipPath id="d5a8c8673f"><path d="M 135 9.054688 L 240 9.054688 L 240 366 L 135 366 Z M 135 9.054688 "/></clipPath><clipPath id="cea35be71b"><path d="M 149.929688 157.675781 L 225.070312 157.675781 L 225.070312 232.8125 L 149.929688 232.8125 Z M 149.929688 157.675781 "/></clipPath><clipPath id="3724ac8f67"><path d="M 187.5 157.675781 C 166.75 157.675781 149.929688 174.496094 149.929688 195.242188 C 149.929688 215.992188 166.75 232.8125 187.5 232.8125 C 208.25 232.8125 225.070312 215.992188 225.070312 195.242188 C 225.070312 174.496094 208.25 157.675781 187.5 157.675781 Z M 187.5 157.675781 "/></clipPath></defs><g id="c20a214614"><rect x="0" width="375" y="0" height="374.999991" style="fill:#ffffff;fill-opacity:1;stroke:none;"/><rect x="0" width="375" y="0" height="374.999991" style="fill:#f2f0ea;fill-opacity:1;stroke:none;"/><g clip-rule="nonzero" clip-path="url(#e1e1ae5ad1)"><path style=" stroke:none;fill-rule:nonzero;fill:#1a1a1a;fill-opacity:1;" d="M 60.898438 156.429688 C 66.664062 162.523438 73.230469 168.832031 80.511719 175.238281 C 87.816406 181.644531 95.828125 188.148438 104.390625 194.613281 C 121.515625 207.550781 140.859375 220.339844 160.964844 232.027344 C 181.078125 243.703125 201.921875 254.246094 221.921875 262.851562 C 241.933594 271.472656 261.019531 278.058594 277.808594 282.242188 C 286.195312 284.320312 294.019531 285.800781 301.109375 286.644531 C 308.199219 287.488281 314.535156 287.660156 320.019531 287.207031 C 330.992188 286.285156 338.476562 282.75 341.953125 276.886719 C 345.433594 271.027344 344.8125 262.796875 340.214844 252.863281 C 335.628906 242.933594 326.988281 231.277344 315.046875 218.808594 C 303.066406 206.332031 287.78125 193.039062 270.285156 179.945312 C 252.792969 166.84375 233.148438 153.949219 212.824219 142.238281 C 192.496094 130.535156 171.53125 120.015625 151.5 111.488281 C 141.484375 107.222656 131.699219 103.449219 122.347656 100.25 C 113 97.058594 104.085938 94.433594 95.75 92.40625 C 79.113281 88.382812 64.800781 86.777344 54.089844 87.855469 C 43.359375 88.917969 36.132812 92.570312 32.925781 98.523438 C 29.761719 104.503906 30.59375 112.75 35.378906 122.65625 C 37.769531 127.609375 41.125 132.96875 45.40625 138.632812 C 49.710938 144.304688 54.917969 150.28125 60.898438 156.429688 C 55.160156 150.339844 50.226562 144.460938 46.210938 138.910156 C 42.171875 133.351562 39.039062 128.113281 36.890625 123.304688 C 32.578125 113.675781 32.21875 105.777344 35.75 100.152344 C 39.242188 94.507812 46.601562 91.125 57.34375 90.292969 C 68.058594 89.445312 82.089844 91.113281 98.402344 95.167969 C 114.71875 99.238281 133.238281 105.640625 152.648438 113.960938 C 172.050781 122.273438 192.316406 132.492188 211.90625 143.824219 C 231.496094 155.160156 250.433594 167.582031 267.25 180.210938 C 284.09375 192.835938 298.769531 205.621094 310.289062 217.640625 C 321.828125 229.664062 330.191406 240.902344 334.652344 250.488281 C 339.148438 260.085938 339.722656 268.003906 336.507812 273.742188 C 333.285156 279.476562 326.183594 282.980469 315.6875 283.953125 C 305.191406 284.9375 291.34375 283.398438 275.171875 279.488281 C 258.996094 275.574219 240.507812 269.257812 221.066406 261.011719 C 201.628906 252.769531 181.242188 242.570312 161.441406 231.210938 C 141.625 219.859375 122.394531 207.328125 105.210938 194.539062 C 96.617188 188.148438 88.535156 181.699219 81.117188 175.304688 C 73.675781 168.914062 66.898438 162.585938 60.898438 156.429688 "/></g><path style=" stroke:none;fill-rule:nonzero;fill:#1a1a1a;fill-opacity:1;" d="M 60.738281 168.09375 C 56.53125 165.664062 55.089844 160.292969 57.515625 156.089844 C 59.945312 151.886719 65.320312 150.445312 69.527344 152.875 C 73.730469 155.300781 75.167969 160.675781 72.742188 164.875 C 70.3125 169.082031 64.941406 170.519531 60.738281 168.09375 "/><g clip-rule="nonzero" clip-path="url(#4f42e04bd2)"><path style=" stroke:none;fill-rule:nonzero;fill:#1a1a1a;fill-opacity:1;" d="M 277.796875 93.40625 C 269.632812 95.347656 260.886719 97.882812 251.695312 100.984375 C 242.492188 104.101562 232.855469 107.789062 222.972656 111.96875 C 203.203125 120.324219 182.449219 130.679688 162.269531 142.238281 C 142.101562 153.816406 122.546875 166.589844 105.097656 179.605469 C 87.621094 192.617188 72.371094 205.847656 60.351562 218.296875 C 54.363281 224.515625 49.160156 230.546875 44.886719 236.261719 C 40.613281 241.980469 37.292969 247.378906 34.949219 252.355469 C 30.257812 262.316406 29.582031 270.5625 32.917969 276.503906 C 36.257812 282.445312 43.695312 286.023438 54.597656 287.007812 C 65.492188 288.003906 79.917969 286.351562 96.683594 282.25 C 113.484375 278.117188 132.636719 271.527344 152.738281 262.925781 C 172.828125 254.335938 193.824219 243.773438 214.128906 232.03125 C 234.429688 220.285156 254.027344 207.394531 271.429688 194.3125 C 280.132812 187.777344 288.292969 181.191406 295.742188 174.695312 C 303.179688 168.199219 309.910156 161.792969 315.832031 155.589844 C 327.636719 143.195312 336.183594 131.609375 340.605469 121.796875 C 345.054688 111.972656 345.5 103.894531 341.949219 98.140625 C 338.351562 92.414062 330.792969 89.007812 319.8125 88.199219 C 314.328125 87.789062 308.007812 88.019531 300.960938 88.890625 C 293.890625 89.777344 286.113281 91.300781 277.796875 93.40625 C 285.941406 91.480469 293.503906 90.148438 300.316406 89.449219 C 307.152344 88.730469 313.257812 88.636719 318.496094 89.183594 C 328.996094 90.265625 336.019531 93.898438 339.121094 99.773438 C 342.265625 105.617188 341.519531 113.679688 336.867188 123.394531 C 332.246094 133.097656 323.785156 144.410156 312.113281 156.503906 C 300.429688 168.597656 285.625 181.429688 268.714844 194.074219 C 251.808594 206.714844 232.824219 219.148438 213.210938 230.441406 C 193.601562 241.738281 173.367188 251.917969 154.019531 260.164062 C 134.664062 268.4375 116.246094 274.746094 100.078125 278.710938 C 83.890625 282.691406 69.976562 284.3125 59.441406 283.382812 C 48.875 282.472656 41.726562 279.011719 38.367188 273.359375 C 35.007812 267.703125 35.523438 259.800781 39.929688 250.226562 C 44.328125 240.652344 52.582031 229.429688 64.054688 217.386719 C 75.539062 205.335938 90.246094 192.492188 107.117188 179.78125 C 123.972656 167.074219 143 154.523438 162.746094 143.058594 C 182.484375 131.582031 202.957031 121.195312 222.625 112.710938 C 232.460938 108.464844 242.089844 104.703125 251.335938 101.472656 C 260.589844 98.222656 269.460938 95.523438 277.796875 93.40625 "/></g><path style=" stroke:none;fill-rule:nonzero;fill:#1a1a1a;fill-opacity:1;" d="M 267.773438 87.433594 C 271.980469 85.007812 277.355469 86.445312 279.78125 90.648438 C 282.207031 94.851562 280.769531 100.226562 276.5625 102.652344 C 272.359375 105.078125 266.988281 103.636719 264.554688 99.4375 C 262.128906 95.230469 263.570312 89.859375 267.773438 87.433594 "/><g clip-rule="nonzero" clip-path="url(#d5a8c8673f)"><path style=" stroke:none;fill-rule:nonzero;fill:#1a1a1a;fill-opacity:1;" d="M 223.945312 312.699219 C 226.34375 304.660156 228.523438 295.820312 230.433594 286.3125 C 232.332031 276.789062 233.957031 266.601562 235.277344 255.953125 C 237.921875 234.65625 239.328125 211.511719 239.402344 188.261719 C 239.457031 165.011719 238.171875 141.699219 235.625 120.082031 C 233.085938 98.449219 229.25 78.625 224.480469 62 C 222.085938 53.699219 219.460938 46.1875 216.644531 39.625 C 213.824219 33.066406 210.816406 27.496094 207.671875 22.976562 C 201.394531 13.933594 194.585938 9.226562 187.769531 9.144531 C 180.953125 9.0625 174.128906 13.710938 167.828125 22.664062 C 161.515625 31.59375 155.738281 44.90625 150.90625 61.480469 C 146.089844 78.085938 142.21875 97.96875 139.621094 119.667969 C 137.019531 141.359375 135.667969 164.8125 135.691406 188.261719 C 135.714844 211.710938 137.085938 235.125 139.710938 256.730469 C 141.027344 267.535156 142.644531 277.894531 144.550781 287.589844 C 146.460938 297.277344 148.644531 306.308594 151.058594 314.535156 C 155.890625 330.957031 161.65625 344.148438 167.941406 352.882812 C 174.230469 361.640625 181.011719 366.070312 187.769531 365.871094 C 194.527344 365.621094 201.257812 360.777344 207.449219 351.679688 C 210.542969 347.136719 213.507812 341.546875 216.273438 335.011719 C 219.039062 328.449219 221.609375 320.953125 223.945312 312.699219 C 221.539062 320.714844 218.914062 327.925781 216.113281 334.171875 C 213.3125 340.453125 210.34375 345.785156 207.25 350.046875 C 201.066406 358.597656 194.40625 362.859375 187.769531 362.609375 C 181.132812 362.410156 174.519531 357.730469 168.429688 348.847656 C 162.335938 339.996094 156.765625 327.011719 152.125 310.863281 C 147.492188 294.699219 143.777344 275.464844 141.28125 254.503906 C 138.78125 233.546875 137.503906 210.890625 137.523438 188.261719 C 137.542969 165.636719 138.84375 143.03125 141.367188 122.15625 C 143.886719 101.265625 147.628906 82.164062 152.277344 66.179688 C 156.921875 50.183594 162.472656 37.324219 168.546875 28.667969 C 174.617188 19.972656 181.191406 15.515625 187.769531 15.429688 C 194.347656 15.355469 200.933594 19.75 207.027344 28.355469 C 213.121094 36.945312 218.714844 49.707031 223.414062 65.660156 C 228.109375 81.625 231.882812 100.785156 234.457031 121.742188 C 237.042969 142.691406 238.398438 165.4375 238.460938 188.261719 C 238.53125 211.089844 237.292969 234.011719 234.808594 255.28125 C 233.5625 265.917969 232.015625 276.140625 230.1875 285.757812 C 228.371094 295.394531 226.273438 304.425781 223.945312 312.699219 "/></g><path style=" stroke:none;fill-rule:nonzero;fill:#1a1a1a;fill-opacity:1;" d="M 234.128906 307.007812 C 234.128906 311.863281 230.195312 315.796875 225.339844 315.796875 C 220.488281 315.796875 216.550781 311.863281 216.550781 307.007812 C 216.550781 302.15625 220.488281 298.222656 225.339844 298.222656 C 230.195312 298.222656 234.128906 302.15625 234.128906 307.007812 "/><path style=" stroke:none;fill-rule:nonzero;fill:#1a1a1a;fill-opacity:1;" d="M 206.882812 187.511719 C 206.882812 198.1875 198.226562 206.84375 187.546875 206.84375 C 176.871094 206.84375 168.210938 198.1875 168.210938 187.511719 C 168.210938 176.835938 176.871094 168.179688 187.546875 168.179688 C 198.226562 168.179688 206.882812 176.835938 206.882812 187.511719 "/><g clip-rule="nonzero" clip-path="url(#cea35be71b)"><g clip-rule="nonzero" clip-path="url(#3724ac8f67)"><path style=" stroke:none;fill-rule:nonzero;fill:#f2f0ea;fill-opacity:1;" d="M 149.929688 157.675781 L 225.070312 157.675781 L 225.070312 232.8125 L 149.929688 232.8125 Z M 149.929688 157.675781 "/></g></g></g></svg>