<svg xmlns="http://www.w3.org/2000/svg" xmlns:xlink="http://www.w3.org/1999/xlink" width="500" zoomAndPan="magnify" viewBox="0 0 375 374.999991" height="500" preserveAspectRatio="xMidYMid meet" version="1.2"><g id="0827d25f0b"><rect x="0" width="375" y="0" height="374.999991" style="fill:#ffffff;fill-opacity:1;stroke:none;"/><rect x="0" width="375" y="0" height="374.999991" style="fill:#dddbd5;fill-opacity:1;stroke:none;"/><path style=" stroke:none;fill-rule:nonzero;fill:#f2f0ea;fill-opacity:1;" d="M 187.488281 243.046875 C 185.910156 243.046875 184.335938 243.125 182.765625 243.277344 C 181.191406 243.433594 179.632812 243.664062 178.085938 243.972656 C 176.539062 244.277344 175.007812 244.660156 173.5 245.117188 C 171.988281 245.578125 170.503906 246.109375 169.046875 246.710938 C 167.585938 247.316406 166.164062 247.988281 164.769531 248.734375 C 163.378906 249.476562 162.027344 250.285156 160.714844 251.164062 C 159.402344 252.039062 158.136719 252.980469 156.914062 253.980469 C 155.695312 254.980469 154.527344 256.039062 153.410156 257.15625 C 152.292969 258.269531 151.234375 259.4375 150.234375 260.660156 C 149.234375 261.878906 148.292969 263.144531 147.417969 264.457031 C 146.539062 265.769531 145.730469 267.121094 144.984375 268.511719 C 144.242188 269.902344 143.566406 271.328125 142.960938 272.785156 C 142.359375 274.246094 141.828125 275.730469 141.367188 277.238281 C 140.910156 278.75 140.527344 280.277344 140.21875 281.828125 C 139.910156 283.375 139.679688 284.933594 139.523438 286.503906 C 139.371094 288.074219 139.292969 289.648438 139.292969 291.226562 C 139.292969 292.804688 139.371094 294.378906 139.523438 295.949219 C 139.679688 297.523438 139.910156 299.082031 140.21875 300.628906 C 140.523438 302.175781 140.90625 303.707031 141.367188 305.214844 C 141.824219 306.726562 142.355469 308.210938 142.957031 309.667969 C 143.5625 311.128906 144.234375 312.550781 144.980469 313.945312 C 145.722656 315.335938 146.535156 316.6875 147.410156 318 C 148.289062 319.3125 149.226562 320.578125 150.226562 321.800781 C 151.230469 323.019531 152.289062 324.1875 153.402344 325.304688 C 154.519531 326.417969 155.6875 327.476562 156.90625 328.480469 C 158.125 329.480469 159.394531 330.417969 160.703125 331.296875 C 162.015625 332.171875 163.367188 332.984375 164.761719 333.726562 C 166.152344 334.472656 167.578125 335.144531 169.035156 335.75 C 170.492188 336.355469 171.976562 336.886719 173.488281 337.34375 C 175 337.800781 176.527344 338.183594 178.074219 338.492188 C 179.625 338.800781 181.183594 339.03125 182.753906 339.1875 C 184.324219 339.34375 185.898438 339.417969 187.476562 339.417969 C 189.054688 339.417969 190.628906 339.34375 192.199219 339.1875 C 193.769531 339.035156 195.328125 338.800781 196.878906 338.496094 C 198.425781 338.1875 199.953125 337.804688 201.464844 337.34375 C 202.976562 336.886719 204.460938 336.355469 205.917969 335.753906 C 207.375 335.148438 208.800781 334.476562 210.191406 333.730469 C 211.585938 332.988281 212.9375 332.175781 214.25 331.300781 C 215.5625 330.421875 216.828125 329.484375 218.046875 328.484375 C 219.265625 327.480469 220.433594 326.421875 221.550781 325.308594 C 222.667969 324.191406 223.726562 323.023438 224.726562 321.804688 C 225.726562 320.582031 226.667969 319.316406 227.542969 318.003906 C 228.421875 316.691406 229.230469 315.339844 229.976562 313.949219 C 230.71875 312.558594 231.394531 311.132812 231.996094 309.675781 C 232.601562 308.214844 233.132812 306.730469 233.589844 305.222656 C 234.046875 303.710938 234.433594 302.183594 234.738281 300.632812 C 235.046875 299.085938 235.277344 297.527344 235.433594 295.957031 C 235.589844 294.386719 235.664062 292.8125 235.664062 291.234375 C 235.664062 289.65625 235.585938 288.082031 235.429688 286.511719 C 235.273438 284.941406 235.039062 283.382812 234.730469 281.835938 C 234.421875 280.289062 234.039062 278.761719 233.582031 277.253906 C 233.121094 275.742188 232.589844 274.257812 231.984375 272.800781 C 231.382812 271.34375 230.707031 269.921875 229.960938 268.53125 C 229.21875 267.140625 228.40625 265.789062 227.53125 264.476562 C 226.65625 263.164062 225.714844 261.898438 224.714844 260.679688 C 223.714844 259.460938 222.65625 258.292969 221.539062 257.175781 C 220.425781 256.0625 219.257812 255.003906 218.039062 254.003906 C 216.820312 253 215.554688 252.0625 214.242188 251.183594 C 212.929688 250.308594 211.582031 249.496094 210.1875 248.753906 C 208.796875 248.007812 207.375 247.335938 205.917969 246.730469 C 204.460938 246.125 202.976562 245.59375 201.46875 245.132812 C 199.957031 244.675781 198.429688 244.292969 196.882812 243.980469 C 195.335938 243.671875 193.777344 243.441406 192.207031 243.285156 C 190.636719 243.128906 189.066406 243.046875 187.488281 243.046875 Z M 187.488281 336.113281 C 186.015625 336.113281 184.550781 336.042969 183.085938 335.898438 C 181.625 335.753906 180.171875 335.539062 178.730469 335.25 C 177.289062 334.964844 175.863281 334.609375 174.457031 334.183594 C 173.046875 333.753906 171.664062 333.261719 170.308594 332.699219 C 168.949219 332.136719 167.621094 331.507812 166.324219 330.816406 C 165.027344 330.121094 163.769531 329.367188 162.546875 328.550781 C 161.324219 327.734375 160.144531 326.859375 159.007812 325.925781 C 157.871094 324.996094 156.78125 324.007812 155.742188 322.96875 C 154.703125 321.929688 153.714844 320.839844 152.785156 319.707031 C 151.851562 318.570312 150.976562 317.390625 150.160156 316.167969 C 149.34375 314.945312 148.585938 313.683594 147.894531 312.390625 C 147.199219 311.09375 146.574219 309.765625 146.007812 308.40625 C 145.445312 307.046875 144.953125 305.664062 144.523438 304.257812 C 144.097656 302.851562 143.742188 301.425781 143.453125 299.984375 C 143.167969 298.542969 142.953125 297.089844 142.808594 295.628906 C 142.664062 294.164062 142.589844 292.699219 142.589844 291.226562 C 142.589844 289.757812 142.664062 288.289062 142.808594 286.828125 C 142.949219 285.363281 143.167969 283.910156 143.453125 282.46875 C 143.738281 281.027344 144.097656 279.601562 144.523438 278.195312 C 144.949219 276.789062 145.445312 275.40625 146.007812 274.046875 C 146.570312 272.691406 147.199219 271.363281 147.890625 270.066406 C 148.585938 268.769531 149.339844 267.507812 150.15625 266.285156 C 150.972656 265.066406 151.847656 263.886719 152.78125 262.75 C 153.710938 261.613281 154.699219 260.523438 155.738281 259.484375 C 156.777344 258.445312 157.867188 257.457031 159.003906 256.527344 C 160.140625 255.59375 161.320312 254.71875 162.542969 253.902344 C 163.765625 253.085938 165.023438 252.328125 166.320312 251.636719 C 167.617188 250.945312 168.945312 250.316406 170.300781 249.753906 C 171.660156 249.191406 173.042969 248.695312 174.449219 248.269531 C 175.855469 247.84375 177.28125 247.484375 178.722656 247.199219 C 180.164062 246.914062 181.617188 246.695312 183.082031 246.554688 C 184.542969 246.410156 186.011719 246.335938 187.480469 246.335938 C 188.953125 246.335938 190.417969 246.410156 191.882812 246.554688 C 193.34375 246.699219 194.796875 246.914062 196.238281 247.199219 C 197.679688 247.488281 199.105469 247.84375 200.511719 248.269531 C 201.917969 248.699219 203.300781 249.191406 204.660156 249.753906 C 206.019531 250.316406 207.347656 250.945312 208.644531 251.640625 C 209.941406 252.332031 211.199219 253.085938 212.421875 253.90625 C 213.644531 254.722656 214.824219 255.597656 215.960938 256.527344 C 217.097656 257.460938 218.183594 258.449219 219.222656 259.488281 C 220.261719 260.527344 221.25 261.617188 222.179688 262.753906 C 223.113281 263.890625 223.988281 265.070312 224.804688 266.292969 C 225.621094 267.515625 226.375 268.773438 227.070312 270.070312 C 227.761719 271.367188 228.390625 272.695312 228.953125 274.054688 C 229.515625 275.410156 230.007812 276.792969 230.4375 278.203125 C 230.863281 279.609375 231.21875 281.03125 231.507812 282.476562 C 231.792969 283.917969 232.007812 285.371094 232.152344 286.832031 C 232.296875 288.296875 232.367188 289.761719 232.367188 291.234375 C 232.363281 292.703125 232.289062 294.167969 232.144531 295.628906 C 232 297.089844 231.78125 298.542969 231.492188 299.984375 C 231.207031 301.425781 230.847656 302.847656 230.417969 304.253906 C 229.992188 305.65625 229.496094 307.039062 228.933594 308.394531 C 228.371094 309.753906 227.742188 311.078125 227.046875 312.375 C 226.355469 313.667969 225.597656 314.929688 224.78125 316.148438 C 223.964844 317.371094 223.089844 318.546875 222.160156 319.683594 C 221.226562 320.820312 220.242188 321.90625 219.203125 322.945312 C 218.164062 323.984375 217.074219 324.96875 215.941406 325.902344 C 214.804688 326.832031 213.625 327.707031 212.40625 328.523438 C 211.183594 329.339844 209.925781 330.097656 208.628906 330.789062 C 207.335938 331.480469 206.007812 332.109375 204.652344 332.671875 C 203.292969 333.238281 201.914062 333.730469 200.507812 334.160156 C 199.101562 334.585938 197.679688 334.945312 196.238281 335.234375 C 194.796875 335.519531 193.347656 335.738281 191.882812 335.882812 C 190.421875 336.027344 188.957031 336.101562 187.488281 336.105469 Z M 187.488281 336.113281 "/><path style=" stroke:none;fill-rule:nonzero;fill:#f2f0ea;fill-opacity:1;" d="M 187.488281 216.648438 C 185.417969 216.648438 183.351562 216.75 181.289062 216.953125 C 179.230469 217.15625 177.183594 217.457031 175.152344 217.863281 C 173.121094 218.265625 171.117188 218.765625 169.132812 219.367188 C 167.152344 219.96875 165.203125 220.664062 163.292969 221.457031 C 161.378906 222.25 159.507812 223.132812 157.683594 224.109375 C 155.855469 225.085938 154.082031 226.148438 152.359375 227.300781 C 150.640625 228.449219 148.976562 229.679688 147.375 230.996094 C 145.777344 232.308594 144.242188 233.695312 142.777344 235.160156 C 141.316406 236.625 139.925781 238.15625 138.613281 239.757812 C 137.296875 241.359375 136.066406 243.019531 134.914062 244.742188 C 133.765625 246.460938 132.703125 248.238281 131.726562 250.0625 C 130.75 251.890625 129.863281 253.757812 129.070312 255.671875 C 128.28125 257.585938 127.582031 259.53125 126.980469 261.511719 C 126.378906 263.496094 125.878906 265.5 125.472656 267.53125 C 125.070312 269.5625 124.765625 271.609375 124.5625 273.667969 C 124.359375 275.730469 124.257812 277.796875 124.257812 279.867188 C 124.257812 281.9375 124.359375 284.003906 124.5625 286.0625 C 124.765625 288.125 125.070312 290.167969 125.472656 292.199219 C 125.875 294.230469 126.378906 296.238281 126.980469 298.21875 C 127.582031 300.199219 128.277344 302.148438 129.070312 304.0625 C 129.863281 305.972656 130.746094 307.84375 131.722656 309.671875 C 132.699219 311.496094 133.761719 313.269531 134.914062 314.992188 C 136.0625 316.714844 137.292969 318.375 138.609375 319.976562 C 139.921875 321.574219 141.3125 323.109375 142.773438 324.574219 C 144.238281 326.035156 145.773438 327.425781 147.371094 328.738281 C 148.972656 330.054688 150.632812 331.285156 152.355469 332.433594 C 154.078125 333.585938 155.851562 334.648438 157.679688 335.625 C 159.503906 336.601562 161.375 337.484375 163.285156 338.277344 C 165.199219 339.070312 167.148438 339.765625 169.128906 340.367188 C 171.109375 340.96875 173.117188 341.472656 175.148438 341.875 C 177.179688 342.277344 179.222656 342.582031 181.285156 342.785156 C 183.34375 342.988281 185.410156 343.089844 187.480469 343.089844 C 189.550781 343.089844 191.617188 342.988281 193.679688 342.785156 C 195.738281 342.582031 197.785156 342.277344 199.816406 341.875 C 201.847656 341.46875 203.851562 340.96875 205.835938 340.367188 C 207.816406 339.765625 209.761719 339.066406 211.675781 338.277344 C 213.589844 337.484375 215.457031 336.597656 217.285156 335.621094 C 219.109375 334.644531 220.886719 333.582031 222.605469 332.433594 C 224.328125 331.28125 225.988281 330.050781 227.589844 328.734375 C 229.191406 327.421875 230.722656 326.03125 232.1875 324.570312 C 233.652344 323.105469 235.039062 321.570312 236.351562 319.972656 C 237.667969 318.371094 238.898438 316.710938 240.046875 314.988281 C 241.199219 313.265625 242.261719 311.492188 243.238281 309.664062 C 244.214844 307.839844 245.097656 305.96875 245.890625 304.054688 C 246.683594 302.144531 247.378906 300.195312 247.980469 298.214844 C 248.582031 296.230469 249.082031 294.226562 249.488281 292.195312 C 249.890625 290.164062 250.195312 288.117188 250.394531 286.058594 C 250.597656 283.996094 250.699219 281.929688 250.699219 279.859375 C 250.699219 277.789062 250.59375 275.726562 250.390625 273.667969 C 250.183594 271.609375 249.878906 269.5625 249.472656 267.535156 C 249.066406 265.503906 248.5625 263.5 247.960938 261.519531 C 247.359375 259.539062 246.660156 257.59375 245.867188 255.683594 C 245.074219 253.769531 244.191406 251.902344 243.214844 250.078125 C 242.238281 248.253906 241.175781 246.480469 240.023438 244.757812 C 238.875 243.039062 237.640625 241.378906 236.328125 239.777344 C 235.015625 238.179688 233.628906 236.648438 232.164062 235.183594 C 230.699219 233.722656 229.167969 232.332031 227.570312 231.019531 C 225.96875 229.707031 224.308594 228.472656 222.589844 227.324219 C 220.867188 226.171875 219.09375 225.109375 217.269531 224.132812 C 215.445312 223.15625 213.578125 222.273438 211.667969 221.480469 C 209.753906 220.6875 207.808594 219.988281 205.828125 219.386719 C 203.847656 218.785156 201.84375 218.28125 199.8125 217.875 C 197.785156 217.46875 195.742188 217.164062 193.679688 216.960938 C 191.621094 216.753906 189.558594 216.652344 187.488281 216.648438 Z M 187.488281 339.78125 C 185.523438 339.78125 183.566406 339.6875 181.613281 339.496094 C 179.660156 339.300781 177.722656 339.015625 175.796875 338.632812 C 173.871094 338.25 171.96875 337.773438 170.09375 337.203125 C 168.214844 336.636719 166.367188 335.976562 164.554688 335.222656 C 162.742188 334.472656 160.96875 333.636719 159.238281 332.710938 C 157.507812 331.785156 155.824219 330.777344 154.195312 329.6875 C 152.5625 328.597656 150.988281 327.429688 149.46875 326.183594 C 147.953125 324.941406 146.5 323.625 145.113281 322.238281 C 143.726562 320.847656 142.410156 319.398438 141.164062 317.878906 C 139.917969 316.363281 138.75 314.789062 137.660156 313.15625 C 136.570312 311.523438 135.5625 309.84375 134.636719 308.113281 C 133.710938 306.382812 132.871094 304.609375 132.121094 302.796875 C 131.371094 300.984375 130.707031 299.140625 130.140625 297.261719 C 129.570312 295.382812 129.09375 293.480469 128.710938 291.554688 C 128.328125 289.632812 128.039062 287.691406 127.847656 285.738281 C 127.652344 283.785156 127.558594 281.828125 127.558594 279.867188 C 127.558594 277.902344 127.652344 275.945312 127.84375 273.992188 C 128.039062 272.039062 128.324219 270.101562 128.707031 268.175781 C 129.089844 266.25 129.566406 264.347656 130.136719 262.472656 C 130.707031 260.59375 131.367188 258.746094 132.117188 256.933594 C 132.867188 255.121094 133.707031 253.347656 134.628906 251.617188 C 135.554688 249.886719 136.5625 248.207031 137.652344 246.574219 C 138.742188 244.941406 139.910156 243.367188 141.15625 241.851562 C 142.402344 240.332031 143.71875 238.878906 145.105469 237.492188 C 146.492188 236.105469 147.945312 234.789062 149.460938 233.542969 C 150.980469 232.296875 152.554688 231.128906 154.183594 230.039062 C 155.816406 228.949219 157.5 227.941406 159.230469 227.015625 C 160.960938 226.089844 162.730469 225.253906 164.542969 224.5 C 166.359375 223.75 168.203125 223.089844 170.082031 222.519531 C 171.960938 221.949219 173.859375 221.472656 175.785156 221.089844 C 177.710938 220.707031 179.648438 220.417969 181.601562 220.226562 C 183.554688 220.035156 185.515625 219.9375 187.476562 219.9375 C 189.4375 219.9375 191.398438 220.035156 193.351562 220.226562 C 195.304688 220.417969 197.242188 220.707031 199.167969 221.089844 C 201.089844 221.472656 202.992188 221.949219 204.871094 222.519531 C 206.75 223.085938 208.59375 223.75 210.410156 224.5 C 212.222656 225.25 213.992188 226.089844 215.722656 227.011719 C 217.457031 227.9375 219.136719 228.945312 220.769531 230.035156 C 222.398438 231.125 223.976562 232.292969 225.492188 233.539062 C 227.007812 234.785156 228.460938 236.101562 229.847656 237.488281 C 231.238281 238.875 232.554688 240.328125 233.796875 241.84375 C 235.042969 243.363281 236.210938 244.9375 237.300781 246.570312 C 238.390625 248.199219 239.398438 249.882812 240.324219 251.613281 C 241.25 253.34375 242.089844 255.117188 242.839844 256.929688 C 243.589844 258.742188 244.25 260.585938 244.820312 262.464844 C 245.390625 264.34375 245.867188 266.246094 246.25 268.171875 C 246.632812 270.09375 246.921875 272.035156 247.113281 273.988281 C 247.304688 275.941406 247.402344 277.898438 247.402344 279.859375 C 247.398438 281.824219 247.300781 283.777344 247.105469 285.730469 C 246.914062 287.683594 246.625 289.621094 246.238281 291.546875 C 245.855469 293.46875 245.378906 295.371094 244.804688 297.246094 C 244.234375 299.125 243.574219 300.96875 242.824219 302.78125 C 242.070312 304.589844 241.234375 306.363281 240.308594 308.09375 C 239.382812 309.820312 238.375 311.503906 237.285156 313.132812 C 236.195312 314.765625 235.027344 316.335938 233.78125 317.855469 C 232.535156 319.371094 231.222656 320.824219 229.832031 322.210938 C 228.445312 323.597656 226.996094 324.914062 225.480469 326.15625 C 223.960938 327.402344 222.390625 328.570312 220.757812 329.660156 C 219.128906 330.75 217.449219 331.757812 215.71875 332.683594 C 213.988281 333.609375 212.21875 334.449219 210.40625 335.203125 C 208.59375 335.953125 206.75 336.613281 204.871094 337.1875 C 202.996094 337.757812 201.09375 338.234375 199.171875 338.617188 C 197.25 339.003906 195.308594 339.292969 193.359375 339.488281 C 191.40625 339.683594 189.449219 339.78125 187.488281 339.78125 Z M 187.488281 339.78125 "/><path style=" stroke:none;fill-rule:nonzero;fill:#f2f0ea;fill-opacity:1;" d="M 187.488281 190.242188 C 186.207031 190.242188 184.925781 190.273438 183.648438 190.335938 C 182.367188 190.398438 181.089844 190.492188 179.816406 190.617188 C 178.542969 190.742188 177.269531 190.898438 176.003906 191.085938 C 174.738281 191.273438 173.476562 191.492188 172.21875 191.742188 C 170.964844 191.992188 169.714844 192.273438 168.472656 192.585938 C 167.230469 192.894531 165.996094 193.238281 164.769531 193.609375 C 163.542969 193.980469 162.328125 194.382812 161.121094 194.8125 C 159.914062 195.246094 158.722656 195.707031 157.539062 196.195312 C 156.355469 196.6875 155.183594 197.203125 154.027344 197.753906 C 152.867188 198.300781 151.722656 198.875 150.59375 199.480469 C 149.464844 200.082031 148.351562 200.714844 147.253906 201.371094 C 146.152344 202.03125 145.070312 202.714844 144.007812 203.425781 C 142.941406 204.136719 141.894531 204.875 140.867188 205.636719 C 139.835938 206.402344 138.828125 207.1875 137.839844 208 C 136.847656 208.8125 135.878906 209.648438 134.929688 210.511719 C 133.980469 211.371094 133.054688 212.253906 132.148438 213.160156 C 131.242188 214.066406 130.359375 214.992188 129.5 215.941406 C 128.636719 216.890625 127.800781 217.859375 126.988281 218.847656 C 126.175781 219.839844 125.390625 220.847656 124.625 221.878906 C 123.863281 222.90625 123.125 223.953125 122.414062 225.019531 C 121.703125 226.082031 121.015625 227.164062 120.359375 228.261719 C 119.699219 229.363281 119.070312 230.476562 118.464844 231.605469 C 117.863281 232.734375 117.285156 233.878906 116.738281 235.035156 C 116.191406 236.195312 115.671875 237.363281 115.183594 238.546875 C 114.691406 239.730469 114.230469 240.925781 113.800781 242.132812 C 113.367188 243.335938 112.964844 244.554688 112.59375 245.777344 C 112.222656 247.003906 111.882812 248.238281 111.570312 249.480469 C 111.257812 250.722656 110.976562 251.972656 110.726562 253.230469 C 110.476562 254.484375 110.257812 255.746094 110.070312 257.011719 C 109.882812 258.28125 109.726562 259.550781 109.601562 260.824219 C 109.476562 262.101562 109.382812 263.378906 109.320312 264.65625 C 109.253906 265.933594 109.222656 267.214844 109.222656 268.496094 C 109.222656 269.777344 109.253906 271.058594 109.320312 272.335938 C 109.382812 273.617188 109.476562 274.890625 109.601562 276.167969 C 109.726562 277.441406 109.882812 278.710938 110.070312 279.980469 C 110.257812 281.246094 110.476562 282.507812 110.726562 283.765625 C 110.976562 285.019531 111.257812 286.269531 111.570312 287.511719 C 111.882812 288.753906 112.222656 289.988281 112.59375 291.214844 C 112.964844 292.441406 113.367188 293.65625 113.800781 294.859375 C 114.230469 296.066406 114.691406 297.261719 115.183594 298.445312 C 115.671875 299.628906 116.191406 300.800781 116.738281 301.957031 C 117.285156 303.113281 117.863281 304.257812 118.464844 305.386719 C 119.070312 306.515625 119.699219 307.632812 120.359375 308.730469 C 121.015625 309.828125 121.703125 310.910156 122.414062 311.976562 C 123.125 313.039062 123.863281 314.085938 124.625 315.117188 C 125.390625 316.144531 126.175781 317.152344 126.988281 318.144531 C 127.800781 319.132812 128.636719 320.101562 129.5 321.050781 C 130.359375 322 131.242188 322.929688 132.148438 323.832031 C 133.054688 324.738281 133.980469 325.621094 134.929688 326.480469 C 135.878906 327.34375 136.847656 328.179688 137.839844 328.992188 C 138.828125 329.804688 139.835938 330.589844 140.867188 331.355469 C 141.894531 332.117188 142.941406 332.855469 144.007812 333.566406 C 145.070312 334.277344 146.152344 334.960938 147.253906 335.621094 C 148.351562 336.277344 149.464844 336.910156 150.59375 337.511719 C 151.722656 338.117188 152.867188 338.691406 154.027344 339.242188 C 155.183594 339.789062 156.355469 340.308594 157.539062 340.796875 C 158.722656 341.285156 159.914062 341.746094 161.121094 342.179688 C 162.328125 342.609375 163.542969 343.011719 164.769531 343.382812 C 165.996094 343.753906 167.230469 344.097656 168.472656 344.40625 C 169.714844 344.71875 170.964844 345 172.21875 345.25 C 173.476562 345.5 174.738281 345.71875 176.003906 345.90625 C 177.269531 346.09375 178.542969 346.25 179.816406 346.375 C 181.089844 346.5 182.367188 346.59375 183.648438 346.65625 C 184.925781 346.71875 186.207031 346.75 187.488281 346.75 C 188.769531 346.75 190.046875 346.71875 191.328125 346.65625 C 192.605469 346.59375 193.882812 346.5 195.15625 346.375 C 196.433594 346.246094 197.703125 346.089844 198.96875 345.902344 C 200.238281 345.714844 201.5 345.496094 202.753906 345.246094 C 204.011719 344.996094 205.261719 344.714844 206.503906 344.402344 C 207.746094 344.09375 208.980469 343.75 210.203125 343.378906 C 211.429688 343.007812 212.644531 342.605469 213.851562 342.171875 C 215.058594 341.742188 216.253906 341.28125 217.433594 340.789062 C 218.617188 340.300781 219.789062 339.78125 220.945312 339.234375 C 222.105469 338.6875 223.25 338.109375 224.378906 337.503906 C 225.507812 336.902344 226.621094 336.269531 227.71875 335.613281 C 228.816406 334.953125 229.898438 334.269531 230.964844 333.554688 C 232.03125 332.84375 233.074219 332.105469 234.105469 331.34375 C 235.132812 330.582031 236.144531 329.792969 237.132812 328.980469 C 238.121094 328.167969 239.09375 327.332031 240.039062 326.472656 C 240.988281 325.609375 241.917969 324.726562 242.824219 323.820312 C 243.726562 322.917969 244.609375 321.988281 245.46875 321.039062 C 246.332031 320.089844 247.167969 319.121094 247.980469 318.128906 C 248.792969 317.140625 249.578125 316.132812 250.339844 315.101562 C 251.105469 314.074219 251.839844 313.027344 252.554688 311.960938 C 253.265625 310.894531 253.949219 309.8125 254.609375 308.714844 C 255.265625 307.617188 255.898438 306.503906 256.5 305.375 C 257.105469 304.242188 257.679688 303.101562 258.226562 301.941406 C 258.773438 300.785156 259.292969 299.613281 259.78125 298.429688 C 260.273438 297.246094 260.734375 296.050781 261.164062 294.847656 C 261.59375 293.640625 261.996094 292.425781 262.367188 291.199219 C 262.738281 289.972656 263.082031 288.738281 263.390625 287.496094 C 263.703125 286.253906 263.984375 285.003906 264.234375 283.746094 C 264.484375 282.492188 264.703125 281.230469 264.890625 279.964844 C 265.078125 278.695312 265.234375 277.425781 265.359375 276.152344 C 265.484375 274.875 265.578125 273.597656 265.640625 272.320312 C 265.703125 271.039062 265.734375 269.761719 265.734375 268.480469 C 265.730469 267.199219 265.699219 265.921875 265.632812 264.640625 C 265.570312 263.363281 265.472656 262.085938 265.347656 260.8125 C 265.21875 259.539062 265.0625 258.269531 264.871094 257.003906 C 264.683594 255.738281 264.464844 254.476562 264.210938 253.222656 C 263.960938 251.96875 263.679688 250.71875 263.367188 249.476562 C 263.054688 248.238281 262.714844 247.003906 262.339844 245.777344 C 261.96875 244.554688 261.566406 243.339844 261.132812 242.132812 C 260.699219 240.929688 260.238281 239.734375 259.75 238.554688 C 259.257812 237.371094 258.738281 236.203125 258.191406 235.046875 C 257.644531 233.886719 257.066406 232.746094 256.460938 231.617188 C 255.859375 230.488281 255.226562 229.375 254.570312 228.277344 C 253.910156 227.179688 253.226562 226.101562 252.515625 225.035156 C 251.800781 223.972656 251.066406 222.925781 250.300781 221.898438 C 249.539062 220.871094 248.75 219.859375 247.941406 218.871094 C 247.128906 217.882812 246.292969 216.914062 245.429688 215.964844 C 244.570312 215.015625 243.6875 214.089844 242.785156 213.183594 C 241.878906 212.28125 240.953125 211.398438 240.003906 210.539062 C 239.054688 209.679688 238.085938 208.84375 237.097656 208.03125 C 236.109375 207.21875 235.097656 206.429688 234.070312 205.667969 C 233.042969 204.90625 231.996094 204.167969 230.933594 203.457031 C 229.867188 202.746094 228.789062 202.0625 227.691406 201.402344 C 226.59375 200.742188 225.480469 200.113281 224.351562 199.507812 C 223.222656 198.90625 222.078125 198.328125 220.921875 197.78125 C 219.765625 197.234375 218.597656 196.714844 217.414062 196.222656 C 216.230469 195.734375 215.039062 195.269531 213.832031 194.839844 C 212.628906 194.40625 211.414062 194.003906 210.1875 193.632812 C 208.964844 193.261719 207.730469 192.917969 206.488281 192.605469 C 205.25 192.292969 204 192.011719 202.746094 191.761719 C 201.488281 191.511719 200.230469 191.289062 198.960938 191.101562 C 197.695312 190.910156 196.425781 190.753906 195.152344 190.628906 C 193.878906 190.5 192.601562 190.40625 191.324219 190.339844 C 190.046875 190.277344 188.765625 190.242188 187.488281 190.242188 Z M 187.488281 343.445312 C 186.261719 343.445312 185.035156 343.414062 183.808594 343.355469 C 182.585938 343.292969 181.359375 343.203125 180.140625 343.085938 C 178.917969 342.964844 177.703125 342.8125 176.488281 342.632812 C 175.277344 342.453125 174.066406 342.246094 172.863281 342.003906 C 171.660156 341.765625 170.464844 341.496094 169.273438 341.199219 C 168.085938 340.902344 166.902344 340.574219 165.726562 340.21875 C 164.554688 339.863281 163.390625 339.476562 162.234375 339.066406 C 161.078125 338.652344 159.9375 338.210938 158.800781 337.742188 C 157.667969 337.273438 156.546875 336.777344 155.4375 336.25 C 154.328125 335.726562 153.234375 335.175781 152.152344 334.597656 C 151.070312 334.019531 150.003906 333.414062 148.949219 332.785156 C 147.898438 332.152344 146.863281 331.496094 145.84375 330.816406 C 144.824219 330.136719 143.820312 329.429688 142.835938 328.699219 C 141.847656 327.96875 140.882812 327.214844 139.933594 326.433594 C 138.984375 325.65625 138.058594 324.855469 137.148438 324.03125 C 136.238281 323.207031 135.351562 322.363281 134.484375 321.496094 C 133.617188 320.628906 132.769531 319.742188 131.945312 318.832031 C 131.121094 317.921875 130.320312 316.996094 129.542969 316.046875 C 128.765625 315.097656 128.007812 314.132812 127.277344 313.144531 C 126.546875 312.160156 125.839844 311.160156 125.160156 310.136719 C 124.476562 309.117188 123.820312 308.082031 123.191406 307.03125 C 122.558594 305.976562 121.957031 304.910156 121.378906 303.828125 C 120.800781 302.746094 120.246094 301.652344 119.722656 300.542969 C 119.199219 299.433594 118.703125 298.3125 118.230469 297.179688 C 117.761719 296.046875 117.320312 294.902344 116.90625 293.746094 C 116.492188 292.59375 116.109375 291.429688 115.753906 290.253906 C 115.398438 289.082031 115.070312 287.898438 114.769531 286.707031 C 114.472656 285.519531 114.203125 284.324219 113.964844 283.121094 C 113.726562 281.917969 113.515625 280.707031 113.335938 279.496094 C 113.15625 278.28125 113.003906 277.0625 112.882812 275.84375 C 112.765625 274.621094 112.675781 273.398438 112.613281 272.175781 C 112.554688 270.949219 112.523438 269.722656 112.523438 268.496094 C 112.523438 267.269531 112.554688 266.042969 112.613281 264.820312 C 112.671875 263.59375 112.761719 262.371094 112.882812 261.148438 C 113.003906 259.929688 113.152344 258.710938 113.332031 257.496094 C 113.511719 256.285156 113.722656 255.074219 113.960938 253.871094 C 114.199219 252.667969 114.46875 251.472656 114.765625 250.285156 C 115.066406 249.09375 115.390625 247.910156 115.75 246.738281 C 116.105469 245.5625 116.488281 244.398438 116.902344 243.242188 C 117.316406 242.089844 117.757812 240.945312 118.226562 239.8125 C 118.695312 238.679688 119.191406 237.558594 119.714844 236.449219 C 120.242188 235.339844 120.792969 234.242188 121.371094 233.160156 C 121.949219 232.078125 122.550781 231.011719 123.183594 229.960938 C 123.8125 228.90625 124.46875 227.871094 125.152344 226.851562 C 125.832031 225.832031 126.539062 224.828125 127.269531 223.84375 C 128 222.859375 128.753906 221.890625 129.53125 220.941406 C 130.308594 219.996094 131.109375 219.066406 131.933594 218.15625 C 132.757812 217.246094 133.605469 216.359375 134.472656 215.492188 C 135.339844 214.625 136.226562 213.777344 137.136719 212.953125 C 138.042969 212.132812 138.972656 211.328125 139.921875 210.550781 C 140.871094 209.773438 141.835938 209.019531 142.820312 208.289062 C 143.804688 207.558594 144.808594 206.851562 145.828125 206.167969 C 146.847656 205.488281 147.882812 204.832031 148.9375 204.199219 C 149.988281 203.570312 151.054688 202.964844 152.136719 202.386719 C 153.21875 201.808594 154.316406 201.257812 155.421875 200.730469 C 156.53125 200.207031 157.652344 199.710938 158.785156 199.242188 C 159.921875 198.769531 161.0625 198.328125 162.21875 197.917969 C 163.375 197.503906 164.539062 197.117188 165.710938 196.761719 C 166.886719 196.40625 168.066406 196.078125 169.257812 195.78125 C 170.449219 195.480469 171.644531 195.214844 172.847656 194.972656 C 174.050781 194.734375 175.257812 194.523438 176.472656 194.34375 C 177.6875 194.164062 178.902344 194.015625 180.125 193.894531 C 181.34375 193.773438 182.566406 193.683594 183.792969 193.621094 C 185.019531 193.5625 186.242188 193.53125 187.472656 193.53125 C 188.699219 193.53125 189.921875 193.5625 191.148438 193.621094 C 192.375 193.683594 193.597656 193.773438 194.816406 193.890625 C 196.039062 194.011719 197.253906 194.164062 198.46875 194.34375 C 199.683594 194.523438 200.890625 194.730469 202.09375 194.96875 C 203.296875 195.210938 204.492188 195.476562 205.683594 195.777344 C 206.875 196.074219 208.054688 196.402344 209.230469 196.757812 C 210.402344 197.113281 211.566406 197.496094 212.722656 197.910156 C 213.878906 198.324219 215.023438 198.765625 216.15625 199.234375 C 217.289062 199.703125 218.410156 200.199219 219.519531 200.726562 C 220.628906 201.25 221.722656 201.800781 222.804688 202.378906 C 223.886719 202.957031 224.953125 203.5625 226.007812 204.191406 C 227.058594 204.824219 228.09375 205.476562 229.117188 206.160156 C 230.136719 206.839844 231.136719 207.546875 232.125 208.277344 C 233.109375 209.007812 234.074219 209.761719 235.023438 210.542969 C 235.972656 211.320312 236.902344 212.121094 237.808594 212.945312 C 238.71875 213.765625 239.609375 214.613281 240.476562 215.480469 C 241.34375 216.347656 242.1875 217.234375 243.011719 218.144531 C 243.835938 219.054688 244.636719 219.980469 245.414062 220.929688 C 246.195312 221.878906 246.949219 222.84375 247.679688 223.832031 C 248.410156 224.816406 249.117188 225.816406 249.796875 226.835938 C 250.480469 227.859375 251.136719 228.894531 251.765625 229.945312 C 252.398438 230.996094 253.003906 232.066406 253.582031 233.148438 C 254.160156 234.230469 254.710938 235.324219 255.234375 236.433594 C 255.757812 237.542969 256.257812 238.664062 256.726562 239.796875 C 257.195312 240.929688 257.636719 242.074219 258.050781 243.226562 C 258.464844 244.382812 258.847656 245.546875 259.207031 246.722656 C 259.5625 247.894531 259.886719 249.078125 260.1875 250.265625 C 260.484375 251.457031 260.753906 252.652344 260.992188 253.855469 C 261.234375 255.058594 261.441406 256.269531 261.621094 257.480469 C 261.804688 258.695312 261.953125 259.914062 262.074219 261.132812 C 262.195312 262.355469 262.285156 263.578125 262.34375 264.800781 C 262.40625 266.027344 262.433594 267.253906 262.433594 268.480469 C 262.433594 269.707031 262.402344 270.933594 262.339844 272.15625 C 262.28125 273.382812 262.1875 274.605469 262.066406 275.824219 C 261.945312 277.042969 261.792969 278.261719 261.613281 279.472656 C 261.433594 280.6875 261.222656 281.894531 260.980469 283.097656 C 260.742188 284.300781 260.472656 285.496094 260.171875 286.683594 C 259.875 287.875 259.546875 289.054688 259.191406 290.230469 C 258.832031 291.402344 258.449219 292.566406 258.035156 293.71875 C 257.621094 294.875 257.179688 296.019531 256.707031 297.152344 C 256.238281 298.285156 255.742188 299.402344 255.214844 300.511719 C 254.691406 301.621094 254.140625 302.714844 253.5625 303.796875 C 252.984375 304.878906 252.378906 305.945312 251.746094 306.996094 C 251.117188 308.046875 250.460938 309.082031 249.78125 310.101562 C 249.097656 311.121094 248.390625 312.125 247.660156 313.109375 C 246.929688 314.09375 246.175781 315.0625 245.398438 316.007812 C 244.621094 316.957031 243.820312 317.886719 242.996094 318.792969 C 242.171875 319.703125 241.328125 320.589844 240.460938 321.457031 C 239.59375 322.324219 238.707031 323.171875 237.796875 323.996094 C 236.886719 324.816406 235.960938 325.617188 235.011719 326.398438 C 234.066406 327.175781 233.097656 327.929688 232.113281 328.660156 C 231.128906 329.390625 230.128906 330.097656 229.109375 330.78125 C 228.089844 331.460938 227.054688 332.117188 226 332.75 C 224.949219 333.378906 223.882812 333.984375 222.800781 334.5625 C 221.722656 335.140625 220.625 335.695312 219.519531 336.21875 C 218.410156 336.742188 217.289062 337.242188 216.15625 337.710938 C 215.023438 338.179688 213.882812 338.625 212.726562 339.039062 C 211.574219 339.453125 210.410156 339.835938 209.234375 340.195312 C 208.0625 340.550781 206.882812 340.878906 205.691406 341.179688 C 204.503906 341.476562 203.304688 341.746094 202.105469 341.988281 C 200.902344 342.226562 199.695312 342.4375 198.480469 342.621094 C 197.269531 342.800781 196.050781 342.953125 194.832031 343.074219 C 193.609375 343.195312 192.386719 343.289062 191.164062 343.347656 C 189.9375 343.410156 188.714844 343.441406 187.488281 343.445312 Z M 187.488281 343.445312 "/><path style=" stroke:none;fill-rule:nonzero;fill:#f2f0ea;fill-opacity:1;" d="M 187.488281 163.835938 C 185.960938 163.835938 184.433594 163.871094 182.910156 163.949219 C 181.386719 164.023438 179.863281 164.132812 178.34375 164.285156 C 176.824219 164.433594 175.308594 164.621094 173.800781 164.84375 C 172.289062 165.070312 170.785156 165.328125 169.289062 165.628906 C 167.789062 165.925781 166.300781 166.257812 164.820312 166.628906 C 163.339844 167 161.867188 167.410156 160.40625 167.851562 C 158.945312 168.296875 157.496094 168.773438 156.058594 169.289062 C 154.621094 169.800781 153.199219 170.351562 151.789062 170.9375 C 150.375 171.519531 148.980469 172.140625 147.601562 172.792969 C 146.222656 173.445312 144.859375 174.128906 143.511719 174.851562 C 142.164062 175.570312 140.835938 176.324219 139.527344 177.105469 C 138.21875 177.890625 136.929688 178.707031 135.660156 179.558594 C 134.390625 180.40625 133.140625 181.285156 131.914062 182.195312 C 130.6875 183.101562 129.484375 184.042969 128.304688 185.011719 C 127.125 185.980469 125.96875 186.976562 124.839844 188 C 123.707031 189.027344 122.601562 190.078125 121.523438 191.160156 C 120.441406 192.238281 119.390625 193.34375 118.363281 194.476562 C 117.339844 195.605469 116.34375 196.761719 115.375 197.941406 C 114.40625 199.121094 113.464844 200.324219 112.558594 201.550781 C 111.648438 202.777344 110.769531 204.027344 109.921875 205.296875 C 109.070312 206.566406 108.253906 207.855469 107.46875 209.164062 C 106.6875 210.472656 105.933594 211.800781 105.214844 213.148438 C 104.492188 214.496094 103.808594 215.859375 103.15625 217.238281 C 102.503906 218.617188 101.882812 220.011719 101.300781 221.421875 C 100.714844 222.835938 100.164062 224.257812 99.652344 225.695312 C 99.136719 227.132812 98.660156 228.582031 98.214844 230.042969 C 97.773438 231.503906 97.363281 232.976562 96.992188 234.457031 C 96.625 235.9375 96.289062 237.425781 95.992188 238.925781 C 95.691406 240.421875 95.433594 241.925781 95.207031 243.433594 C 94.984375 244.945312 94.796875 246.460938 94.648438 247.980469 C 94.496094 249.5 94.386719 251.023438 94.3125 252.546875 C 94.234375 254.070312 94.199219 255.597656 94.199219 257.125 C 94.199219 258.652344 94.234375 260.175781 94.3125 261.703125 C 94.386719 263.226562 94.496094 264.75 94.648438 266.269531 C 94.796875 267.789062 94.984375 269.300781 95.207031 270.8125 C 95.433594 272.324219 95.691406 273.828125 95.992188 275.324219 C 96.289062 276.820312 96.625 278.308594 96.992188 279.792969 C 97.363281 281.273438 97.773438 282.742188 98.214844 284.203125 C 98.660156 285.664062 99.136719 287.113281 99.652344 288.550781 C 100.164062 289.988281 100.714844 291.414062 101.300781 292.824219 C 101.882812 294.234375 102.503906 295.628906 103.15625 297.011719 C 103.808594 298.390625 104.492188 299.753906 105.214844 301.101562 C 105.933594 302.445312 106.6875 303.773438 107.46875 305.082031 C 108.253906 306.394531 109.070312 307.683594 109.921875 308.953125 C 110.769531 310.222656 111.648438 311.46875 112.558594 312.695312 C 113.464844 313.921875 114.40625 315.125 115.375 316.304688 C 116.34375 317.484375 117.339844 318.640625 118.363281 319.773438 C 119.390625 320.902344 120.441406 322.007812 121.523438 323.089844 C 122.601562 324.167969 123.707031 325.222656 124.839844 326.246094 C 125.96875 327.273438 127.125 328.269531 128.304688 329.238281 C 129.484375 330.207031 130.6875 331.144531 131.914062 332.054688 C 133.140625 332.964844 134.390625 333.84375 135.660156 334.691406 C 136.929688 335.539062 138.21875 336.355469 139.527344 337.140625 C 140.835938 337.925781 142.164062 338.675781 143.511719 339.398438 C 144.859375 340.117188 146.222656 340.804688 147.601562 341.457031 C 148.980469 342.109375 150.375 342.726562 151.789062 343.3125 C 153.199219 343.894531 154.621094 344.445312 156.058594 344.960938 C 157.496094 345.472656 158.945312 345.953125 160.40625 346.394531 C 161.867188 346.839844 163.339844 347.246094 164.820312 347.617188 C 166.300781 347.988281 167.789062 348.324219 169.289062 348.621094 C 170.785156 348.917969 172.289062 349.179688 173.800781 349.402344 C 175.308594 349.628906 176.824219 349.8125 178.34375 349.964844 C 179.863281 350.113281 181.386719 350.226562 182.910156 350.300781 C 184.433594 350.375 185.960938 350.414062 187.488281 350.414062 C 189.015625 350.414062 190.539062 350.375 192.066406 350.300781 C 193.589844 350.226562 195.113281 350.113281 196.632812 349.964844 C 198.152344 349.8125 199.664062 349.628906 201.175781 349.402344 C 202.6875 349.179688 204.191406 348.917969 205.6875 348.621094 C 207.183594 348.324219 208.671875 347.988281 210.15625 347.617188 C 211.636719 347.246094 213.105469 346.839844 214.566406 346.394531 C 216.027344 345.953125 217.476562 345.472656 218.914062 344.960938 C 220.351562 344.445312 221.777344 343.894531 223.1875 343.3125 C 224.597656 342.726562 225.992188 342.109375 227.375 341.457031 C 228.753906 340.804688 230.117188 340.117188 231.464844 339.398438 C 232.808594 338.675781 234.136719 337.925781 235.449219 337.140625 C 236.757812 336.355469 238.046875 335.539062 239.316406 334.691406 C 240.585938 333.84375 241.832031 332.964844 243.058594 332.054688 C 244.285156 331.144531 245.488281 330.207031 246.667969 329.238281 C 247.847656 328.269531 249.003906 327.273438 250.136719 326.246094 C 251.265625 325.222656 252.371094 324.167969 253.453125 323.089844 C 254.53125 322.007812 255.585938 320.902344 256.609375 319.773438 C 257.636719 318.640625 258.632812 317.484375 259.601562 316.304688 C 260.570312 315.125 261.507812 313.921875 262.417969 312.695312 C 263.328125 311.46875 264.207031 310.222656 265.054688 308.953125 C 265.902344 307.683594 266.71875 306.394531 267.503906 305.082031 C 268.289062 303.773438 269.042969 302.445312 269.761719 301.101562 C 270.480469 299.753906 271.167969 298.390625 271.820312 297.011719 C 272.472656 295.628906 273.089844 294.234375 273.675781 292.824219 C 274.257812 291.414062 274.808594 289.988281 275.324219 288.550781 C 275.835938 287.113281 276.316406 285.664062 276.757812 284.203125 C 277.203125 282.742188 277.609375 281.273438 277.980469 279.792969 C 278.351562 278.308594 278.6875 276.820312 278.984375 275.324219 C 279.28125 273.828125 279.542969 272.324219 279.765625 270.8125 C 279.992188 269.300781 280.175781 267.789062 280.328125 266.269531 C 280.476562 264.75 280.589844 263.226562 280.664062 261.703125 C 280.738281 260.175781 280.777344 258.652344 280.777344 257.125 C 280.773438 255.597656 280.734375 254.070312 280.660156 252.546875 C 280.582031 251.023438 280.46875 249.5 280.316406 247.984375 C 280.167969 246.464844 279.980469 244.949219 279.753906 243.441406 C 279.527344 241.929688 279.265625 240.425781 278.96875 238.929688 C 278.667969 237.433594 278.332031 235.945312 277.960938 234.464844 C 277.589844 232.984375 277.179688 231.515625 276.738281 230.054688 C 276.292969 228.59375 275.8125 227.144531 275.296875 225.707031 C 274.785156 224.273438 274.234375 222.847656 273.648438 221.4375 C 273.0625 220.027344 272.445312 218.632812 271.792969 217.253906 C 271.136719 215.875 270.453125 214.511719 269.730469 213.167969 C 269.011719 211.820312 268.257812 210.496094 267.472656 209.183594 C 266.6875 207.875 265.871094 206.585938 265.023438 205.320312 C 264.175781 204.050781 263.296875 202.800781 262.386719 201.578125 C 261.476562 200.351562 260.539062 199.148438 259.570312 197.96875 C 258.601562 196.789062 257.605469 195.632812 256.582031 194.503906 C 255.554688 193.371094 254.503906 192.265625 253.421875 191.1875 C 252.34375 190.109375 251.238281 189.054688 250.109375 188.03125 C 248.976562 187.007812 247.824219 186.007812 246.644531 185.039062 C 245.464844 184.074219 244.261719 183.132812 243.035156 182.222656 C 241.808594 181.316406 240.5625 180.4375 239.292969 179.585938 C 238.023438 178.738281 236.734375 177.921875 235.425781 177.136719 C 234.117188 176.351562 232.789062 175.597656 231.445312 174.878906 C 230.097656 174.160156 228.734375 173.472656 227.355469 172.820312 C 225.976562 172.167969 224.582031 171.546875 223.171875 170.960938 C 221.761719 170.378906 220.339844 169.828125 218.902344 169.3125 C 217.464844 168.796875 216.015625 168.316406 214.554688 167.875 C 213.097656 167.429688 211.625 167.023438 210.144531 166.648438 C 208.664062 166.277344 207.175781 165.941406 205.679688 165.644531 C 204.183594 165.34375 202.679688 165.082031 201.171875 164.859375 C 199.660156 164.632812 198.148438 164.445312 196.628906 164.292969 C 195.109375 164.140625 193.585938 164.027344 192.0625 163.953125 C 190.539062 163.875 189.011719 163.835938 187.488281 163.835938 Z M 187.488281 347.113281 C 186.015625 347.113281 184.542969 347.078125 183.070312 347.003906 C 181.601562 346.933594 180.132812 346.824219 178.667969 346.679688 C 177.199219 346.535156 175.738281 346.355469 174.28125 346.140625 C 172.824219 345.925781 171.375 345.671875 169.929688 345.386719 C 168.488281 345.097656 167.050781 344.773438 165.621094 344.417969 C 164.191406 344.058594 162.773438 343.667969 161.363281 343.238281 C 159.957031 342.8125 158.558594 342.351562 157.171875 341.855469 C 155.785156 341.355469 154.410156 340.828125 153.050781 340.265625 C 151.6875 339.699219 150.34375 339.105469 149.011719 338.472656 C 147.679688 337.84375 146.363281 337.183594 145.066406 336.488281 C 143.765625 335.792969 142.484375 335.066406 141.222656 334.3125 C 139.960938 333.554688 138.714844 332.765625 137.492188 331.949219 C 136.265625 331.128906 135.0625 330.28125 133.878906 329.40625 C 132.695312 328.527344 131.535156 327.621094 130.398438 326.6875 C 129.257812 325.753906 128.144531 324.792969 127.054688 323.800781 C 125.960938 322.8125 124.894531 321.796875 123.855469 320.757812 C 122.8125 319.714844 121.796875 318.648438 120.808594 317.558594 C 119.820312 316.464844 118.859375 315.351562 117.925781 314.214844 C 116.988281 313.074219 116.082031 311.914062 115.207031 310.730469 C 114.328125 309.546875 113.480469 308.34375 112.664062 307.121094 C 111.84375 305.894531 111.058594 304.652344 110.300781 303.386719 C 109.542969 302.125 108.816406 300.84375 108.121094 299.546875 C 107.429688 298.246094 106.765625 296.929688 106.136719 295.601562 C 105.507812 294.269531 104.910156 292.921875 104.347656 291.5625 C 103.785156 290.199219 103.253906 288.828125 102.757812 287.441406 C 102.261719 286.054688 101.800781 284.65625 101.371094 283.246094 C 100.945312 281.835938 100.550781 280.417969 100.195312 278.988281 C 99.835938 277.5625 99.511719 276.125 99.226562 274.679688 C 98.9375 273.234375 98.6875 271.785156 98.472656 270.328125 C 98.253906 268.871094 98.074219 267.410156 97.929688 265.945312 C 97.785156 264.480469 97.679688 263.011719 97.605469 261.539062 C 97.535156 260.070312 97.496094 258.597656 97.496094 257.125 C 97.496094 255.652344 97.535156 254.179688 97.605469 252.707031 C 97.679688 251.238281 97.785156 249.769531 97.929688 248.304688 C 98.074219 246.835938 98.253906 245.375 98.472656 243.917969 C 98.6875 242.460938 98.9375 241.011719 99.226562 239.566406 C 99.511719 238.125 99.835938 236.6875 100.195312 235.257812 C 100.550781 233.828125 100.945312 232.410156 101.371094 231 C 101.800781 229.589844 102.261719 228.195312 102.757812 226.808594 C 103.253906 225.421875 103.785156 224.046875 104.347656 222.6875 C 104.910156 221.324219 105.507812 219.980469 106.136719 218.648438 C 106.765625 217.316406 107.429688 216 108.121094 214.703125 C 108.816406 213.402344 109.542969 212.121094 110.300781 210.859375 C 111.058594 209.597656 111.84375 208.351562 112.664062 207.128906 C 113.480469 205.902344 114.328125 204.699219 115.207031 203.515625 C 116.082031 202.332031 116.988281 201.171875 117.925781 200.035156 C 118.859375 198.894531 119.820312 197.78125 120.808594 196.691406 C 121.796875 195.597656 122.8125 194.53125 123.855469 193.492188 C 124.894531 192.449219 125.960938 191.433594 127.054688 190.445312 C 128.144531 189.457031 129.257812 188.496094 130.398438 187.558594 C 131.535156 186.625 132.695312 185.71875 133.878906 184.84375 C 135.0625 183.964844 136.265625 183.117188 137.492188 182.300781 C 138.714844 181.480469 139.960938 180.695312 141.222656 179.9375 C 142.484375 179.179688 143.765625 178.453125 145.066406 177.757812 C 146.363281 177.066406 147.679688 176.402344 149.011719 175.773438 C 150.34375 175.144531 151.6875 174.546875 153.050781 173.984375 C 154.410156 173.421875 155.785156 172.890625 157.171875 172.394531 C 158.558594 171.898438 159.957031 171.4375 161.363281 171.007812 C 162.773438 170.582031 164.191406 170.1875 165.621094 169.832031 C 167.050781 169.472656 168.488281 169.148438 169.929688 168.863281 C 171.375 168.574219 172.824219 168.324219 174.28125 168.109375 C 175.738281 167.890625 177.199219 167.710938 178.667969 167.566406 C 180.132812 167.421875 181.601562 167.3125 183.070312 167.242188 C 184.542969 167.167969 186.015625 167.132812 187.488281 167.132812 C 188.960938 167.132812 190.433594 167.167969 191.902344 167.242188 C 193.375 167.3125 194.84375 167.421875 196.308594 167.566406 C 197.773438 167.710938 199.234375 167.890625 200.691406 168.109375 C 202.148438 168.324219 203.597656 168.574219 205.042969 168.863281 C 206.488281 169.148438 207.925781 169.472656 209.351562 169.832031 C 210.78125 170.1875 212.199219 170.582031 213.609375 171.007812 C 215.019531 171.4375 216.417969 171.898438 217.804688 172.394531 C 219.191406 172.890625 220.5625 173.421875 221.925781 173.984375 C 223.285156 174.546875 224.632812 175.144531 225.964844 175.773438 C 227.292969 176.402344 228.609375 177.066406 229.910156 177.757812 C 231.207031 178.453125 232.488281 179.179688 233.75 179.9375 C 235.015625 180.695312 236.257812 181.480469 237.484375 182.300781 C 238.707031 183.117188 239.910156 183.964844 241.09375 184.84375 C 242.277344 185.71875 243.4375 186.625 244.578125 187.558594 C 245.714844 188.496094 246.828125 189.457031 247.921875 190.445312 C 249.011719 191.433594 250.078125 192.449219 251.121094 193.492188 C 252.160156 194.53125 253.175781 195.597656 254.164062 196.691406 C 255.15625 197.78125 256.117188 198.894531 257.050781 200.035156 C 257.984375 201.171875 258.890625 202.332031 259.769531 203.515625 C 260.644531 204.699219 261.492188 205.902344 262.3125 207.128906 C 263.128906 208.351562 263.917969 209.597656 264.675781 210.859375 C 265.429688 212.121094 266.15625 213.402344 266.851562 214.703125 C 267.546875 216 268.207031 217.316406 268.835938 218.648438 C 269.46875 219.980469 270.0625 221.324219 270.628906 222.6875 C 271.191406 224.046875 271.722656 225.421875 272.21875 226.808594 C 272.714844 228.195312 273.175781 229.589844 273.601562 231 C 274.03125 232.410156 274.421875 233.828125 274.78125 235.257812 C 275.136719 236.6875 275.460938 238.125 275.75 239.566406 C 276.035156 241.011719 276.289062 242.460938 276.503906 243.917969 C 276.71875 245.375 276.898438 246.835938 277.042969 248.304688 C 277.1875 249.769531 277.296875 251.238281 277.367188 252.707031 C 277.441406 254.179688 277.476562 255.652344 277.476562 257.125 C 277.476562 258.597656 277.4375 260.066406 277.363281 261.539062 C 277.289062 263.007812 277.179688 264.476562 277.035156 265.941406 C 276.890625 267.40625 276.707031 268.867188 276.492188 270.324219 C 276.273438 271.78125 276.019531 273.230469 275.730469 274.671875 C 275.445312 276.117188 275.121094 277.554688 274.761719 278.980469 C 274.402344 280.410156 274.007812 281.828125 273.582031 283.234375 C 273.152344 284.644531 272.6875 286.042969 272.191406 287.425781 C 271.695312 288.8125 271.164062 290.1875 270.601562 291.546875 C 270.035156 292.90625 269.441406 294.25 268.808594 295.582031 C 268.179688 296.914062 267.515625 298.226562 266.824219 299.523438 C 266.128906 300.824219 265.402344 302.105469 264.644531 303.367188 C 263.886719 304.628906 263.097656 305.871094 262.28125 307.097656 C 261.460938 308.320312 260.613281 309.523438 259.738281 310.707031 C 258.859375 311.886719 257.953125 313.046875 257.019531 314.1875 C 256.085938 315.324219 255.125 316.4375 254.136719 317.53125 C 253.148438 318.621094 252.132812 319.6875 251.089844 320.726562 C 250.050781 321.769531 248.984375 322.785156 247.894531 323.773438 C 246.800781 324.761719 245.6875 325.722656 244.550781 326.65625 C 243.410156 327.589844 242.25 328.496094 241.070312 329.375 C 239.886719 330.25 238.683594 331.097656 237.460938 331.917969 C 236.234375 332.734375 234.992188 333.523438 233.730469 334.28125 C 232.46875 335.039062 231.1875 335.765625 229.890625 336.460938 C 228.589844 337.152344 227.277344 337.816406 225.945312 338.445312 C 224.613281 339.078125 223.269531 339.671875 221.910156 340.238281 C 220.550781 340.800781 219.175781 341.332031 217.789062 341.828125 C 216.40625 342.324219 215.007812 342.789062 213.597656 343.21875 C 212.191406 343.644531 210.773438 344.039062 209.34375 344.398438 C 207.917969 344.757812 206.480469 345.082031 205.035156 345.367188 C 203.59375 345.65625 202.144531 345.910156 200.6875 346.128906 C 199.230469 346.34375 197.769531 346.527344 196.304688 346.671875 C 194.839844 346.816406 193.371094 346.925781 191.902344 347 C 190.429688 347.074219 188.960938 347.113281 187.488281 347.113281 Z M 187.488281 347.113281 "/><path style=" stroke:none;fill-rule:nonzero;fill:#f2f0ea;fill-opacity:1;" d="M 187.488281 137.429688 C 127.753906 137.429688 79.15625 186.027344 79.15625 245.75 C 79.15625 305.476562 127.753906 354.082031 187.488281 354.082031 C 247.21875 354.082031 295.808594 305.484375 295.808594 245.75 C 295.808594 186.019531 247.210938 137.429688 187.488281 137.429688 Z M 187.488281 350.785156 C 185.769531 350.785156 184.050781 350.742188 182.332031 350.65625 C 180.617188 350.574219 178.902344 350.449219 177.191406 350.277344 C 175.480469 350.109375 173.777344 349.898438 172.074219 349.648438 C 170.375 349.394531 168.683594 349.101562 166.996094 348.765625 C 165.308594 348.433594 163.632812 348.054688 161.964844 347.636719 C 160.296875 347.21875 158.640625 346.761719 156.996094 346.261719 C 155.351562 345.765625 153.71875 345.226562 152.101562 344.648438 C 150.484375 344.066406 148.878906 343.449219 147.292969 342.792969 C 145.703125 342.132812 144.132812 341.4375 142.578125 340.703125 C 141.023438 339.96875 139.488281 339.195312 137.972656 338.386719 C 136.457031 337.574219 134.960938 336.726562 133.488281 335.84375 C 132.011719 334.960938 130.5625 334.042969 129.132812 333.085938 C 127.703125 332.132812 126.296875 331.140625 124.917969 330.117188 C 123.535156 329.09375 122.179688 328.039062 120.851562 326.945312 C 119.523438 325.855469 118.222656 324.734375 116.949219 323.578125 C 115.675781 322.425781 114.429688 321.242188 113.214844 320.027344 C 112 318.808594 110.8125 317.566406 109.660156 316.292969 C 108.503906 315.019531 107.382812 313.71875 106.292969 312.386719 C 105.203125 311.058594 104.144531 309.707031 103.121094 308.324219 C 102.097656 306.945312 101.105469 305.539062 100.152344 304.109375 C 99.195312 302.679688 98.277344 301.230469 97.394531 299.753906 C 96.507812 298.28125 95.660156 296.785156 94.851562 295.269531 C 94.042969 293.753906 93.269531 292.21875 92.535156 290.664062 C 91.796875 289.109375 91.101562 287.539062 90.445312 285.953125 C 89.785156 284.363281 89.167969 282.761719 88.589844 281.140625 C 88.007812 279.523438 87.46875 277.890625 86.972656 276.246094 C 86.472656 274.601562 86.011719 272.945312 85.59375 271.277344 C 85.179688 269.609375 84.800781 267.933594 84.464844 266.246094 C 84.128906 264.5625 83.835938 262.867188 83.585938 261.167969 C 83.332031 259.46875 83.121094 257.761719 82.953125 256.050781 C 82.785156 254.339844 82.65625 252.628906 82.574219 250.910156 C 82.488281 249.195312 82.445312 247.476562 82.445312 245.757812 C 82.445312 244.039062 82.488281 242.320312 82.574219 240.601562 C 82.65625 238.886719 82.785156 237.171875 82.953125 235.460938 C 83.121094 233.75 83.332031 232.046875 83.582031 230.34375 C 83.835938 228.644531 84.128906 226.953125 84.464844 225.265625 C 84.800781 223.578125 85.175781 221.902344 85.59375 220.234375 C 86.011719 218.566406 86.46875 216.910156 86.96875 215.265625 C 87.464844 213.621094 88.003906 211.988281 88.585938 210.371094 C 89.164062 208.753906 89.78125 207.148438 90.441406 205.5625 C 91.097656 203.972656 91.792969 202.402344 92.527344 200.847656 C 93.261719 199.292969 94.035156 197.757812 94.847656 196.242188 C 95.65625 194.726562 96.503906 193.230469 97.386719 191.757812 C 98.269531 190.285156 99.191406 188.832031 100.144531 187.402344 C 101.101562 185.972656 102.089844 184.566406 103.113281 183.1875 C 104.136719 181.804688 105.195312 180.453125 106.285156 179.121094 C 107.375 177.792969 108.496094 176.492188 109.652344 175.21875 C 110.804688 173.945312 111.992188 172.699219 113.207031 171.484375 C 114.421875 170.269531 115.667969 169.085938 116.941406 167.929688 C 118.214844 166.777344 119.515625 165.652344 120.84375 164.5625 C 122.171875 163.472656 123.527344 162.414062 124.90625 161.390625 C 126.289062 160.367188 127.695312 159.378906 129.121094 158.421875 C 130.550781 157.46875 132.003906 156.546875 133.476562 155.664062 C 134.953125 154.78125 136.449219 153.933594 137.964844 153.121094 C 139.480469 152.3125 141.015625 151.539062 142.570312 150.804688 C 144.121094 150.070312 145.695312 149.375 147.28125 148.714844 C 148.871094 148.058594 150.472656 147.4375 152.089844 146.859375 C 153.710938 146.28125 155.339844 145.742188 156.988281 145.242188 C 158.632812 144.742188 160.289062 144.285156 161.957031 143.867188 C 163.621094 143.449219 165.300781 143.074219 166.984375 142.738281 C 168.671875 142.402344 170.363281 142.109375 172.066406 141.855469 C 173.765625 141.605469 175.46875 141.394531 177.179688 141.226562 C 178.890625 141.054688 180.605469 140.929688 182.324219 140.84375 C 184.039062 140.761719 185.757812 140.71875 187.476562 140.71875 C 189.195312 140.71875 190.914062 140.761719 192.628906 140.84375 C 194.347656 140.929688 196.0625 141.054688 197.773438 141.222656 C 199.480469 141.394531 201.1875 141.601562 202.886719 141.855469 C 204.589844 142.109375 206.28125 142.402344 207.96875 142.738281 C 209.652344 143.070312 211.332031 143.449219 212.996094 143.867188 C 214.664062 144.285156 216.320312 144.742188 217.964844 145.242188 C 219.609375 145.738281 221.242188 146.277344 222.863281 146.859375 C 224.480469 147.4375 226.082031 148.054688 227.671875 148.714844 C 229.257812 149.371094 230.832031 150.066406 232.382812 150.800781 C 233.9375 151.539062 235.472656 152.308594 236.988281 153.121094 C 238.503906 153.929688 240 154.777344 241.476562 155.660156 C 242.949219 156.542969 244.402344 157.464844 245.832031 158.417969 C 247.261719 159.375 248.664062 160.363281 250.046875 161.386719 C 251.425781 162.410156 252.78125 163.46875 254.109375 164.558594 C 255.4375 165.648438 256.738281 166.773438 258.011719 167.925781 C 259.289062 169.082031 260.53125 170.265625 261.746094 171.480469 C 262.960938 172.695312 264.148438 173.941406 265.300781 175.214844 C 266.457031 176.488281 267.578125 177.789062 268.667969 179.117188 C 269.761719 180.449219 270.816406 181.800781 271.839844 183.183594 C 272.867188 184.5625 273.855469 185.96875 274.808594 187.398438 C 275.765625 188.828125 276.683594 190.277344 277.566406 191.753906 C 278.453125 193.226562 279.296875 194.722656 280.109375 196.238281 C 280.917969 197.753906 281.691406 199.289062 282.425781 200.84375 C 283.160156 202.398438 283.859375 203.96875 284.515625 205.554688 C 285.175781 207.144531 285.792969 208.746094 286.371094 210.367188 C 286.949219 211.984375 287.488281 213.617188 287.988281 215.261719 C 288.488281 216.90625 288.945312 218.5625 289.363281 220.230469 C 289.78125 221.898438 290.15625 223.574219 290.492188 225.261719 C 290.828125 226.945312 291.121094 228.640625 291.375 230.339844 C 291.628906 232.039062 291.835938 233.746094 292.003906 235.457031 C 292.175781 237.167969 292.300781 238.878906 292.386719 240.597656 C 292.46875 242.316406 292.511719 244.03125 292.511719 245.75 C 292.507812 247.46875 292.464844 249.1875 292.378906 250.902344 C 292.292969 252.621094 292.164062 254.332031 291.996094 256.042969 C 291.824219 257.753906 291.613281 259.457031 291.359375 261.15625 C 291.105469 262.855469 290.8125 264.546875 290.472656 266.234375 C 290.136719 267.917969 289.761719 269.59375 289.339844 271.261719 C 288.921875 272.925781 288.464844 274.582031 287.964844 276.226562 C 287.464844 277.871094 286.921875 279.5 286.34375 281.117188 C 285.765625 282.734375 285.144531 284.339844 284.488281 285.925781 C 283.828125 287.511719 283.132812 289.082031 282.394531 290.636719 C 281.660156 292.1875 280.886719 293.722656 280.078125 295.238281 C 279.265625 296.753906 278.417969 298.246094 277.535156 299.722656 C 276.652344 301.195312 275.730469 302.644531 274.777344 304.074219 C 273.820312 305.503906 272.832031 306.90625 271.808594 308.289062 C 270.785156 309.667969 269.726562 311.019531 268.636719 312.347656 C 267.546875 313.675781 266.425781 314.976562 265.269531 316.25 C 264.117188 317.523438 262.933594 318.769531 261.71875 319.984375 C 260.503906 321.199219 259.257812 322.382812 257.984375 323.539062 C 256.710938 324.691406 255.410156 325.8125 254.082031 326.90625 C 252.753906 327.996094 251.402344 329.050781 250.023438 330.074219 C 248.640625 331.101562 247.238281 332.089844 245.808594 333.042969 C 244.378906 334 242.929688 334.917969 241.457031 335.804688 C 239.984375 336.6875 238.488281 337.535156 236.972656 338.34375 C 235.457031 339.15625 233.925781 339.929688 232.371094 340.664062 C 230.816406 341.398438 229.25 342.097656 227.660156 342.753906 C 226.074219 343.414062 224.472656 344.035156 222.855469 344.613281 C 221.238281 345.195312 219.605469 345.734375 217.960938 346.234375 C 216.316406 346.734375 214.664062 347.191406 212.996094 347.613281 C 211.328125 348.03125 209.652344 348.410156 207.96875 348.746094 C 206.285156 349.082031 204.589844 349.378906 202.890625 349.632812 C 201.191406 349.886719 199.488281 350.097656 197.777344 350.265625 C 196.066406 350.4375 194.355469 350.566406 192.640625 350.652344 C 190.921875 350.738281 189.207031 350.78125 187.488281 350.785156 Z M 187.488281 350.785156 "/><path style=" stroke:none;fill-rule:nonzero;fill:#f2f0ea;fill-opacity:1;" d="M 187.488281 111.023438 C 119.457031 111.023438 64.121094 166.367188 64.121094 234.386719 C 64.121094 302.40625 119.433594 357.746094 187.488281 357.746094 C 255.539062 357.746094 310.84375 302.40625 310.84375 234.386719 C 310.84375 166.367188 255.507812 111.023438 187.488281 111.023438 Z M 187.488281 354.445312 C 121.28125 354.445312 67.421875 300.585938 67.421875 234.386719 C 67.421875 168.1875 121.28125 114.320312 187.488281 114.320312 C 253.695312 114.320312 307.546875 168.179688 307.546875 234.386719 C 307.546875 300.59375 253.683594 354.445312 187.488281 354.445312 Z M 187.488281 354.445312 "/><path style=" stroke:none;fill-rule:nonzero;fill:#f2f0ea;fill-opacity:1;" d="M 187.488281 84.613281 C 111.1875 84.613281 49.085938 146.707031 49.085938 223.015625 C 49.085938 299.324219 111.1875 361.414062 187.488281 361.414062 C 263.789062 361.414062 325.878906 299.332031 325.878906 223.015625 C 325.878906 146.699219 263.796875 84.613281 187.488281 84.613281 Z M 187.488281 358.117188 C 112.992188 358.117188 52.386719 297.507812 52.386719 223.015625 C 52.386719 148.519531 112.992188 87.914062 187.488281 87.914062 C 261.980469 87.914062 322.578125 148.519531 322.578125 223.015625 C 322.578125 297.507812 261.980469 358.117188 187.488281 358.117188 Z M 187.488281 358.117188 "/><path style=" stroke:none;fill-rule:nonzero;fill:#f2f0ea;fill-opacity:1;" d="M 187.488281 58.183594 C 102.882812 58.183594 34.046875 127.046875 34.046875 211.652344 C 34.046875 296.253906 102.882812 365.042969 187.488281 365.042969 C 272.09375 365.042969 340.878906 296.214844 340.878906 211.652344 C 340.878906 127.085938 272.085938 58.183594 187.488281 58.183594 Z M 187.488281 361.753906 C 104.695312 361.753906 37.34375 294.398438 37.34375 211.660156 C 37.34375 128.917969 104.695312 61.484375 187.488281 61.484375 C 270.277344 61.484375 337.582031 128.828125 337.582031 211.617188 C 337.582031 294.40625 270.269531 361.785156 187.488281 361.785156 Z M 187.488281 361.753906 "/><path style=" stroke:none;fill-rule:nonzero;fill:#f2f0ea;fill-opacity:1;" d="M 187.488281 31.792969 C 94.585938 31.792969 19.011719 107.386719 19.011719 200.277344 C 19.011719 293.171875 94.585938 368.746094 187.488281 368.746094 C 280.386719 368.746094 355.953125 293.171875 355.953125 200.277344 C 355.953125 107.386719 280.378906 31.792969 187.488281 31.792969 Z M 187.488281 365.429688 C 96.410156 365.429688 22.308594 291.339844 22.308594 200.261719 C 22.308594 109.183594 96.410156 35.09375 187.488281 35.09375 C 278.566406 35.09375 352.65625 109.207031 352.65625 200.277344 C 352.65625 291.347656 278.597656 365.445312 187.488281 365.445312 Z M 187.488281 365.429688 "/><path style=" stroke:none;fill-rule:nonzero;fill:#f2f0ea;fill-opacity:1;" d="M 317.242188 59.148438 C 315.117188 57.03125 312.941406 54.972656 310.714844 52.960938 C 308.488281 50.953125 306.214844 49 303.894531 47.101562 C 301.570312 45.203125 299.203125 43.363281 296.789062 41.582031 C 294.378906 39.800781 291.925781 38.082031 289.425781 36.417969 C 286.929688 34.757812 284.394531 33.160156 281.820312 31.621094 C 279.242188 30.085938 276.632812 28.613281 273.984375 27.203125 C 271.335938 25.796875 268.65625 24.453125 265.945312 23.175781 C 263.230469 21.898438 260.488281 20.6875 257.714844 19.546875 C 254.941406 18.402344 252.144531 17.328125 249.320312 16.324219 C 246.492188 15.316406 243.644531 14.382812 240.773438 13.515625 C 237.902344 12.648438 235.011719 11.855469 232.101562 11.128906 C 229.191406 10.40625 226.265625 9.753906 223.324219 9.171875 C 220.382812 8.589844 217.425781 8.082031 214.460938 7.648438 C 211.492188 7.210938 208.515625 6.847656 205.53125 6.558594 C 202.546875 6.265625 199.558594 6.050781 196.5625 5.90625 C 193.566406 5.761719 190.570312 5.695312 187.570312 5.695312 C 184.570312 5.699219 181.574219 5.777344 178.578125 5.925781 C 175.585938 6.078125 172.59375 6.300781 169.609375 6.597656 C 166.625 6.894531 163.652344 7.265625 160.683594 7.707031 C 157.71875 8.152344 154.765625 8.667969 151.824219 9.253906 C 148.882812 9.839844 145.960938 10.5 143.050781 11.230469 C 140.140625 11.960938 137.253906 12.765625 134.382812 13.636719 C 131.515625 14.507812 128.667969 15.453125 125.847656 16.464844 C 123.023438 17.476562 120.226562 18.558594 117.457031 19.707031 C 114.6875 20.855469 111.945312 22.070312 109.238281 23.355469 C 106.527344 24.636719 103.847656 25.988281 101.203125 27.402344 C 98.5625 28.816406 95.953125 30.296875 93.382812 31.839844 C 90.808594 33.382812 88.277344 34.984375 85.785156 36.652344 C 83.289062 38.320312 80.839844 40.046875 78.433594 41.832031 C 76.023438 43.621094 73.660156 45.464844 71.34375 47.367188 C 69.023438 49.269531 66.753906 51.230469 64.53125 53.242188 C 62.3125 55.257812 60.140625 57.324219 58.019531 59.445312 C 55.898438 61.566406 53.832031 63.738281 51.816406 65.960938 C 49.804688 68.179688 47.84375 70.449219 45.941406 72.769531 C 44.039062 75.085938 42.195312 77.449219 40.40625 79.859375 C 38.621094 82.265625 36.894531 84.71875 35.226562 87.210938 C 33.558594 89.703125 31.953125 92.234375 30.414062 94.808594 C 28.871094 97.378906 27.390625 99.988281 25.976562 102.632812 C 24.5625 105.277344 23.210938 107.953125 21.929688 110.664062 C 20.644531 113.375 19.429688 116.113281 18.28125 118.882812 C 17.128906 121.652344 16.050781 124.449219 15.039062 127.273438 C 14.023438 130.097656 13.082031 132.941406 12.210938 135.8125 C 11.335938 138.679688 10.535156 141.570312 9.804688 144.476562 C 9.074219 147.386719 8.414062 150.308594 7.828125 153.25 C 7.238281 156.191406 6.722656 159.144531 6.28125 162.113281 C 5.839844 165.078125 5.46875 168.050781 5.171875 171.035156 C 4.875 174.019531 4.652344 177.011719 4.5 180.003906 C 4.351562 183 4.273438 185.996094 4.269531 188.996094 C 4.265625 191.996094 4.335938 194.992188 4.480469 197.988281 C 4.625 200.984375 4.839844 203.972656 5.132812 206.957031 C 5.421875 209.945312 5.785156 212.917969 6.21875 215.886719 C 6.65625 218.851562 7.164062 221.808594 7.746094 224.75 C 8.328125 227.691406 8.980469 230.617188 9.703125 233.527344 C 10.425781 236.4375 11.222656 239.328125 12.089844 242.199219 C 12.953125 245.070312 13.890625 247.917969 14.894531 250.746094 C 15.902344 253.570312 16.976562 256.367188 18.117188 259.140625 C 19.261719 261.914062 20.472656 264.65625 21.75 267.371094 C 23.027344 270.082031 24.371094 272.765625 25.777344 275.410156 C 27.1875 278.058594 28.660156 280.671875 30.195312 283.246094 C 31.734375 285.820312 33.332031 288.355469 34.992188 290.855469 C 36.65625 293.351562 38.375 295.804688 40.15625 298.21875 C 41.9375 300.628906 43.777344 302.996094 45.675781 305.320312 C 47.574219 307.640625 49.527344 309.917969 51.535156 312.144531 C 53.542969 314.371094 55.605469 316.546875 57.722656 318.671875 C 59.847656 320.785156 62.023438 322.847656 64.25 324.859375 C 66.476562 326.867188 68.75 328.820312 71.074219 330.71875 C 73.394531 332.613281 75.761719 334.453125 78.175781 336.234375 C 80.585938 338.015625 83.042969 339.738281 85.539062 341.398438 C 88.035156 343.058594 90.570312 344.660156 93.148438 346.195312 C 95.722656 347.734375 98.332031 349.207031 100.980469 350.613281 C 103.628906 352.023438 106.308594 353.367188 109.023438 354.644531 C 111.734375 355.921875 114.476562 357.132812 117.25 358.273438 C 120.023438 359.417969 122.824219 360.492188 125.648438 361.496094 C 128.472656 362.503906 131.320312 363.4375 134.191406 364.304688 C 137.0625 365.171875 139.953125 365.964844 142.863281 366.691406 C 145.773438 367.414062 148.699219 368.066406 151.644531 368.648438 C 154.585938 369.226562 157.539062 369.738281 160.507812 370.171875 C 163.472656 370.609375 166.449219 370.972656 169.433594 371.261719 C 172.417969 371.550781 175.410156 371.769531 178.40625 371.914062 C 181.398438 372.054688 184.398438 372.125 187.394531 372.121094 C 190.394531 372.117188 193.390625 372.042969 196.386719 371.890625 C 199.382812 371.742188 202.371094 371.519531 205.355469 371.21875 C 208.339844 370.921875 211.316406 370.554688 214.28125 370.109375 C 217.246094 369.667969 220.199219 369.152344 223.140625 368.566406 C 226.082031 367.976562 229.007812 367.320312 231.914062 366.585938 C 234.824219 365.855469 237.710938 365.054688 240.582031 364.183594 C 243.449219 363.308594 246.296875 362.367188 249.121094 361.355469 C 251.941406 360.34375 254.738281 359.261719 257.507812 358.113281 C 260.277344 356.964844 263.019531 355.746094 265.730469 354.464844 C 268.441406 353.179688 271.117188 351.832031 273.761719 350.417969 C 276.40625 349 279.011719 347.523438 281.585938 345.980469 C 284.15625 344.4375 286.6875 342.832031 289.183594 341.167969 C 291.675781 339.5 294.125 337.773438 296.535156 335.984375 C 298.941406 334.199219 301.304688 332.355469 303.625 330.449219 C 305.941406 328.546875 308.210938 326.589844 310.433594 324.574219 C 312.65625 322.5625 314.828125 320.496094 316.945312 318.375 C 319.066406 316.253906 321.136719 314.082031 323.148438 311.859375 C 325.164062 309.636719 327.121094 307.367188 329.023438 305.050781 C 330.925781 302.730469 332.773438 300.371094 334.558594 297.960938 C 336.347656 295.550781 338.074219 293.101562 339.738281 290.609375 C 341.40625 288.117188 343.011719 285.582031 344.554688 283.011719 C 346.097656 280.441406 347.574219 277.832031 348.988281 275.1875 C 350.40625 272.542969 351.753906 269.867188 353.039062 267.15625 C 354.320312 264.445312 355.539062 261.707031 356.6875 258.9375 C 357.835938 256.164062 358.917969 253.371094 359.929688 250.546875 C 360.941406 247.722656 361.882812 244.878906 362.757812 242.007812 C 363.628906 239.140625 364.429688 236.25 365.160156 233.34375 C 365.890625 230.433594 366.550781 227.507812 367.140625 224.566406 C 367.726562 221.628906 368.242188 218.675781 368.683594 215.707031 C 369.128906 212.742188 369.496094 209.765625 369.792969 206.78125 C 370.089844 203.796875 370.316406 200.808594 370.464844 197.8125 C 370.617188 194.820312 370.691406 191.820312 370.695312 188.824219 C 370.699219 185.824219 370.628906 182.828125 370.484375 179.832031 C 370.34375 176.835938 370.125 173.84375 369.835938 170.859375 C 369.546875 167.875 369.183594 164.898438 368.746094 161.933594 C 368.308594 158.964844 367.800781 156.011719 367.222656 153.070312 C 366.640625 150.128906 365.988281 147.199219 365.261719 144.289062 C 364.539062 141.378906 363.742188 138.488281 362.878906 135.617188 C 362.011719 132.746094 361.074219 129.898438 360.070312 127.074219 C 359.066406 124.25 357.992188 121.449219 356.847656 118.675781 C 355.703125 115.90625 354.496094 113.160156 353.21875 110.449219 C 351.941406 107.734375 350.597656 105.054688 349.1875 102.40625 C 347.78125 99.761719 346.304688 97.148438 344.769531 94.574219 C 343.234375 92 341.632812 89.460938 339.972656 86.964844 C 338.3125 84.46875 336.589844 82.015625 334.808594 79.601562 C 333.027344 77.1875 331.1875 74.820312 329.289062 72.5 C 327.394531 70.175781 325.441406 67.902344 323.429688 65.675781 C 321.421875 63.449219 319.359375 61.273438 317.242188 59.148438 Z M 314.886719 316.3125 C 312.789062 318.347656 310.644531 320.328125 308.453125 322.261719 C 306.257812 324.191406 304.019531 326.066406 301.738281 327.890625 C 299.453125 329.710938 297.125 331.476562 294.757812 333.183594 C 292.386719 334.894531 289.976562 336.542969 287.527344 338.132812 C 285.078125 339.726562 282.589844 341.257812 280.066406 342.726562 C 277.542969 344.199219 274.984375 345.605469 272.390625 346.953125 C 269.796875 348.296875 267.171875 349.582031 264.519531 350.800781 C 261.863281 352.015625 259.179688 353.171875 256.46875 354.257812 C 253.757812 355.347656 251.019531 356.367188 248.261719 357.324219 C 245.5 358.277344 242.714844 359.164062 239.910156 359.984375 C 237.109375 360.804688 234.285156 361.554688 231.445312 362.238281 C 228.605469 362.917969 225.75 363.53125 222.878906 364.074219 C 220.007812 364.617188 217.125 365.09375 214.230469 365.496094 C 211.339844 365.898438 208.4375 366.230469 205.527344 366.492188 C 202.617188 366.753906 199.703125 366.945312 196.785156 367.066406 C 193.867188 367.1875 190.945312 367.238281 188.023438 367.214844 C 185.101562 367.191406 182.183594 367.101562 179.265625 366.9375 C 176.351562 366.773438 173.4375 366.539062 170.53125 366.234375 C 167.628906 365.929688 164.730469 365.554688 161.84375 365.105469 C 158.957031 364.660156 156.082031 364.144531 153.21875 363.558594 C 150.359375 362.972656 147.511719 362.316406 144.679688 361.59375 C 141.851562 360.871094 139.039062 360.078125 136.25 359.214844 C 133.457031 358.355469 130.6875 357.425781 127.941406 356.429688 C 125.195312 355.433594 122.472656 354.375 119.777344 353.246094 C 117.085938 352.117188 114.417969 350.925781 111.78125 349.667969 C 109.144531 348.410156 106.539062 347.089844 103.96875 345.703125 C 101.394531 344.320312 98.855469 342.875 96.355469 341.367188 C 93.851562 339.859375 91.386719 338.289062 88.960938 336.664062 C 86.535156 335.035156 84.152344 333.351562 81.804688 331.605469 C 79.460938 329.863281 77.164062 328.0625 74.90625 326.207031 C 72.648438 324.351562 70.4375 322.441406 68.273438 320.480469 C 66.109375 318.515625 63.996094 316.503906 61.929688 314.4375 C 59.863281 312.371094 57.851562 310.257812 55.886719 308.09375 C 53.925781 305.929688 52.015625 303.71875 50.160156 301.460938 C 48.304688 299.207031 46.503906 296.90625 44.761719 294.5625 C 43.019531 292.21875 41.332031 289.832031 39.703125 287.40625 C 38.078125 284.980469 36.507812 282.515625 35.003906 280.011719 C 33.496094 277.511719 32.046875 274.972656 30.664062 272.402344 C 29.28125 269.828125 27.957031 267.222656 26.699219 264.585938 C 25.441406 261.949219 24.25 259.285156 23.121094 256.589844 C 21.996094 253.894531 20.933594 251.171875 19.9375 248.425781 C 18.941406 245.679688 18.011719 242.910156 17.152344 240.121094 C 16.292969 237.328125 15.5 234.515625 14.773438 231.6875 C 14.050781 228.855469 13.394531 226.011719 12.808594 223.148438 C 12.222656 220.285156 11.707031 217.410156 11.261719 214.523438 C 10.816406 211.636719 10.4375 208.742188 10.132812 205.835938 C 9.828125 202.929688 9.59375 200.019531 9.429688 197.101562 C 9.265625 194.183594 9.175781 191.265625 9.152344 188.34375 C 9.132812 185.421875 9.179688 182.503906 9.300781 179.582031 C 9.421875 176.664062 9.613281 173.75 9.875 170.839844 C 10.136719 167.929688 10.46875 165.03125 10.871094 162.136719 C 11.277344 159.242188 11.75 156.359375 12.292969 153.488281 C 12.835938 150.621094 13.449219 147.765625 14.132812 144.921875 C 14.8125 142.082031 15.5625 139.261719 16.382812 136.457031 C 17.203125 133.652344 18.089844 130.871094 19.046875 128.109375 C 20 125.347656 21.023438 122.609375 22.109375 119.898438 C 23.199219 117.1875 24.351562 114.503906 25.570312 111.851562 C 26.789062 109.195312 28.070312 106.570312 29.414062 103.976562 C 30.761719 101.386719 32.171875 98.824219 33.640625 96.300781 C 35.109375 93.777344 36.640625 91.289062 38.234375 88.839844 C 39.824219 86.390625 41.476562 83.980469 43.183594 81.609375 C 44.890625 79.242188 46.65625 76.914062 48.480469 74.628906 C 50.300781 72.347656 52.175781 70.109375 54.109375 67.914062 C 56.039062 65.722656 58.019531 63.578125 60.054688 61.484375 C 62.152344 59.449219 64.296875 57.464844 66.488281 55.535156 C 68.683594 53.605469 70.921875 51.726562 73.203125 49.90625 C 75.488281 48.082031 77.816406 46.320312 80.183594 44.609375 C 82.554688 42.902344 84.964844 41.25 87.414062 39.660156 C 89.863281 38.070312 92.351562 36.539062 94.875 35.066406 C 97.398438 33.597656 99.957031 32.1875 102.550781 30.84375 C 105.144531 29.496094 107.769531 28.214844 110.421875 26.996094 C 113.078125 25.777344 115.761719 24.625 118.472656 23.535156 C 121.183594 22.449219 123.921875 21.425781 126.683594 20.472656 C 129.441406 19.515625 132.226562 18.628906 135.03125 17.808594 C 137.832031 16.992188 140.65625 16.238281 143.496094 15.558594 C 146.335938 14.875 149.191406 14.261719 152.0625 13.71875 C 154.933594 13.175781 157.816406 12.703125 160.710938 12.300781 C 163.601562 11.894531 166.503906 11.5625 169.414062 11.300781 C 172.324219 11.039062 175.238281 10.847656 178.15625 10.726562 C 181.074219 10.605469 183.996094 10.558594 186.917969 10.578125 C 189.839844 10.601562 192.757812 10.695312 195.675781 10.855469 C 198.59375 11.019531 201.503906 11.253906 204.410156 11.5625 C 207.3125 11.867188 210.210938 12.242188 213.097656 12.6875 C 215.984375 13.132812 218.859375 13.648438 221.722656 14.234375 C 224.582031 14.820312 227.429688 15.476562 230.261719 16.199219 C 233.089844 16.925781 235.902344 17.71875 238.691406 18.578125 C 241.484375 19.441406 244.253906 20.367188 247 21.363281 C 249.746094 22.359375 252.46875 23.421875 255.164062 24.550781 C 257.859375 25.675781 260.523438 26.871094 263.160156 28.128906 C 265.796875 29.386719 268.402344 30.707031 270.972656 32.089844 C 273.546875 33.476562 276.085938 34.921875 278.585938 36.429688 C 281.089844 37.9375 283.554688 39.503906 285.980469 41.132812 C 288.40625 42.757812 290.789062 44.445312 293.136719 46.1875 C 295.480469 47.933594 297.78125 49.730469 300.035156 51.585938 C 302.292969 53.441406 304.503906 55.351562 306.667969 57.3125 C 308.832031 59.277344 310.945312 61.292969 313.011719 63.355469 C 315.078125 65.421875 317.089844 67.539062 319.054688 69.703125 C 321.015625 71.867188 322.925781 74.074219 324.78125 76.332031 C 326.636719 78.589844 328.4375 80.890625 330.179688 83.234375 C 331.921875 85.578125 333.609375 87.960938 335.238281 90.386719 C 336.863281 92.816406 338.433594 95.277344 339.941406 97.78125 C 341.449219 100.285156 342.894531 102.820312 344.277344 105.394531 C 345.660156 107.964844 346.984375 110.570312 348.242188 113.207031 C 349.5 115.84375 350.691406 118.511719 351.820312 121.207031 C 352.945312 123.902344 354.007812 126.621094 355.003906 129.367188 C 356 132.113281 356.929688 134.882812 357.789062 137.675781 C 358.652344 140.46875 359.441406 143.277344 360.167969 146.109375 C 360.890625 148.9375 361.546875 151.785156 362.132812 154.648438 C 362.71875 157.507812 363.234375 160.382812 363.679688 163.269531 C 364.125 166.15625 364.503906 169.054688 364.808594 171.960938 C 365.113281 174.863281 365.347656 177.777344 365.511719 180.691406 C 365.675781 183.609375 365.765625 186.527344 365.789062 189.449219 C 365.808594 192.371094 365.761719 195.292969 365.640625 198.210938 C 365.519531 201.128906 365.328125 204.042969 365.066406 206.953125 C 364.804688 209.863281 364.472656 212.765625 364.070312 215.660156 C 363.664062 218.550781 363.191406 221.433594 362.648438 224.304688 C 362.105469 227.175781 361.492188 230.03125 360.808594 232.871094 C 360.128906 235.710938 359.378906 238.535156 358.558594 241.339844 C 357.738281 244.144531 356.851562 246.925781 355.894531 249.6875 C 354.941406 252.445312 353.921875 255.183594 352.832031 257.894531 C 351.742188 260.605469 350.589844 263.289062 349.371094 265.945312 C 348.152344 268.601562 346.871094 271.222656 345.527344 273.816406 C 344.179688 276.410156 342.773438 278.96875 341.300781 281.492188 C 339.832031 284.015625 338.300781 286.503906 336.707031 288.953125 C 335.117188 291.402344 333.464844 293.8125 331.757812 296.183594 C 330.050781 298.554688 328.285156 300.878906 326.460938 303.164062 C 324.640625 305.449219 322.765625 307.6875 320.832031 309.878906 C 318.902344 312.070312 316.921875 314.214844 314.886719 316.3125 Z M 314.886719 316.3125 "/></g></svg>