<svg xmlns="http://www.w3.org/2000/svg" xmlns:xlink="http://www.w3.org/1999/xlink" width="500" zoomAndPan="magnify" viewBox="0 0 375 374.999991" height="500" preserveAspectRatio="xMidYMid meet" version="1.2"><defs><clipPath id="cc2f90eee4"><path d="M 12.875 0 L 359 0 L 359 375 L 12.875 375 Z M 12.875 0 "/></clipPath></defs><g id="213a7a7d75"><rect x="0" width="375" y="0" height="374.999991" style="fill:#ffffff;fill-opacity:1;stroke:none;"/><rect x="0" width="375" y="0" height="374.999991" style="fill:#dddbd4;fill-opacity:1;stroke:none;"/><g clip-rule="nonzero" clip-path="url(#cc2f90eee4)"><path style=" stroke:none;fill-rule:evenodd;fill:#f2f0ea;fill-opacity:1;" d="M 72.210938 153.320312 C 74.941406 158.011719 76.507812 163.457031 76.507812 169.261719 C 76.507812 186.777344 62.226562 201.023438 44.710938 201.023438 C 27.195312 201.023438 12.917969 186.777344 12.917969 169.261719 C 12.917969 151.746094 27.199219 137.464844 44.710938 137.464844 C 52.074219 137.464844 58.867188 139.988281 64.265625 144.214844 L 109.46875 104.839844 C 106.738281 100.15625 105.171875 94.714844 105.171875 88.929688 C 105.171875 71.414062 119.460938 57.132812 136.9375 57.132812 C 154.449219 57.132812 168.730469 71.414062 168.730469 88.929688 C 168.730469 91.828125 168.339844 94.640625 167.601562 97.316406 L 203.886719 115.210938 C 209.703125 107.574219 218.886719 102.628906 229.191406 102.628906 C 235.53125 102.628906 241.445312 104.5 246.40625 107.71875 L 304.804688 46.765625 L 285.9375 30.167969 C 284.292969 28.722656 283.5625 26.496094 284.023438 24.355469 C 284.484375 22.214844 286.070312 20.492188 288.167969 19.851562 L 351.132812 0.640625 C 353.21875 0.00390625 355.480469 0.539062 357.0625 2.039062 C 358.640625 3.539062 359.289062 5.773438 358.757812 7.886719 L 343.445312 69.027344 C 342.933594 71.070312 341.394531 72.699219 339.382812 73.328125 C 337.367188 73.953125 335.175781 73.488281 333.59375 72.09375 L 313.886719 54.757812 L 255.125 116.089844 C 258.796875 121.277344 260.953125 127.605469 260.953125 134.425781 C 260.953125 151.902344 246.707031 166.191406 229.191406 166.191406 C 211.675781 166.191406 197.394531 151.902344 197.394531 134.425781 C 197.394531 131.523438 197.785156 128.710938 198.519531 126.035156 L 162.226562 108.136719 C 156.410156 115.757812 147.230469 120.691406 136.9375 120.691406 C 129.589844 120.691406 122.808594 118.167969 117.414062 113.945312 Z M 136.9375 108.605469 C 147.792969 108.605469 156.648438 99.757812 156.648438 88.929688 C 156.648438 78.070312 147.792969 69.214844 136.9375 69.214844 C 126.105469 69.214844 117.257812 78.074219 117.257812 88.929688 C 117.257812 99.757812 126.109375 108.605469 136.9375 108.605469 Z M 44.710938 188.9375 C 55.566406 188.9375 64.425781 180.117188 64.425781 169.261719 C 64.425781 158.402344 55.570312 149.546875 44.710938 149.546875 C 33.855469 149.546875 25 158.402344 25 169.261719 C 25 180.117188 33.859375 188.9375 44.710938 188.9375 Z M 229.191406 154.105469 C 240.042969 154.105469 248.871094 145.253906 248.871094 134.425781 C 248.871094 123.570312 240.046875 114.714844 229.191406 114.714844 C 218.332031 114.714844 209.480469 123.570312 209.480469 134.425781 C 209.480469 145.257812 218.335938 154.105469 229.191406 154.105469 Z M 334.132812 56.472656 L 344.441406 15.316406 L 302.054688 28.25 Z M 112.117188 183.800781 L 161.785156 183.800781 C 165.121094 183.800781 167.828125 186.507812 167.828125 189.84375 L 167.828125 368.957031 C 167.828125 372.292969 165.121094 375 161.785156 375 L 112.117188 375 C 108.78125 375 106.078125 372.292969 106.078125 368.957031 L 106.078125 189.84375 C 106.078125 186.507812 108.78125 183.800781 112.117188 183.800781 Z M 118.160156 195.886719 L 118.160156 362.914062 C 118.160156 362.914062 155.742188 362.914062 155.742188 362.914062 L 155.742188 195.886719 Z M 204.339844 217.667969 L 254.007812 217.667969 C 257.34375 217.667969 260.050781 220.371094 260.050781 223.707031 L 260.050781 368.957031 C 260.050781 372.292969 257.34375 375 254.007812 375 L 204.339844 375 C 201.003906 375 198.300781 372.292969 198.300781 368.957031 L 198.300781 223.707031 C 198.300781 220.371094 201.003906 217.667969 204.339844 217.667969 Z M 210.382812 229.75 L 210.382812 362.914062 L 247.964844 362.914062 L 247.964844 229.75 Z M 296.597656 118.625 L 346.261719 118.625 C 349.601562 118.625 352.304688 121.328125 352.304688 124.667969 L 352.304688 368.957031 C 352.304688 372.292969 349.601562 375 346.261719 375 L 296.597656 375 C 293.261719 375 290.554688 372.292969 290.554688 368.957031 L 290.554688 124.667969 C 290.554688 121.328125 293.261719 118.625 296.597656 118.625 Z M 302.640625 130.710938 L 302.640625 362.914062 L 340.222656 362.914062 L 340.222656 130.710938 Z M 19.863281 267.621094 L 69.5625 267.621094 C 72.898438 267.621094 75.605469 270.328125 75.605469 273.664062 L 75.605469 368.957031 C 75.605469 372.292969 72.898438 375 69.5625 375 L 19.863281 375 C 16.527344 375 13.820312 372.292969 13.820312 368.957031 L 13.820312 273.664062 C 13.820312 270.328125 16.527344 267.621094 19.863281 267.621094 Z M 25.90625 279.707031 L 25.90625 362.914062 C 25.90625 362.914062 63.519531 362.914062 63.519531 362.914062 L 63.519531 279.707031 Z M 25.90625 279.707031 "/></g></g></svg>