<svg xmlns="http://www.w3.org/2000/svg" xmlns:xlink="http://www.w3.org/1999/xlink" width="500" zoomAndPan="magnify" viewBox="0 0 375 374.999991" height="500" preserveAspectRatio="xMidYMid meet" version="1.2"><defs><clipPath id="f47d8b0bcf"><path d="M 191 18.28125 L 375 18.28125 L 375 173 L 191 173 Z M 191 18.28125 "/></clipPath><clipPath id="deba6e311f"><path d="M 217 228 L 358 228 L 358 356.53125 L 217 356.53125 Z M 217 228 "/></clipPath></defs><g id="4e0dcf8fad"><rect x="0" width="375" y="0" height="374.999991" style="fill:#ffffff;fill-opacity:1;stroke:none;"/><rect x="0" width="375" y="0" height="374.999991" style="fill:#dddbd4;fill-opacity:1;stroke:none;"/><path style=" stroke:none;fill-rule:nonzero;fill:#f2f0ea;fill-opacity:1;" d="M 268.714844 250.378906 C 270.394531 248.546875 270.277344 245.691406 268.425781 244.007812 C 266.59375 242.324219 263.738281 242.445312 262.054688 244.292969 C 246.773438 260.988281 225.039062 270.5625 202.421875 270.5625 C 159.367188 270.5625 124.082031 236.734375 121.734375 194.246094 L 139.46875 194.246094 C 141.078125 194.246094 142.566406 193.390625 143.375 191.992188 C 144.1875 190.597656 144.1875 188.882812 143.375 187.484375 L 121 148.726562 C 120.1875 147.328125 118.699219 146.472656 117.09375 146.472656 C 115.484375 146.472656 113.996094 147.328125 113.183594 148.726562 L 90.839844 187.484375 C 89.589844 189.632812 90.328125 192.398438 92.492188 193.648438 C 93.199219 194.050781 93.980469 194.246094 94.746094 194.246094 C 96.308594 194.246094 97.824219 193.4375 98.652344 191.992188 L 117.121094 160 L 131.683594 185.230469 L 117.121094 185.230469 C 114.628906 185.230469 112.613281 187.246094 112.613281 189.738281 C 112.613281 201.867188 114.988281 213.632812 119.675781 224.710938 C 124.199219 235.410156 130.679688 245.011719 138.929688 253.265625 C 147.179688 261.515625 156.78125 267.992188 167.480469 272.515625 C 178.558594 277.203125 190.324219 279.578125 202.453125 279.578125 C 215.273438 279.578125 227.671875 276.933594 239.273438 271.703125 C 250.46875 266.652344 260.386719 259.484375 268.714844 250.378906 Z M 268.714844 250.378906 "/><path style=" stroke:none;fill-rule:nonzero;fill:#f2f0ea;fill-opacity:1;" d="M 144.640625 133.246094 C 159.96875 117.558594 180.496094 108.917969 202.4375 108.917969 C 245.496094 108.917969 280.78125 142.746094 283.125 185.230469 L 265.390625 185.230469 C 263.785156 185.230469 262.296875 186.085938 261.484375 187.484375 C 260.671875 188.882812 260.671875 190.597656 261.484375 191.992188 L 283.863281 230.75 C 284.671875 232.148438 286.160156 233.003906 287.769531 233.003906 C 289.375 233.003906 290.863281 232.148438 291.675781 230.75 L 314.054688 191.992188 C 315.300781 189.84375 314.5625 187.078125 312.398438 185.832031 C 310.25 184.585938 307.484375 185.320312 306.238281 187.484375 L 287.769531 219.480469 L 273.207031 194.246094 L 287.769531 194.246094 C 290.261719 194.246094 292.277344 192.234375 292.277344 189.738281 C 292.277344 177.613281 289.902344 165.84375 285.214844 154.769531 C 280.691406 144.066406 274.214844 134.464844 265.960938 126.214844 C 257.710938 117.964844 248.109375 111.488281 237.410156 106.964844 C 226.332031 102.273438 214.566406 99.898438 202.4375 99.898438 C 190.128906 99.898438 178.210938 102.347656 166.984375 107.160156 C 156.152344 111.816406 146.472656 118.476562 138.191406 126.9375 C 136.449219 128.710938 136.480469 131.566406 138.265625 133.308594 C 140.039062 135.066406 142.894531 135.035156 144.640625 133.246094 Z M 144.640625 133.246094 "/><path style=" stroke:none;fill-rule:nonzero;fill:#f2f0ea;fill-opacity:1;" d="M 243.089844 152.875 L 198.019531 209.230469 L 170.625 185.652344 C 168.730469 184.027344 165.890625 184.238281 164.265625 186.132812 C 162.644531 188.027344 162.855469 190.867188 164.746094 192.488281 L 195.675781 219.121094 C 196.5 219.824219 197.539062 220.214844 198.621094 220.214844 C 198.757812 220.214844 198.90625 220.214844 199.042969 220.203125 C 200.257812 220.082031 201.386719 219.480469 202.136719 218.535156 L 250.121094 158.523438 C 251.671875 156.585938 251.371094 153.746094 249.417969 152.183594 C 247.476562 150.605469 244.636719 150.921875 243.089844 152.875 Z M 243.089844 152.875 "/><path style=" stroke:none;fill-rule:nonzero;fill:#f2f0ea;fill-opacity:1;" d="M 174.09375 301.054688 C 173.855469 298.574219 171.628906 296.753906 169.152344 297.011719 C 166.6875 297.265625 164.882812 299.460938 165.121094 301.925781 L 166.28125 313.902344 L 138.523438 324.183594 L 126.335938 306.839844 C 125.417969 305.53125 123.871094 304.8125 122.277344 304.929688 C 115.46875 305.488281 108.617188 305.230469 101.898438 304.164062 C 100.320312 303.910156 98.726562 304.527344 97.707031 305.757812 L 84.242188 322.125 L 57.339844 309.753906 L 60.992188 288.882812 C 61.261719 287.304688 60.691406 285.710938 59.472656 284.671875 C 54.289062 280.269531 49.628906 275.234375 45.617188 269.703125 C 44.6875 268.414062 43.125 267.707031 41.53125 267.871094 L 20.429688 269.914062 L 10.152344 242.15625 L 27.492188 229.96875 C 28.800781 229.054688 29.523438 227.503906 29.402344 225.914062 C 28.847656 219.105469 29.101562 212.25 30.167969 205.535156 C 30.425781 203.957031 29.808594 202.363281 28.574219 201.339844 L 12.210938 187.875 L 24.578125 160.976562 L 45.453125 164.625 C 47.03125 164.898438 48.625 164.328125 49.660156 163.109375 C 54.0625 157.925781 59.097656 153.265625 64.628906 149.253906 C 65.921875 148.320312 66.628906 146.757812 66.460938 145.164062 L 64.417969 124.066406 L 92.175781 113.785156 L 99.886719 124.773438 C 101.371094 126.890625 104.347656 127.328125 106.378906 125.71875 C 108.242188 124.230469 108.632812 121.554688 107.265625 119.601562 L 98.804688 107.550781 C 96.894531 104.828125 93.378906 103.730469 90.25 104.890625 L 60.058594 116.070312 C 56.933594 117.226562 54.980469 120.339844 55.3125 123.660156 L 57.234375 143.527344 C 52.636719 147.058594 48.351562 151.011719 44.492188 155.324219 L 24.847656 151.882812 C 21.574219 151.3125 18.3125 153.023438 16.914062 156.046875 L 3.464844 185.304688 C 2.082031 188.328125 2.890625 191.917969 5.460938 194.039062 L 20.867188 206.707031 C 20.113281 212.445312 19.90625 218.261719 20.203125 224.0625 L 3.914062 235.5 C 1.195312 237.410156 0.0976562 240.925781 1.253906 244.050781 L 12.433594 274.242188 C 13.59375 277.371094 16.71875 279.324219 20.023438 278.992188 L 39.890625 277.070312 C 43.421875 281.667969 47.375 285.933594 51.6875 289.8125 L 48.246094 309.453125 C 47.675781 312.730469 49.390625 315.992188 52.410156 317.390625 L 81.671875 330.839844 C 81.671875 330.839844 81.6875 330.839844 81.6875 330.839844 C 84.707031 332.222656 88.28125 331.394531 90.402344 328.828125 L 103.070312 313.421875 C 108.8125 314.171875 114.628906 314.382812 120.429688 314.082031 L 131.894531 330.417969 C 133.292969 332.417969 135.5625 333.546875 137.90625 333.546875 C 138.761719 333.546875 139.621094 333.394531 140.445312 333.09375 L 170.636719 321.914062 C 173.765625 320.757812 175.71875 317.644531 175.386719 314.324219 Z M 174.09375 301.054688 "/><path style=" stroke:none;fill-rule:nonzero;fill:#f2f0ea;fill-opacity:1;" d="M 61.441406 205.039062 C 58.8125 204.078125 55.941406 205.714844 55.445312 208.480469 C 54.949219 211.304688 54.648438 214.175781 54.558594 217.074219 C 54.320312 224.933594 55.582031 232.675781 58.332031 240.070312 C 61.066406 247.476562 65.15625 254.164062 70.445312 259.980469 C 75.929688 265.992188 82.496094 270.785156 89.953125 274.214844 C 96.503906 277.234375 103.386719 279.023438 110.464844 279.59375 C 113.078125 279.804688 115.304688 277.714844 115.304688 275.101562 C 115.304688 272.742188 113.484375 270.785156 111.125 270.605469 C 105.113281 270.125 99.285156 268.59375 93.707031 266.023438 C 71.917969 256.015625 60.390625 232.675781 64.328125 210.085938 C 64.71875 207.921875 63.515625 205.804688 61.441406 205.039062 Z M 61.441406 205.039062 "/><g clip-rule="nonzero" clip-path="url(#f47d8b0bcf)"><path style=" stroke:none;fill-rule:nonzero;fill:#f2f0ea;fill-opacity:1;" d="M 371.460938 134.539062 L 358.132812 124.382812 C 358.550781 119.632812 358.550781 114.824219 358.132812 110.058594 L 371.492188 99.914062 C 374 98.007812 374.902344 94.65625 373.699219 91.738281 L 363.152344 66.191406 C 361.949219 63.289062 358.929688 61.546875 355.816406 61.96875 L 339.195312 64.207031 C 336.128906 60.539062 332.734375 57.144531 329.082031 54.0625 L 331.351562 37.457031 C 331.773438 34.347656 330.042969 31.324219 327.144531 30.109375 L 301.625 19.527344 C 298.722656 18.328125 295.359375 19.226562 293.449219 21.722656 L 283.289062 35.054688 C 278.542969 34.632812 273.746094 34.632812 268.96875 35.054688 L 258.824219 21.691406 C 256.914062 19.183594 253.5625 18.28125 250.648438 19.484375 L 225.101562 30.035156 C 222.199219 31.234375 220.457031 34.257812 220.878906 37.367188 L 223.117188 53.988281 C 219.449219 57.054688 216.054688 60.449219 212.972656 64.101562 L 196.351562 61.832031 C 193.886719 61.503906 191.617188 63.214844 191.273438 65.695312 C 190.925781 68.175781 192.65625 70.429688 195.132812 70.773438 L 214.25 73.390625 C 214.460938 73.421875 214.65625 73.433594 214.867188 73.433594 C 216.234375 73.433594 217.542969 72.804688 218.414062 71.722656 C 221.988281 67.167969 226.121094 63.050781 230.707031 59.457031 C 231.96875 58.46875 232.601562 56.890625 232.390625 55.3125 L 230.03125 37.773438 L 252.601562 28.441406 L 263.316406 42.535156 C 264.28125 43.8125 265.859375 44.476562 267.4375 44.28125 C 273.207031 43.589844 279.050781 43.589844 284.792969 44.296875 C 286.386719 44.492188 287.949219 43.828125 288.910156 42.550781 L 299.640625 28.484375 L 322.199219 37.847656 L 319.808594 55.386719 C 319.597656 56.964844 320.214844 58.542969 321.460938 59.519531 C 326.015625 63.09375 330.148438 67.242188 333.742188 71.828125 C 334.730469 73.089844 336.308594 73.71875 337.886719 73.511719 L 355.425781 71.152344 L 364.757812 93.722656 L 350.664062 104.421875 C 349.386719 105.386719 348.722656 106.964844 348.917969 108.542969 C 349.609375 114.3125 349.609375 120.144531 348.902344 125.898438 C 348.707031 127.492188 349.371094 129.054688 350.648438 130.015625 L 364.714844 140.746094 L 355.351562 163.304688 L 337.8125 160.914062 C 336.234375 160.703125 334.65625 161.335938 333.664062 162.597656 C 333.035156 163.394531 332.402344 164.175781 331.742188 164.941406 C 330.058594 166.894531 330.359375 169.871094 332.402344 171.449219 C 334.3125 172.921875 337.03125 172.621094 338.59375 170.804688 C 338.761719 170.609375 338.941406 170.414062 339.105469 170.203125 L 355.726562 172.457031 C 356.042969 172.5 356.359375 172.515625 356.660156 172.515625 C 359.425781 172.515625 361.980469 170.847656 363.0625 168.234375 L 373.65625 142.714844 C 374.871094 139.816406 373.972656 136.449219 371.460938 134.539062 Z M 371.460938 134.539062 "/></g><path style=" stroke:none;fill-rule:nonzero;fill:#f2f0ea;fill-opacity:1;" d="M 313.105469 146.546875 C 315.796875 143.152344 318.019531 139.378906 319.71875 135.277344 C 324.558594 123.613281 324.574219 110.765625 319.75 99.089844 C 314.925781 87.410156 305.847656 78.320312 294.1875 73.480469 C 282.523438 68.640625 269.675781 68.625 257.996094 73.449219 C 255.519531 74.472656 253.171875 75.6875 250.933594 77.070312 C 248.320312 78.710938 248.09375 82.4375 250.484375 84.40625 C 251.972656 85.625 254.089844 85.773438 255.726562 84.75 C 265.886719 78.410156 278.855469 76.890625 290.730469 81.820312 C 310.222656 89.90625 319.492188 112.34375 311.394531 131.835938 C 310.011719 135.15625 308.207031 138.207031 306.058594 140.925781 C 304.644531 142.714844 304.78125 145.285156 306.390625 146.910156 C 308.265625 148.816406 311.421875 148.652344 313.105469 146.546875 Z M 313.105469 146.546875 "/><g clip-rule="nonzero" clip-path="url(#deba6e311f)"><path style=" stroke:none;fill-rule:nonzero;fill:#f2f0ea;fill-opacity:1;" d="M 357.304688 266.894531 L 350.300781 247.972656 C 349.308594 245.300781 346.648438 243.628906 343.808594 243.902344 L 332.28125 245.011719 C 330.34375 242.578125 328.226562 240.28125 325.941406 238.160156 L 326.707031 233.773438 C 327.171875 231.082031 325.160156 228.585938 322.425781 228.480469 C 320.167969 228.40625 318.214844 230 317.824219 232.210938 L 316.625 239.078125 C 316.351562 240.65625 316.921875 242.25 318.140625 243.285156 C 321.28125 245.960938 324.121094 249.011719 326.558594 252.378906 C 327.488281 253.667969 329.050781 254.375 330.644531 254.210938 L 342.578125 253.054688 L 348.121094 268.023438 L 338.308594 274.917969 C 337 275.835938 336.28125 277.382812 336.402344 278.976562 C 336.730469 283.109375 336.582031 287.273438 335.933594 291.359375 C 335.679688 292.9375 336.296875 294.53125 337.527344 295.554688 L 346.785156 303.171875 L 340.113281 317.675781 L 328.300781 315.617188 C 326.722656 315.347656 325.128906 315.917969 324.09375 317.132812 C 321.417969 320.273438 318.367188 323.117188 315 325.550781 C 313.707031 326.480469 313 328.042969 313.167969 329.636719 L 314.324219 341.570312 L 299.355469 347.117188 L 292.457031 337.300781 C 291.539062 335.996094 289.992188 335.273438 288.398438 335.394531 C 284.265625 335.722656 280.105469 335.574219 276.03125 334.925781 C 274.453125 334.671875 272.859375 335.289062 271.839844 336.519531 L 264.21875 345.777344 L 249.71875 339.105469 L 251.777344 327.292969 C 252.046875 325.714844 251.476562 324.121094 250.257812 323.085938 C 247.117188 320.410156 244.277344 317.34375 241.84375 313.992188 C 240.910156 312.699219 239.347656 311.996094 237.753906 312.160156 L 225.191406 313.378906 C 223.988281 312.386719 222.320312 312.054688 220.757812 312.625 C 218.429688 313.496094 217.226562 316.082031 218.097656 318.425781 C 219.089844 321.101562 221.765625 322.769531 224.589844 322.5 L 236.117188 321.386719 C 238.054688 323.820312 240.175781 326.121094 242.457031 328.238281 L 240.460938 339.648438 C 239.964844 342.457031 241.4375 345.253906 244.019531 346.4375 L 262.355469 354.871094 C 264.941406 356.058594 268.023438 355.351562 269.824219 353.15625 L 277.1875 344.214844 C 280.285156 344.574219 283.394531 344.679688 286.507812 344.5625 L 293.164062 354.042969 C 294.367188 355.757812 296.304688 356.71875 298.304688 356.71875 C 299.023438 356.71875 299.761719 356.597656 300.484375 356.328125 L 319.417969 349.324219 C 322.09375 348.332031 323.761719 345.65625 323.492188 342.832031 L 322.378906 331.304688 C 324.8125 329.367188 327.113281 327.25 329.21875 324.964844 L 340.625 326.960938 C 343.433594 327.457031 346.214844 325.984375 347.417969 323.402344 L 355.847656 305.066406 C 357.035156 302.480469 356.328125 299.402344 354.132812 297.597656 L 345.191406 290.234375 C 345.550781 287.136719 345.65625 284.027344 345.539062 280.914062 L 355.019531 274.257812 C 357.363281 272.574219 358.296875 269.570312 357.304688 266.894531 Z M 357.304688 266.894531 "/></g><path style=" stroke:none;fill-rule:nonzero;fill:#f2f0ea;fill-opacity:1;" d="M 284.191406 302.84375 C 281.351562 302.84375 278.601562 302.242188 276 301.039062 C 270.320312 298.425781 266.472656 293.417969 265.105469 287.769531 C 264.582031 285.558594 262.507812 284.070312 260.253906 284.3125 C 257.53125 284.597656 255.699219 287.199219 256.328125 289.859375 C 258.3125 298.109375 263.917969 305.410156 272.214844 309.230469 C 276 310.972656 280.027344 311.859375 284.175781 311.859375 C 289.585938 311.859375 294.878906 310.339844 299.460938 307.457031 C 304.179688 304.496094 307.90625 300.242188 310.234375 295.164062 C 313.4375 288.203125 313.738281 280.421875 311.078125 273.238281 C 308.417969 266.054688 303.128906 260.34375 296.167969 257.140625 C 295.042969 256.628906 293.902344 256.179688 292.726562 255.820312 C 290.007812 254.960938 287.183594 256.839844 286.898438 259.679688 C 286.6875 261.800781 287.980469 263.785156 290.007812 264.414062 C 290.820312 264.671875 291.617188 264.972656 292.398438 265.332031 C 297.160156 267.527344 300.796875 271.449219 302.617188 276.363281 C 304.433594 281.292969 304.238281 286.625 302.046875 291.390625 C 298.859375 298.347656 291.839844 302.84375 284.191406 302.84375 Z M 284.191406 302.84375 "/></g></svg>