<svg xmlns="http://www.w3.org/2000/svg" xmlns:xlink="http://www.w3.org/1999/xlink" width="500" zoomAndPan="magnify" viewBox="0 0 375 374.999991" height="500" preserveAspectRatio="xMidYMid meet" version="1.2"><g id="921797ad23"><rect x="0" width="375" y="0" height="374.999991" style="fill:#ffffff;fill-opacity:1;stroke:none;"/><rect x="0" width="375" y="0" height="374.999991" style="fill:#dddbd4;fill-opacity:1;stroke:none;"/><path style=" stroke:none;fill-rule:evenodd;fill:#f2f0ea;fill-opacity:1;" d="M 213.515625 373.636719 L 161.457031 373.636719 C 144.570312 373.636719 134.859375 370.707031 129.964844 364.125 C 123.644531 355.632812 127.203125 343.765625 131.707031 328.734375 C 134.707031 318.746094 138.105469 307.410156 139.140625 295.160156 C 141.628906 265.488281 136.765625 246.308594 132.066406 227.761719 C 124.644531 198.496094 117.636719 170.855469 144.578125 110.082031 C 158.285156 79.183594 160.589844 62.859375 163.269531 27.375 C 163.4375 25.140625 165.394531 23.460938 167.632812 23.632812 C 169.867188 23.800781 171.546875 25.75 171.375 27.996094 C 168.683594 63.722656 166.175781 81.453125 152.015625 113.386719 C 126.210938 171.582031 132.574219 196.6875 139.953125 225.761719 C 144.585938 244.0625 149.847656 264.8125 147.238281 295.835938 C 146.136719 308.933594 142.613281 320.695312 139.503906 331.074219 C 135.648438 343.914062 132.605469 354.058594 136.496094 359.269531 C 139.613281 363.460938 147.78125 365.503906 161.453125 365.503906 L 213.515625 365.503906 C 227.207031 365.503906 235.382812 363.460938 238.5 359.269531 C 242.382812 354.050781 239.339844 343.90625 235.492188 331.074219 C 232.386719 320.695312 228.851562 308.933594 227.75 295.835938 C 225.140625 264.8125 230.402344 244.0625 235.042969 225.761719 C 242.414062 196.683594 248.785156 171.582031 222.980469 113.386719 C 208.816406 81.453125 206.308594 63.722656 203.613281 27.996094 C 203.445312 25.75 205.121094 23.800781 207.367188 23.632812 C 209.601562 23.460938 211.550781 25.140625 211.71875 27.375 C 214.398438 62.855469 216.703125 79.183594 230.410156 110.082031 C 257.359375 170.851562 250.347656 198.5 242.933594 227.761719 C 238.222656 246.308594 233.359375 265.488281 235.859375 295.160156 C 236.882812 307.410156 240.289062 318.738281 243.28125 328.734375 C 247.789062 343.761719 251.34375 355.625 245.023438 364.125 C 240.128906 370.707031 230.410156 373.636719 213.515625 373.636719 Z M 213.515625 373.636719 "/><path style=" stroke:none;fill-rule:evenodd;fill:#f2f0ea;fill-opacity:1;" d="M 214.269531 125.171875 C 212.941406 125.171875 211.636719 124.519531 210.855469 123.316406 C 204.808594 113.980469 201.367188 101.566406 199.539062 92.800781 C 199.082031 90.605469 200.496094 88.445312 202.699219 87.988281 C 204.890625 87.539062 207.042969 88.945312 207.5 91.148438 C 209.882812 102.574219 213.5 112.429688 217.683594 118.894531 C 218.90625 120.773438 218.371094 123.292969 216.484375 124.511719 C 215.796875 124.960938 215.035156 125.171875 214.269531 125.171875 Z M 214.269531 125.171875 "/><path style=" stroke:none;fill-rule:evenodd;fill:#f2f0ea;fill-opacity:1;" d="M 215.566406 297.988281 C 213.476562 297.988281 211.695312 296.386719 211.515625 294.261719 C 210.050781 276.808594 210.738281 260.3125 213.628906 243.835938 C 214.019531 241.613281 216.125 240.132812 218.335938 240.53125 C 220.550781 240.910156 222.03125 243.019531 221.640625 245.234375 C 218.871094 261.015625 218.210938 276.835938 219.617188 293.582031 C 219.8125 295.820312 218.152344 297.785156 215.90625 297.980469 C 215.796875 297.988281 215.675781 297.988281 215.566406 297.988281 Z M 215.566406 297.988281 "/><path style=" stroke:none;fill-rule:evenodd;fill:#f2f0ea;fill-opacity:1;" d="M 228.0625 352.957031 C 225.945312 352.957031 224.15625 351.3125 224.011719 349.167969 C 223.664062 344.136719 221.046875 335.648438 218.726562 328.160156 C 217.429688 323.957031 216.203125 320 215.398438 316.722656 C 214.855469 314.542969 216.183594 312.339844 218.363281 311.796875 C 220.539062 311.257812 222.742188 312.585938 223.285156 314.765625 C 224.046875 317.8125 225.234375 321.667969 226.496094 325.753906 C 229.0625 334.054688 231.722656 342.636719 232.121094 348.617188 C 232.273438 350.863281 230.578125 352.804688 228.34375 352.949219 C 228.25 352.957031 228.15625 352.957031 228.0625 352.957031 Z M 228.0625 352.957031 "/><path style=" stroke:none;fill-rule:evenodd;fill:#f2f0ea;fill-opacity:1;" d="M 151.722656 208.523438 C 149.796875 208.523438 148.09375 207.167969 147.722656 205.210938 C 144.375 187.527344 145.164062 172.449219 150.441406 153.140625 C 151.035156 150.96875 153.269531 149.691406 155.441406 150.285156 C 157.601562 150.875 158.878906 153.113281 158.285156 155.28125 C 153.363281 173.300781 152.617188 187.324219 155.71875 203.703125 C 156.136719 205.902344 154.6875 208.03125 152.472656 208.453125 C 152.21875 208.496094 151.964844 208.523438 151.722656 208.523438 Z M 151.722656 208.523438 "/><path style=" stroke:none;fill-rule:evenodd;fill:#f2f0ea;fill-opacity:1;" d="M 138.070312 141.851562 C 135.828125 141.851562 134.003906 140.03125 134.003906 137.789062 C 134.003906 135.542969 135.828125 133.722656 138.070312 133.722656 L 236.925781 133.71875 C 239.171875 133.71875 240.992188 135.542969 240.992188 137.789062 C 240.992188 140.03125 239.171875 141.855469 236.925781 141.855469 Z M 138.070312 141.851562 "/><path style=" stroke:none;fill-rule:evenodd;fill:#f2f0ea;fill-opacity:1;" d="M 238.308594 233.507812 L 136.683594 233.507812 C 134.4375 233.507812 132.617188 231.6875 132.617188 229.441406 C 132.617188 227.1875 134.4375 225.375 136.683594 225.375 L 238.308594 225.375 C 240.5625 225.375 242.375 227.1875 242.375 229.441406 C 242.375 231.683594 240.5625 233.507812 238.308594 233.507812 Z M 238.308594 233.507812 "/><path style=" stroke:none;fill-rule:evenodd;fill:#f2f0ea;fill-opacity:1;" d="M 164.769531 23.625 L 210.230469 23.625 L 210.230469 16.429688 C 210.230469 12.472656 207.003906 9.246094 203.046875 9.246094 L 171.953125 9.246094 C 167.988281 9.246094 164.769531 12.472656 164.769531 16.429688 Z M 214.296875 31.757812 L 160.703125 31.757812 C 158.457031 31.757812 156.632812 29.933594 156.632812 27.691406 L 156.632812 16.429688 C 156.632812 7.984375 163.503906 1.113281 171.953125 1.113281 L 203.046875 1.113281 C 211.492188 1.113281 218.363281 7.984375 218.363281 16.429688 L 218.363281 27.691406 C 218.363281 29.933594 216.542969 31.757812 214.296875 31.757812 Z M 214.296875 31.757812 "/><path style=" stroke:none;fill-rule:evenodd;fill:#f2f0ea;fill-opacity:1;" d="M 214.21875 80.828125 L 160.777344 80.828125 C 158.53125 80.828125 156.710938 79.007812 156.710938 76.761719 C 156.710938 74.515625 158.53125 72.695312 160.777344 72.695312 L 214.21875 72.695312 C 216.464844 72.695312 218.285156 74.515625 218.285156 76.761719 C 218.289062 79.007812 216.464844 80.828125 214.21875 80.828125 Z M 214.21875 80.828125 "/></g></svg>