<svg xmlns="http://www.w3.org/2000/svg" xmlns:xlink="http://www.w3.org/1999/xlink" width="500" zoomAndPan="magnify" viewBox="0 0 375 374.999991" height="500" preserveAspectRatio="xMidYMid meet" version="1.2"><g id="2adceac05c"><rect x="0" width="375" y="0" height="374.999991" style="fill:#ffffff;fill-opacity:1;stroke:none;"/><rect x="0" width="375" y="0" height="374.999991" style="fill:#dddbd4;fill-opacity:1;stroke:none;"/><path style=" stroke:none;fill-rule:nonzero;fill:#f2f0ea;fill-opacity:1;" d="M 12.5 312.5 C 12.5 302.632812 26.875 300 35.34375 300 L 92.53125 300 L 129.289062 312.179688 C 130.601562 312.625 131.914062 312.625 133.226562 312.179688 L 162.5 302.425781 L 162.5 308.636719 L 130.367188 324.699219 L 101.25 318.875 C 100.796875 318.78125 100.335938 318.742188 99.875 318.75 C 99.410156 318.757812 98.953125 318.820312 98.503906 318.929688 C 98.054688 319.042969 97.621094 319.199219 97.207031 319.40625 C 96.792969 319.613281 96.40625 319.863281 96.046875 320.15625 C 95.6875 320.449219 95.367188 320.78125 95.078125 321.144531 C 94.792969 321.507812 94.550781 321.902344 94.351562 322.320312 C 94.15625 322.738281 94.003906 323.175781 93.902344 323.625 C 93.800781 324.078125 93.75 324.535156 93.75 325 L 93.75 375 L 106.25 375 L 106.25 332.625 L 130 337.375 C 131.398438 337.648438 132.738281 337.472656 134.019531 336.84375 L 171.519531 318.09375 C 172.039062 317.835938 172.515625 317.511719 172.949219 317.121094 C 173.378906 316.730469 173.75 316.285156 174.054688 315.792969 C 174.363281 315.296875 174.597656 314.773438 174.757812 314.210938 C 174.917969 313.652344 175 313.082031 175 312.5 L 175 293.75 C 175 292.746094 174.773438 291.792969 174.316406 290.898438 C 173.859375 290.003906 173.222656 289.261719 172.40625 288.675781 C 171.59375 288.085938 170.691406 287.714844 169.695312 287.566406 C 168.703125 287.414062 167.730469 287.503906 166.78125 287.824219 L 131.25 299.664062 L 95.5 287.820312 C 94.863281 287.609375 94.207031 287.503906 93.539062 287.5 L 75.113281 287.5 C 76.046875 287.03125 76.953125 286.511719 77.832031 285.941406 C 78.710938 285.371094 79.550781 284.753906 80.359375 284.085938 C 81.167969 283.421875 81.9375 282.714844 82.667969 281.964844 C 83.398438 281.214844 84.082031 280.425781 84.722656 279.597656 C 85.367188 278.769531 85.957031 277.910156 86.503906 277.019531 C 87.050781 276.125 87.542969 275.203125 87.988281 274.253906 C 88.429688 273.308594 88.816406 272.335938 89.152344 271.34375 C 89.484375 270.351562 89.765625 269.347656 89.984375 268.324219 C 90.207031 267.300781 90.371094 266.269531 90.480469 265.226562 C 90.585938 264.1875 90.632812 263.140625 90.625 262.09375 C 90.613281 261.046875 90.546875 260.007812 90.417969 258.96875 C 90.292969 257.929688 90.109375 256.898438 89.867188 255.882812 C 89.628906 254.863281 89.328125 253.859375 88.976562 252.875 C 88.625 251.890625 88.21875 250.925781 87.757812 249.988281 C 87.296875 249.046875 86.785156 248.136719 86.222656 247.253906 C 85.660156 246.371094 85.050781 245.523438 84.394531 244.707031 C 83.738281 243.890625 83.035156 243.117188 82.292969 242.378906 C 81.550781 241.644531 80.765625 240.949219 79.945312 240.300781 C 79.125 239.652344 78.269531 239.050781 77.382812 238.496094 C 76.496094 237.941406 75.578125 237.441406 74.632812 236.988281 C 73.691406 236.539062 72.722656 236.140625 71.734375 235.796875 C 70.746094 235.453125 69.742188 235.164062 68.722656 234.933594 C 67.699219 234.703125 66.671875 234.527344 65.628906 234.410156 C 64.589844 234.292969 63.546875 234.238281 62.5 234.238281 C 61.453125 234.238281 60.410156 234.292969 59.371094 234.410156 C 58.328125 234.527344 57.300781 234.703125 56.277344 234.933594 C 55.257812 235.164062 54.253906 235.453125 53.265625 235.796875 C 52.277344 236.140625 51.308594 236.539062 50.367188 236.988281 C 49.421875 237.441406 48.503906 237.941406 47.617188 238.496094 C 46.730469 239.050781 45.875 239.652344 45.054688 240.300781 C 44.234375 240.949219 43.449219 241.644531 42.707031 242.378906 C 41.964844 243.117188 41.261719 243.890625 40.605469 244.707031 C 39.949219 245.523438 39.339844 246.371094 38.777344 247.253906 C 38.214844 248.136719 37.703125 249.046875 37.242188 249.988281 C 36.78125 250.925781 36.375 251.890625 36.023438 252.875 C 35.671875 253.859375 35.371094 254.863281 35.132812 255.882812 C 34.890625 256.898438 34.707031 257.929688 34.582031 258.96875 C 34.453125 260.007812 34.386719 261.046875 34.375 262.09375 C 34.367188 263.140625 34.414062 264.1875 34.519531 265.226562 C 34.628906 266.269531 34.792969 267.300781 35.015625 268.324219 C 35.234375 269.347656 35.515625 270.351562 35.847656 271.34375 C 36.183594 272.335938 36.570312 273.308594 37.011719 274.253906 C 37.457031 275.203125 37.949219 276.125 38.496094 277.019531 C 39.042969 277.910156 39.632812 278.769531 40.277344 279.597656 C 40.917969 280.425781 41.601562 281.214844 42.332031 281.964844 C 43.0625 282.714844 43.832031 283.421875 44.640625 284.085938 C 45.449219 284.753906 46.289062 285.371094 47.167969 285.941406 C 48.046875 286.511719 48.953125 287.03125 49.886719 287.5 L 35.34375 287.5 C 14.199219 287.5 0 297.542969 0 312.5 L 0 375 L 12.5 375 Z M 62.5 246.875 C 63.527344 246.875 64.542969 246.976562 65.546875 247.175781 C 66.554688 247.375 67.53125 247.671875 68.480469 248.0625 C 69.425781 248.457031 70.328125 248.9375 71.179688 249.507812 C 72.035156 250.078125 72.824219 250.726562 73.546875 251.453125 C 74.273438 252.175781 74.921875 252.964844 75.492188 253.820312 C 76.0625 254.671875 76.542969 255.574219 76.9375 256.519531 C 77.328125 257.46875 77.625 258.445312 77.824219 259.453125 C 78.023438 260.457031 78.125 261.472656 78.125 262.5 C 78.125 263.527344 78.023438 264.542969 77.824219 265.546875 C 77.625 266.554688 77.328125 267.53125 76.9375 268.480469 C 76.542969 269.425781 76.0625 270.328125 75.492188 271.179688 C 74.921875 272.035156 74.273438 272.824219 73.546875 273.546875 C 72.824219 274.273438 72.035156 274.921875 71.179688 275.492188 C 70.328125 276.0625 69.425781 276.542969 68.480469 276.9375 C 67.53125 277.328125 66.554688 277.625 65.546875 277.824219 C 64.542969 278.023438 63.527344 278.125 62.5 278.125 C 61.472656 278.125 60.457031 278.023438 59.453125 277.824219 C 58.445312 277.625 57.46875 277.328125 56.519531 276.9375 C 55.574219 276.542969 54.671875 276.0625 53.820312 275.492188 C 52.964844 274.921875 52.175781 274.273438 51.453125 273.546875 C 50.726562 272.824219 50.078125 272.035156 49.507812 271.179688 C 48.9375 270.328125 48.457031 269.425781 48.0625 268.480469 C 47.671875 267.53125 47.375 266.554688 47.175781 265.546875 C 46.976562 264.542969 46.875 263.527344 46.875 262.5 C 46.875 261.472656 46.976562 260.457031 47.175781 259.453125 C 47.375 258.445312 47.671875 257.46875 48.0625 256.519531 C 48.457031 255.574219 48.9375 254.671875 49.507812 253.820312 C 50.078125 252.964844 50.726562 252.175781 51.453125 251.453125 C 52.175781 250.726562 52.964844 250.078125 53.820312 249.507812 C 54.671875 248.9375 55.574219 248.457031 56.519531 248.0625 C 57.46875 247.671875 58.445312 247.375 59.453125 247.175781 C 60.457031 246.976562 61.472656 246.875 62.5 246.875 Z M 62.5 246.875 "/><path style=" stroke:none;fill-rule:nonzero;fill:#f2f0ea;fill-opacity:1;" d="M 25 325 L 37.5 325 L 37.5 375 L 25 375 Z M 25 325 "/><path style=" stroke:none;fill-rule:nonzero;fill:#f2f0ea;fill-opacity:1;" d="M 116.289062 261.101562 L 147.539062 274.492188 C 148.324219 274.832031 149.144531 275 150 275 C 150.855469 275 151.675781 274.832031 152.460938 274.492188 L 183.710938 261.101562 C 184.273438 260.859375 184.789062 260.542969 185.257812 260.148438 C 185.726562 259.757812 186.132812 259.304688 186.46875 258.796875 C 186.804688 258.285156 187.058594 257.738281 187.234375 257.152344 C 187.410156 256.566406 187.5 255.96875 187.5 255.355469 L 187.5 219.644531 C 187.5 219.03125 187.410156 218.433594 187.234375 217.847656 C 187.058594 217.261719 186.804688 216.714844 186.46875 216.203125 C 186.132812 215.691406 185.726562 215.242188 185.257812 214.851562 C 184.789062 214.457031 184.273438 214.140625 183.710938 213.898438 L 152.460938 200.507812 C 151.675781 200.171875 150.855469 200.003906 150 200.003906 C 149.144531 200.003906 148.324219 200.171875 147.539062 200.507812 L 116.289062 213.898438 C 115.726562 214.140625 115.210938 214.457031 114.742188 214.851562 C 114.273438 215.242188 113.867188 215.691406 113.53125 216.203125 C 113.195312 216.714844 112.941406 217.261719 112.765625 217.847656 C 112.589844 218.433594 112.5 219.03125 112.5 219.644531 L 112.5 255.355469 C 112.5 255.96875 112.589844 256.566406 112.765625 257.152344 C 112.941406 257.738281 113.195312 258.285156 113.53125 258.796875 C 113.867188 259.308594 114.273438 259.757812 114.742188 260.148438 C 115.210938 260.542969 115.726562 260.859375 116.289062 261.101562 Z M 125 229.117188 L 143.75 237.15625 L 143.75 259.273438 L 125 251.25 Z M 156.25 259.273438 L 156.25 237.15625 L 175 229.117188 L 175 251.25 Z M 150 213.023438 L 165.386719 219.617188 L 150 226.25 L 134.613281 219.65625 Z M 150 213.023438 "/><path style=" stroke:none;fill-rule:nonzero;fill:#f2f0ea;fill-opacity:1;" d="M 339.65625 106.25 L 325.113281 106.25 C 326.046875 105.78125 326.953125 105.261719 327.832031 104.691406 C 328.710938 104.121094 329.550781 103.503906 330.359375 102.835938 C 331.167969 102.171875 331.9375 101.464844 332.667969 100.714844 C 333.398438 99.964844 334.082031 99.175781 334.722656 98.347656 C 335.367188 97.519531 335.957031 96.660156 336.503906 95.769531 C 337.050781 94.875 337.542969 93.953125 337.988281 93.003906 C 338.429688 92.058594 338.816406 91.085938 339.152344 90.09375 C 339.484375 89.101562 339.765625 88.097656 339.984375 87.074219 C 340.207031 86.050781 340.371094 85.019531 340.480469 83.976562 C 340.585938 82.9375 340.632812 81.890625 340.625 80.84375 C 340.613281 79.796875 340.546875 78.757812 340.417969 77.71875 C 340.292969 76.679688 340.109375 75.648438 339.867188 74.632812 C 339.628906 73.613281 339.328125 72.609375 338.976562 71.625 C 338.625 70.640625 338.21875 69.675781 337.757812 68.738281 C 337.296875 67.796875 336.785156 66.886719 336.222656 66.003906 C 335.660156 65.121094 335.050781 64.273438 334.394531 63.457031 C 333.738281 62.640625 333.035156 61.867188 332.292969 61.128906 C 331.550781 60.394531 330.765625 59.699219 329.945312 59.050781 C 329.125 58.402344 328.269531 57.800781 327.382812 57.246094 C 326.496094 56.691406 325.578125 56.191406 324.632812 55.738281 C 323.691406 55.289062 322.722656 54.890625 321.734375 54.546875 C 320.746094 54.203125 319.742188 53.914062 318.722656 53.683594 C 317.699219 53.453125 316.671875 53.277344 315.628906 53.160156 C 314.589844 53.042969 313.546875 52.988281 312.5 52.988281 C 311.453125 52.988281 310.410156 53.042969 309.371094 53.160156 C 308.328125 53.277344 307.300781 53.453125 306.277344 53.683594 C 305.257812 53.914062 304.253906 54.203125 303.265625 54.546875 C 302.277344 54.890625 301.308594 55.289062 300.367188 55.738281 C 299.421875 56.191406 298.503906 56.691406 297.617188 57.246094 C 296.730469 57.800781 295.875 58.402344 295.054688 59.050781 C 294.234375 59.699219 293.449219 60.394531 292.707031 61.128906 C 291.964844 61.867188 291.261719 62.640625 290.605469 63.457031 C 289.949219 64.273438 289.339844 65.121094 288.777344 66.003906 C 288.214844 66.886719 287.703125 67.796875 287.242188 68.738281 C 286.78125 69.675781 286.375 70.640625 286.023438 71.625 C 285.671875 72.609375 285.371094 73.613281 285.132812 74.632812 C 284.890625 75.648438 284.707031 76.679688 284.582031 77.71875 C 284.453125 78.757812 284.386719 79.796875 284.375 80.84375 C 284.367188 81.890625 284.414062 82.9375 284.519531 83.976562 C 284.628906 85.019531 284.792969 86.050781 285.015625 87.074219 C 285.234375 88.097656 285.515625 89.101562 285.847656 90.09375 C 286.183594 91.085938 286.570312 92.058594 287.011719 93.003906 C 287.457031 93.953125 287.949219 94.875 288.496094 95.769531 C 289.042969 96.660156 289.632812 97.519531 290.277344 98.347656 C 290.917969 99.175781 291.601562 99.964844 292.332031 100.714844 C 293.0625 101.464844 293.832031 102.171875 294.640625 102.835938 C 295.449219 103.503906 296.289062 104.121094 297.167969 104.691406 C 298.046875 105.261719 298.953125 105.78125 299.886719 106.25 L 281.460938 106.25 C 280.792969 106.253906 280.136719 106.359375 279.5 106.570312 L 243.75 118.414062 L 208.21875 106.574219 C 207.75 106.417969 207.269531 106.320312 206.777344 106.277344 C 206.28125 106.238281 205.792969 106.253906 205.304688 106.328125 C 204.8125 106.402344 204.339844 106.535156 203.882812 106.722656 C 203.425781 106.910156 202.996094 107.148438 202.59375 107.4375 C 202.195312 107.726562 201.832031 108.058594 201.511719 108.433594 C 201.1875 108.808594 200.914062 109.214844 200.6875 109.65625 C 200.460938 110.097656 200.292969 110.554688 200.175781 111.039062 C 200.058594 111.519531 200 112.003906 200 112.5 L 200 131.25 C 200 131.832031 200.078125 132.402344 200.238281 132.960938 C 200.394531 133.519531 200.628906 134.042969 200.933594 134.539062 C 201.238281 135.03125 201.605469 135.476562 202.035156 135.867188 C 202.460938 136.257812 202.9375 136.585938 203.457031 136.84375 L 240.957031 155.59375 C 242.234375 156.222656 243.574219 156.402344 244.976562 156.125 L 268.726562 151.375 L 268.726562 193.75 L 281.226562 193.75 L 281.226562 143.75 C 281.226562 143.285156 281.175781 142.828125 281.074219 142.375 C 280.972656 141.925781 280.820312 141.488281 280.621094 141.070312 C 280.421875 140.652344 280.179688 140.257812 279.894531 139.894531 C 279.609375 139.53125 279.289062 139.199219 278.929688 138.90625 C 278.570312 138.613281 278.183594 138.363281 277.769531 138.15625 C 277.351562 137.949219 276.921875 137.792969 276.472656 137.679688 C 276.019531 137.570312 275.566406 137.507812 275.101562 137.5 C 274.636719 137.492188 274.179688 137.53125 273.726562 137.625 L 244.582031 143.449219 L 212.5 127.386719 L 212.5 121.175781 L 241.773438 130.925781 C 243.085938 131.367188 244.398438 131.367188 245.710938 130.925781 L 282.5 118.75 L 339.6875 118.75 C 348.125 118.75 362.5 121.382812 362.5 131.25 L 362.5 193.75 L 375 193.75 L 375 131.25 C 375 116.292969 360.800781 106.25 339.65625 106.25 Z M 312.5 65.625 C 313.527344 65.625 314.542969 65.726562 315.546875 65.925781 C 316.554688 66.125 317.53125 66.421875 318.480469 66.8125 C 319.425781 67.207031 320.328125 67.6875 321.179688 68.257812 C 322.035156 68.828125 322.824219 69.476562 323.546875 70.203125 C 324.273438 70.925781 324.921875 71.714844 325.492188 72.570312 C 326.0625 73.421875 326.542969 74.324219 326.9375 75.269531 C 327.328125 76.21875 327.625 77.195312 327.824219 78.203125 C 328.023438 79.207031 328.125 80.222656 328.125 81.25 C 328.125 82.277344 328.023438 83.292969 327.824219 84.296875 C 327.625 85.304688 327.328125 86.28125 326.9375 87.230469 C 326.542969 88.175781 326.0625 89.078125 325.492188 89.929688 C 324.921875 90.785156 324.273438 91.574219 323.546875 92.296875 C 322.824219 93.023438 322.035156 93.671875 321.179688 94.242188 C 320.328125 94.8125 319.425781 95.292969 318.480469 95.6875 C 317.53125 96.078125 316.554688 96.375 315.546875 96.574219 C 314.542969 96.773438 313.527344 96.875 312.5 96.875 C 311.472656 96.875 310.457031 96.773438 309.453125 96.574219 C 308.445312 96.375 307.46875 96.078125 306.519531 95.6875 C 305.574219 95.292969 304.671875 94.8125 303.820312 94.242188 C 302.964844 93.671875 302.175781 93.023438 301.453125 92.296875 C 300.726562 91.574219 300.078125 90.785156 299.507812 89.929688 C 298.9375 89.078125 298.457031 88.175781 298.0625 87.230469 C 297.671875 86.28125 297.375 85.304688 297.175781 84.296875 C 296.976562 83.292969 296.875 82.277344 296.875 81.25 C 296.875 80.222656 296.976562 79.207031 297.175781 78.203125 C 297.375 77.195312 297.671875 76.21875 298.0625 75.269531 C 298.457031 74.324219 298.9375 73.421875 299.507812 72.570312 C 300.078125 71.714844 300.726562 70.925781 301.453125 70.203125 C 302.175781 69.476562 302.964844 68.828125 303.820312 68.257812 C 304.671875 67.6875 305.574219 67.207031 306.519531 66.8125 C 307.46875 66.421875 308.445312 66.125 309.453125 65.925781 C 310.457031 65.726562 311.472656 65.625 312.5 65.625 Z M 312.5 65.625 "/><path style=" stroke:none;fill-rule:nonzero;fill:#f2f0ea;fill-opacity:1;" d="M 337.5 143.75 L 350 143.75 L 350 193.75 L 337.5 193.75 Z M 337.5 143.75 "/><path style=" stroke:none;fill-rule:nonzero;fill:#f2f0ea;fill-opacity:1;" d="M 250 34.375 L 262.5 34.375 C 262.445312 33.609375 262.351562 32.847656 262.222656 32.089844 C 262.09375 31.332031 261.925781 30.582031 261.722656 29.84375 C 261.523438 29.101562 261.285156 28.371094 261.007812 27.65625 C 260.734375 26.9375 260.425781 26.234375 260.085938 25.546875 C 259.742188 24.859375 259.367188 24.191406 258.960938 23.539062 C 258.550781 22.886719 258.113281 22.257812 257.644531 21.648438 C 257.175781 21.042969 256.679688 20.457031 256.152344 19.898438 C 255.625 19.339844 255.074219 18.804688 254.496094 18.300781 C 253.917969 17.792969 253.316406 17.316406 252.691406 16.871094 C 252.066406 16.421875 251.421875 16.007812 250.757812 15.625 C 250.089844 15.238281 249.410156 14.886719 248.710938 14.570312 C 248.011719 14.253906 247.296875 13.96875 246.570312 13.722656 C 245.84375 13.472656 245.105469 13.261719 244.359375 13.085938 C 243.609375 12.910156 242.855469 12.769531 242.09375 12.667969 C 241.332031 12.566406 240.570312 12.5 239.800781 12.472656 C 239.035156 12.445312 238.265625 12.453125 237.5 12.5 L 237.5 0 L 225 0 L 225 12.5 C 224.234375 12.453125 223.464844 12.445312 222.699219 12.472656 C 221.929688 12.5 221.167969 12.566406 220.40625 12.667969 C 219.644531 12.769531 218.890625 12.910156 218.140625 13.085938 C 217.394531 13.261719 216.65625 13.472656 215.929688 13.722656 C 215.203125 13.96875 214.488281 14.253906 213.789062 14.570312 C 213.089844 14.886719 212.410156 15.238281 211.742188 15.625 C 211.078125 16.007812 210.433594 16.421875 209.808594 16.871094 C 209.183594 17.316406 208.582031 17.792969 208.003906 18.300781 C 207.425781 18.804688 206.875 19.339844 206.347656 19.898438 C 205.820312 20.457031 205.324219 21.042969 204.855469 21.648438 C 204.386719 22.257812 203.949219 22.886719 203.539062 23.539062 C 203.132812 24.191406 202.757812 24.859375 202.414062 25.546875 C 202.074219 26.234375 201.765625 26.9375 201.492188 27.65625 C 201.214844 28.371094 200.976562 29.101562 200.777344 29.84375 C 200.574219 30.582031 200.40625 31.332031 200.277344 32.089844 C 200.148438 32.847656 200.054688 33.609375 200 34.375 C 200.054688 35.140625 200.148438 35.902344 200.277344 36.660156 C 200.40625 37.417969 200.574219 38.167969 200.777344 38.90625 C 200.976562 39.648438 201.214844 40.378906 201.492188 41.09375 C 201.765625 41.8125 202.074219 42.515625 202.414062 43.203125 C 202.757812 43.890625 203.132812 44.558594 203.539062 45.210938 C 203.949219 45.863281 204.386719 46.492188 204.855469 47.101562 C 205.324219 47.707031 205.820312 48.292969 206.347656 48.851562 C 206.875 49.410156 207.425781 49.945312 208.003906 50.449219 C 208.582031 50.957031 209.183594 51.433594 209.808594 51.878906 C 210.433594 52.328125 211.078125 52.742188 211.742188 53.125 C 212.410156 53.511719 213.089844 53.863281 213.789062 54.179688 C 214.488281 54.496094 215.203125 54.78125 215.929688 55.027344 C 216.65625 55.277344 217.394531 55.488281 218.140625 55.664062 C 218.890625 55.839844 219.644531 55.980469 220.40625 56.082031 C 221.167969 56.183594 221.929688 56.25 222.699219 56.277344 C 223.464844 56.304688 224.234375 56.296875 225 56.25 L 225 75 C 218.226562 75 212.5 70.707031 212.5 65.625 L 200 65.625 C 200.054688 66.390625 200.148438 67.152344 200.277344 67.910156 C 200.40625 68.667969 200.574219 69.417969 200.777344 70.15625 C 200.976562 70.898438 201.214844 71.628906 201.492188 72.34375 C 201.765625 73.0625 202.074219 73.765625 202.414062 74.453125 C 202.757812 75.140625 203.132812 75.808594 203.539062 76.460938 C 203.949219 77.113281 204.386719 77.742188 204.855469 78.351562 C 205.324219 78.957031 205.820312 79.542969 206.347656 80.101562 C 206.875 80.660156 207.425781 81.195312 208.003906 81.699219 C 208.582031 82.207031 209.183594 82.683594 209.808594 83.128906 C 210.433594 83.578125 211.078125 83.992188 211.742188 84.375 C 212.410156 84.761719 213.089844 85.113281 213.789062 85.429688 C 214.488281 85.746094 215.203125 86.03125 215.929688 86.277344 C 216.65625 86.527344 217.394531 86.738281 218.140625 86.914062 C 218.890625 87.089844 219.644531 87.230469 220.40625 87.332031 C 221.167969 87.433594 221.929688 87.5 222.699219 87.527344 C 223.464844 87.554688 224.234375 87.546875 225 87.5 L 225 100 L 237.5 100 L 237.5 87.5 C 238.265625 87.546875 239.035156 87.554688 239.800781 87.527344 C 240.570312 87.5 241.332031 87.433594 242.09375 87.332031 C 242.855469 87.230469 243.609375 87.089844 244.359375 86.914062 C 245.105469 86.738281 245.84375 86.527344 246.570312 86.277344 C 247.296875 86.03125 248.011719 85.746094 248.710938 85.429688 C 249.410156 85.113281 250.089844 84.761719 250.757812 84.375 C 251.421875 83.992188 252.066406 83.578125 252.691406 83.128906 C 253.316406 82.683594 253.917969 82.207031 254.496094 81.699219 C 255.074219 81.195312 255.625 80.660156 256.152344 80.101562 C 256.679688 79.542969 257.175781 78.957031 257.644531 78.351562 C 258.113281 77.742188 258.550781 77.113281 258.960938 76.460938 C 259.367188 75.808594 259.742188 75.140625 260.085938 74.453125 C 260.425781 73.765625 260.734375 73.0625 261.007812 72.34375 C 261.285156 71.628906 261.523438 70.898438 261.722656 70.15625 C 261.925781 69.417969 262.09375 68.667969 262.222656 67.910156 C 262.351562 67.152344 262.445312 66.390625 262.5 65.625 C 262.445312 64.859375 262.351562 64.097656 262.222656 63.339844 C 262.09375 62.582031 261.925781 61.832031 261.722656 61.09375 C 261.523438 60.351562 261.285156 59.621094 261.007812 58.90625 C 260.734375 58.1875 260.425781 57.484375 260.085938 56.796875 C 259.742188 56.109375 259.367188 55.441406 258.960938 54.789062 C 258.550781 54.136719 258.113281 53.507812 257.644531 52.898438 C 257.175781 52.292969 256.679688 51.707031 256.152344 51.148438 C 255.625 50.589844 255.074219 50.054688 254.496094 49.550781 C 253.917969 49.042969 253.316406 48.566406 252.691406 48.121094 C 252.066406 47.671875 251.421875 47.257812 250.757812 46.875 C 250.089844 46.488281 249.410156 46.136719 248.710938 45.820312 C 248.011719 45.503906 247.296875 45.21875 246.570312 44.972656 C 245.84375 44.722656 245.105469 44.511719 244.359375 44.335938 C 243.609375 44.160156 242.855469 44.019531 242.09375 43.917969 C 241.332031 43.816406 240.570312 43.75 239.800781 43.722656 C 239.035156 43.695312 238.265625 43.703125 237.5 43.75 L 237.5 25 C 244.273438 25 250 29.292969 250 34.375 Z M 250 65.625 C 250 70.707031 244.273438 75 237.5 75 L 237.5 56.25 C 244.273438 56.25 250 60.542969 250 65.625 Z M 225 43.75 C 218.226562 43.75 212.5 39.457031 212.5 34.375 C 212.5 29.292969 218.226562 25 225 25 Z M 225 43.75 "/><path style=" stroke:none;fill-rule:nonzero;fill:#f2f0ea;fill-opacity:1;" d="M 50 187.5 C 50.003906 185.25 50.058594 183.003906 50.171875 180.753906 C 50.285156 178.507812 50.453125 176.265625 50.675781 174.027344 C 50.898438 171.789062 51.175781 169.558594 51.507812 167.332031 C 51.839844 165.105469 52.226562 162.890625 52.667969 160.6875 C 53.109375 158.480469 53.601562 156.285156 54.152344 154.105469 C 54.699219 151.921875 55.300781 149.753906 55.957031 147.601562 C 56.609375 145.449219 57.316406 143.316406 58.078125 141.199219 C 58.835938 139.082031 59.644531 136.984375 60.507812 134.90625 C 61.371094 132.828125 62.28125 130.773438 63.246094 128.738281 C 64.207031 126.707031 65.21875 124.699219 66.28125 122.714844 C 67.34375 120.730469 68.453125 118.773438 69.609375 116.84375 C 70.765625 114.914062 71.96875 113.015625 73.222656 111.144531 C 74.472656 109.277344 75.765625 107.4375 77.105469 105.632812 C 78.449219 103.824219 79.832031 102.050781 81.257812 100.3125 C 82.6875 98.574219 84.15625 96.871094 85.667969 95.203125 C 87.175781 93.539062 88.726562 91.910156 90.320312 90.320312 C 91.910156 88.726562 93.539062 87.175781 95.203125 85.667969 C 96.871094 84.15625 98.574219 82.6875 100.3125 81.257812 C 102.050781 79.832031 103.824219 78.449219 105.632812 77.105469 C 107.4375 75.765625 109.277344 74.472656 111.144531 73.222656 C 113.015625 71.96875 114.914062 70.765625 116.84375 69.609375 C 118.773438 68.453125 120.730469 67.34375 122.714844 66.28125 C 124.699219 65.21875 126.707031 64.207031 128.738281 63.246094 C 130.773438 62.28125 132.828125 61.371094 134.90625 60.507812 C 136.984375 59.644531 139.082031 58.835938 141.199219 58.078125 C 143.316406 57.316406 145.449219 56.609375 147.601562 55.957031 C 149.753906 55.300781 151.921875 54.699219 154.105469 54.152344 C 156.285156 53.601562 158.480469 53.109375 160.6875 52.667969 C 162.890625 52.226562 165.105469 51.839844 167.332031 51.507812 C 169.558594 51.175781 171.789062 50.898438 174.027344 50.675781 C 176.265625 50.453125 178.507812 50.285156 180.753906 50.171875 C 183.003906 50.058594 185.25 50.003906 187.5 50 L 187.5 37.5 C 185.046875 37.503906 182.59375 37.566406 180.140625 37.6875 C 177.691406 37.8125 175.246094 37.996094 172.804688 38.238281 C 170.359375 38.480469 167.925781 38.785156 165.5 39.144531 C 163.070312 39.507812 160.65625 39.929688 158.25 40.410156 C 155.84375 40.890625 153.449219 41.429688 151.070312 42.03125 C 148.6875 42.628906 146.324219 43.285156 143.976562 44 C 141.628906 44.710938 139.300781 45.484375 136.988281 46.3125 C 134.679688 47.140625 132.390625 48.023438 130.125 48.964844 C 127.859375 49.90625 125.617188 50.902344 123.398438 51.949219 C 121.179688 53 118.988281 54.105469 116.824219 55.261719 C 114.660156 56.421875 112.527344 57.632812 110.421875 58.894531 C 108.316406 60.15625 106.246094 61.46875 104.207031 62.832031 C 102.164062 64.195312 100.160156 65.609375 98.1875 67.074219 C 96.21875 68.535156 94.285156 70.042969 92.386719 71.601562 C 90.492188 73.160156 88.632812 74.761719 86.816406 76.410156 C 84.996094 78.058594 83.21875 79.75 81.484375 81.484375 C 79.75 83.21875 78.058594 84.996094 76.410156 86.816406 C 74.761719 88.632812 73.160156 90.492188 71.601562 92.386719 C 70.042969 94.285156 68.535156 96.21875 67.074219 98.1875 C 65.609375 100.160156 64.195312 102.164062 62.832031 104.207031 C 61.46875 106.246094 60.15625 108.316406 58.894531 110.421875 C 57.632812 112.527344 56.421875 114.660156 55.261719 116.824219 C 54.105469 118.988281 53 121.179688 51.949219 123.398438 C 50.902344 125.617188 49.90625 127.859375 48.964844 130.125 C 48.023438 132.390625 47.140625 134.679688 46.3125 136.988281 C 45.484375 139.300781 44.710938 141.628906 44 143.976562 C 43.285156 146.324219 42.628906 148.6875 42.03125 151.070312 C 41.429688 153.449219 40.890625 155.84375 40.410156 158.25 C 39.929688 160.65625 39.507812 163.070312 39.144531 165.5 C 38.785156 167.925781 38.480469 170.359375 38.238281 172.804688 C 37.996094 175.246094 37.8125 177.691406 37.6875 180.140625 C 37.566406 182.59375 37.503906 185.046875 37.5 187.5 Z M 50 187.5 "/><path style=" stroke:none;fill-rule:nonzero;fill:#f2f0ea;fill-opacity:1;" d="M 336.25 207.054688 L 323.855469 205.445312 C 323.582031 207.488281 323.265625 209.523438 322.902344 211.554688 C 322.539062 213.585938 322.128906 215.605469 321.675781 217.617188 C 321.21875 219.628906 320.71875 221.628906 320.175781 223.617188 C 319.632812 225.605469 319.042969 227.582031 318.410156 229.546875 C 317.777344 231.507812 317.097656 233.457031 316.378906 235.386719 C 315.65625 237.320312 314.894531 239.234375 314.085938 241.132812 C 313.28125 243.03125 312.429688 244.910156 311.539062 246.769531 C 310.648438 248.628906 309.71875 250.46875 308.742188 252.285156 C 307.769531 254.105469 306.753906 255.898438 305.703125 257.671875 C 304.648438 259.445312 303.554688 261.191406 302.421875 262.914062 C 301.289062 264.636719 300.117188 266.335938 298.910156 268.007812 C 297.699219 269.675781 296.453125 271.320312 295.171875 272.933594 C 293.886719 274.550781 292.570312 276.132812 291.214844 277.691406 C 289.863281 279.246094 288.472656 280.769531 287.050781 282.261719 C 285.628906 283.757812 284.171875 285.214844 282.683594 286.644531 C 281.195312 288.070312 279.679688 289.464844 278.128906 290.824219 C 276.578125 292.183594 274.996094 293.507812 273.386719 294.796875 C 271.777344 296.085938 270.136719 297.339844 268.472656 298.554688 C 266.804688 299.769531 265.113281 300.945312 263.394531 302.085938 C 261.675781 303.222656 259.929688 304.324219 258.160156 305.382812 C 256.394531 306.445312 254.601562 307.464844 252.785156 308.445312 C 250.972656 309.425781 249.136719 310.363281 247.28125 311.261719 C 245.425781 312.160156 243.546875 313.015625 241.652344 313.828125 C 239.757812 314.640625 237.847656 315.414062 235.917969 316.140625 C 233.988281 316.867188 232.042969 317.550781 230.082031 318.191406 C 228.121094 318.832031 226.148438 319.429688 224.160156 319.980469 C 222.171875 320.53125 220.175781 321.039062 218.164062 321.5 C 216.15625 321.960938 214.136719 322.378906 212.105469 322.75 C 210.078125 323.121094 208.042969 323.445312 206 323.726562 C 203.957031 324.007812 201.90625 324.242188 199.855469 324.429688 C 197.800781 324.617188 195.742188 324.757812 193.683594 324.851562 C 191.625 324.949219 189.5625 324.996094 187.5 325 L 187.5 337.5 C 189.75 337.496094 192 337.441406 194.246094 337.339844 C 196.492188 337.234375 198.738281 337.082031 200.976562 336.875 C 203.21875 336.671875 205.453125 336.414062 207.683594 336.109375 C 209.910156 335.804688 212.132812 335.449219 214.34375 335.042969 C 216.558594 334.640625 218.761719 334.183594 220.953125 333.679688 C 223.148438 333.175781 225.328125 332.625 227.496094 332.023438 C 229.664062 331.417969 231.816406 330.769531 233.953125 330.070312 C 236.09375 329.371094 238.214844 328.625 240.320312 327.832031 C 242.425781 327.039062 244.511719 326.195312 246.578125 325.308594 C 248.648438 324.421875 250.691406 323.488281 252.71875 322.507812 C 254.742188 321.527344 256.746094 320.503906 258.726562 319.433594 C 260.703125 318.367188 262.660156 317.25 264.589844 316.09375 C 266.519531 314.9375 268.421875 313.738281 270.296875 312.496094 C 272.171875 311.25 274.019531 309.96875 275.835938 308.640625 C 277.652344 307.316406 279.441406 305.949219 281.199219 304.542969 C 282.953125 303.136719 284.679688 301.695312 286.371094 300.210938 C 288.0625 298.726562 289.71875 297.207031 291.34375 295.648438 C 292.964844 294.089844 294.550781 292.496094 296.105469 290.867188 C 297.65625 289.238281 299.171875 287.574219 300.648438 285.878906 C 302.125 284.179688 303.5625 282.453125 304.960938 280.691406 C 306.363281 278.929688 307.71875 277.136719 309.039062 275.3125 C 310.359375 273.492188 311.636719 271.640625 312.871094 269.757812 C 314.105469 267.878906 315.300781 265.972656 316.449219 264.039062 C 317.597656 262.105469 318.707031 260.144531 319.769531 258.160156 C 320.828125 256.179688 321.847656 254.171875 322.820312 252.144531 C 323.789062 250.113281 324.714844 248.0625 325.597656 245.992188 C 326.476562 243.921875 327.308594 241.832031 328.09375 239.726562 C 328.882812 237.617188 329.621094 235.492188 330.308594 233.351562 C 331 231.210938 331.644531 229.054688 332.238281 226.882812 C 332.832031 224.714844 333.375 222.53125 333.871094 220.335938 C 334.367188 218.144531 334.8125 215.9375 335.210938 213.722656 C 335.605469 211.507812 335.953125 209.285156 336.25 207.054688 Z M 336.25 207.054688 "/></g></svg>