<svg xmlns="http://www.w3.org/2000/svg" xmlns:xlink="http://www.w3.org/1999/xlink" width="500" zoomAndPan="magnify" viewBox="0 0 375 374.999991" height="500" preserveAspectRatio="xMidYMid meet" version="1.0"><defs><clipPath id="67452ca010"><path d="M 0 37.5 L 375 37.5 L 375 289 L 0 289 Z M 0 37.5 " clip-rule="nonzero"/></clipPath><clipPath id="231bc014d5"><path d="M 111 315 L 264 315 L 264 355.5 L 111 355.5 Z M 111 315 " clip-rule="nonzero"/></clipPath></defs><rect x="-37.5" width="450" fill="#ffffff" y="-37.499999" height="449.999989" fill-opacity="1"/><rect x="-37.5" width="450" fill="#dddbd4" y="-37.499999" height="449.999989" fill-opacity="1"/><g clip-path="url(#67452ca010)"><path fill="#f2f0ea" d="M 26.382812 37.5 L 348.617188 37.5 C 363.113281 37.5 374.976562 49.363281 374.976562 63.640625 L 374.976562 262.207031 C 374.976562 276.707031 363.113281 288.566406 348.617188 288.566406 L 26.382812 288.566406 C 11.886719 288.566406 0.0234375 276.707031 0.0234375 262.207031 L 0.0234375 63.640625 C 0.0234375 49.363281 11.886719 37.5 26.382812 37.5 Z M 348.617188 53.316406 L 26.382812 53.316406 C 20.453125 53.316406 15.839844 57.929688 15.839844 63.640625 L 15.839844 262.207031 C 15.839844 268.136719 20.453125 272.75 26.382812 272.75 L 348.617188 272.75 C 354.328125 272.75 359.160156 268.136719 359.160156 262.207031 L 359.160156 63.640625 C 359.160156 57.929688 354.328125 53.316406 348.617188 53.316406 Z M 348.617188 53.316406 " fill-opacity="1" fill-rule="evenodd"/></g><path fill="#f2f0ea" d="M 154.660156 281.097656 L 220.339844 281.097656 L 220.339844 323.050781 L 154.660156 323.050781 Z M 154.660156 281.097656 " fill-opacity="1" fill-rule="nonzero"/><g clip-path="url(#231bc014d5)"><path fill="#f2f0ea" d="M 131.597656 315.585938 L 243.402344 315.585938 C 254.386719 315.585938 263.390625 324.589844 263.390625 335.574219 L 263.390625 351.386719 C 263.390625 353.804688 261.632812 355.78125 259.21875 355.78125 L 115.78125 355.78125 C 113.367188 355.78125 111.390625 353.804688 111.390625 351.386719 C 111.390625 339.308594 109.632812 329.203125 117.320312 321.515625 C 121.054688 317.78125 126.105469 315.585938 131.597656 315.585938 Z M 131.597656 315.585938 " fill-opacity="1" fill-rule="nonzero"/></g><path fill="#f2f0ea" d="M 215.726562 93.074219 C 211.773438 89.117188 217.921875 82.96875 221.875 87.140625 L 243.839844 109.109375 C 245.378906 110.644531 245.378906 113.5 243.839844 115.039062 L 221.875 137.003906 C 217.921875 140.957031 211.773438 135.027344 215.726562 130.855469 L 234.617188 111.964844 Z M 215.726562 93.074219 " fill-opacity="1" fill-rule="nonzero"/><path fill="#f2f0ea" d="M 153.125 87.140625 C 157.078125 82.96875 163.226562 89.117188 159.054688 93.074219 L 140.382812 111.964844 L 159.054688 130.855469 C 163.226562 135.027344 157.078125 140.957031 153.125 137.003906 L 131.160156 115.039062 C 129.402344 113.5 129.402344 110.644531 131.160156 109.109375 Z M 153.125 87.140625 " fill-opacity="1" fill-rule="nonzero"/><path fill="#f2f0ea" d="M 192.882812 93.953125 C 195.738281 89.117188 203.207031 93.292969 200.351562 98.125 L 181.898438 130.195312 C 179.042969 135.027344 171.574219 130.855469 174.429688 125.800781 Z M 192.882812 93.953125 " fill-opacity="1" fill-rule="nonzero"/><path fill="#f2f0ea" d="M 53.621094 164.023438 L 111.167969 164.023438 C 118.199219 164.023438 123.910156 169.734375 123.910156 176.761719 L 123.910156 210.148438 C 123.910156 217.179688 118.199219 222.890625 111.167969 222.890625 L 53.621094 222.890625 C 46.589844 222.890625 40.878906 217.179688 40.878906 210.148438 L 40.878906 176.761719 C 40.878906 169.734375 46.589844 164.023438 53.621094 164.023438 Z M 53.621094 164.023438 " fill-opacity="1" fill-rule="nonzero"/><path fill="#f2f0ea" d="M 53.621094 240.242188 C 47.910156 240.242188 47.910156 231.675781 53.621094 231.675781 L 111.167969 231.675781 C 116.878906 231.675781 116.878906 240.242188 111.167969 240.242188 Z M 53.621094 240.242188 " fill-opacity="1" fill-rule="nonzero"/><path fill="#f2f0ea" d="M 158.835938 164.023438 L 216.164062 164.023438 C 223.195312 164.023438 229.125 169.734375 229.125 176.761719 L 229.125 210.148438 C 229.125 217.179688 223.195312 222.890625 216.164062 222.890625 L 158.835938 222.890625 C 151.585938 222.890625 145.875 217.179688 145.875 210.148438 L 145.875 176.761719 C 145.875 169.734375 151.585938 164.023438 158.835938 164.023438 Z M 158.835938 164.023438 " fill-opacity="1" fill-rule="nonzero"/><path fill="#f2f0ea" d="M 158.617188 240.242188 C 152.902344 240.242188 152.902344 231.675781 158.617188 231.675781 L 216.382812 231.675781 C 221.875 231.675781 221.875 240.242188 216.382812 240.242188 Z M 158.617188 240.242188 " fill-opacity="1" fill-rule="nonzero"/><path fill="#f2f0ea" d="M 263.832031 164.023438 L 321.160156 164.023438 C 328.191406 164.023438 334.121094 169.734375 334.121094 176.761719 L 334.121094 210.148438 C 334.121094 217.179688 328.191406 222.890625 321.160156 222.890625 L 263.832031 222.890625 C 256.800781 222.890625 250.871094 217.179688 250.871094 210.148438 L 250.871094 176.761719 C 250.871094 169.734375 256.800781 164.023438 263.832031 164.023438 Z M 263.832031 164.023438 " fill-opacity="1" fill-rule="nonzero"/><path fill="#f2f0ea" d="M 263.609375 240.242188 C 257.898438 240.242188 257.898438 231.675781 263.609375 231.675781 L 321.378906 231.675781 C 327.089844 231.675781 327.089844 240.242188 321.378906 240.242188 Z M 263.609375 240.242188 " fill-opacity="1" fill-rule="nonzero"/></svg>