<svg xmlns="http://www.w3.org/2000/svg" xmlns:xlink="http://www.w3.org/1999/xlink" width="500" zoomAndPan="magnify" viewBox="0 0 375 374.999991" height="500" preserveAspectRatio="xMidYMid meet" version="1.0"><rect x="-37.5" width="450" fill="#ffffff" y="-37.499999" height="449.999989" fill-opacity="1"/><rect x="-37.5" width="450" fill="#dddbd4" y="-37.499999" height="449.999989" fill-opacity="1"/><path fill="#f2f0ea" d="M 102.480469 253.808594 L 42.726562 253.75 L 42.703125 282.605469 L 110.753906 282.671875 C 116.058594 282.671875 120.695312 279.808594 123.199219 275.542969 L 155.148438 220.515625 C 146.847656 215.664062 138.542969 210.8125 130.242188 205.960938 Z M 184.984375 134.726562 C 189.171875 133.605469 193.179688 134.144531 196.917969 136.332031 L 290.664062 191.210938 L 267.710938 230.460938 C 265.488281 234.261719 260.605469 235.542969 257.21875 232.609375 C 257.21875 232.609375 228.480469 215.804688 193.734375 195.488281 C 173.648438 183.742188 151.558594 170.824219 131.84375 159.300781 C 127.683594 156.867188 123.628906 154.496094 119.722656 152.210938 Z M 106.445312 144.449219 L 182.15625 124.164062 C 189.140625 122.292969 196.207031 123.242188 202.445312 126.894531 L 302.796875 185.640625 L 372.617188 153.589844 C 373.992188 152.960938 374.839844 151.707031 374.917969 150.195312 C 374.992188 148.6875 374.269531 147.351562 372.964844 146.589844 C 295.4375 101.257812 217.910156 55.929688 140.386719 10.597656 C 122.660156 0.230469 99.890625 6.199219 89.523438 23.925781 L 59.671875 74.984375 C 49.304688 92.707031 55.269531 115.480469 73.410156 125.132812 Z M 120.53125 53.972656 C 117.523438 52.214844 116.519531 48.335938 118.277344 45.335938 C 120.039062 42.332031 123.914062 41.328125 126.917969 43.085938 L 167.652344 66.90625 C 170.660156 68.664062 171.664062 72.539062 169.902344 75.542969 C 168.140625 78.546875 164.269531 79.546875 161.265625 77.792969 Z M 347.199219 177.292969 L 298.363281 199.710938 L 285.785156 221.21875 L 291.167969 224.328125 C 300.09375 229.480469 310.765625 230.839844 320.707031 228.175781 C 330.703125 225.5 339.191406 219.039062 344.371094 210.074219 C 349.523438 201.148438 350.882812 190.472656 348.214844 180.523438 C 347.921875 179.433594 347.582031 178.351562 347.199219 177.292969 Z M 188.800781 205.269531 L 188.792969 205.289062 C 183.957031 213.546875 172.410156 217.945312 164.15625 213.117188 L 132.164062 194.414062 C 123.910156 189.589844 122.070312 177.359375 126.898438 169.101562 L 126.910156 169.082031 Z M 23.933594 210.871094 L 15.890625 210.855469 L 15.929688 173.097656 C 15.929688 168.75 12.402344 165.226562 8.058594 165.226562 C 3.710938 165.226562 0.183594 168.75 0.183594 173.097656 L 0.148438 210.824219 L 0.113281 210.824219 L 0 325.355469 L 0.0351562 325.355469 L 0 363.105469 C 0 367.453125 3.523438 370.976562 7.871094 370.976562 C 12.21875 370.976562 15.742188 367.453125 15.742188 363.105469 L 15.777344 325.382812 L 23.820312 325.398438 C 26 325.402344 27.875 324.632812 29.417969 323.09375 C 30.957031 321.554688 31.738281 319.683594 31.738281 317.503906 L 31.820312 218.78125 C 31.824219 214.429688 28.28125 210.878906 23.933594 210.871094 Z M 23.933594 210.871094 " fill-opacity="1" fill-rule="evenodd"/></svg>